{
.appVersion = "3306";
.formatVersion = 3;
DisplayStrings = (
"ta vbaaasdsdasdsadsdcösacasntana

kaynana"
);
axes = (
{
name = Weight;
tag = wght;
}
);
classes = (
{
automatic = 1;

glyphs = (
{
glyphname = A;
kernLeft = A;
kernRight = A;
lastChange = "2022-09-12 12:04:11 +0000";
layers = (
{
anchors = (
{
name = dotbelow;
pos = (341,0);
},
{
name = top;
pos = (347,700);
}
);
layerId = "DFC09A70-1A82-4D07-97CF-EECDCA771356";
shapes = (
{
closed = 1;
nodes = (
(170,125,l),
(499,125,l),
(499,250,l),
(170,250,l)
);
},
{
closed = 1;
nodes = (
(169,0,l),
(403,700,l),
(255,700,l),
(15,0,l)
);
},
{
closed = 1;
nodes = (
(431,700,l),
(283,700,l),
(517,0,l),
(671,0,l)
);
}
);
width = 686;
},
{
anchors = (
{
name = dotbelow;
pos = (288,0);
},
{
name = top;
pos = (290,695);
}
);
layerId = "B950CEFC-B47C-4E26-91C8-4EFB806DAEDB";
shapes = (
{
closed = 1;
nodes = (
(125,224,l),
(454,224,l),
(454,250,l),
(125,250,l)
);
},
{
closed = 1;
nodes = (
(57,0,l),
(297,700,l),
(270,700,l),
(30,0,l)
);
},
{
closed = 1;
nodes = (
(308,700,l),
(281,700,l),
(521,0,l),
(548,0,l)
);
}
);
width = 578;
},
{
anchors = (
{
name = dotbelow;
pos = (311,0);
},
{
name = top;
pos = (314,697);
}
);
layerId = "38A022BC-B010-4522-83EC-9E43C5A6F806";
shapes = (
{
closed = 1;
nodes = (
(144,182,l),
(473,182,l),
(473,250,l),
(144,250,l)
);
},
{
closed = 1;
nodes = (
(105,0,l),
(342,700,l),
(264,700,l),
(24,0,l)
);
},
{
closed = 1;
nodes = (
(361,700,l),
(282,700,l),
(519,0,l),
(601,0,l)
);
}
);
width = 624;
}
);
unicode = 65;
},
{
glyphname = AE;
lastChange = "2022-09-12 12:02:41 +0000";
layers = (
{
layerId = "DFC09A70-1A82-4D07-97CF-EECDCA771356";
shapes = (
{
closed = 1;
nodes = (
(155,125,l),
(484,125,l),
(484,250,l),
(155,250,l)
);
},
{
closed = 1;
nodes = (
(154,0,l),
(488,700,l),
(340,700,l),
(0,0,l)
);
},
{
closed = 1;
nodes = (
(436,0,l),
(581,0,l),
(581,700,l),
(436,700,l)
);
},
{
closed = 1;
nodes = (
(456,296,l),
(800,296,l),
(800,431,l),
(456,431,l)
);
},
{
closed = 1;
nodes = (
(368,565,l),
(910,565,l),
(910,700,l),
(368,700,l)
);
},
{
closed = 1;
nodes = (
(456,0,l),
(910,0,l),
(910,135,l),
(456,135,l)
);
}
);
width = 931;
},
{
layerId = "B950CEFC-B47C-4E26-91C8-4EFB806DAEDB";
shapes = (
{
closed = 1;
nodes = (
(127,224,l),
(396,224,l),
(396,250,l),
(127,250,l)
);
},
{
closed = 1;
nodes = (
(29,0,l),
(359,700,l),
(330,700,l),
(0,0,l)
);
},
{
closed = 1;
nodes = (
(384,0,l),
(410,0,l),
(410,700,l),
(384,700,l)
);
},
{
closed = 1;
nodes = (
(404,347,l),
(688,347,l),
(688,373,l),
(404,373,l)
);
},
{
closed = 1;
nodes = (
(339,674,l),
(768,674,l),
(768,700,l),
(339,700,l)
);
},
{
closed = 1;
nodes = (
(404,0,l),
(768,0,l),
(768,26,l),
(404,26,l)
);
}
);
width = 816;
},
{
layerId = "38A022BC-B010-4522-83EC-9E43C5A6F806";
shapes = (
{
closed = 1;
nodes = (
(139,182,l),
(434,182,l),
(434,250,l),
(139,250,l)
);
},
{
closed = 1;
nodes = (
(83,0,l),
(414,700,l),
(334,700,l),
(0,0,l)
);
},
{
closed = 1;
nodes = (
(406,0,l),
(483,0,l),
(483,700,l),
(406,700,l)
);
},
{
closed = 1;
nodes = (
(426,325,l),
(736,325,l),
(736,398,l),
(426,398,l)
);
},
{
closed = 1;
nodes = (
(351,627,l),
(829,627,l),
(829,700,l),
(351,700,l)
);
},
{
closed = 1;
nodes = (
(426,0,l),
(829,0,l),
(829,73,l),
(426,73,l)
);
}
);
width = 865;
}
);
unicode = 198;
},
{
glyphname = B;
lastChange = "2022-09-12 12:04:11 +0000";
layers = (
{
layerId = "DFC09A70-1A82-4D07-97CF-EECDCA771356";
shapes = (
{
closed = 1;
nodes = (
(332,0,ls),
(465,0,o),
(574,65,o),
(574,205,cs),
(574,259,o),
(534,353,o),
(417,364,c),
(526,380,o),
(544,460,o),
(544,508,cs),
(544,638,o),
(435,700,o),
(302,700,cs),
(58,700,l),
(58,0,l)
);
},
{
closed = 1;
nodes = (
(203,296,l),
(332,296,ls),
(409,296,o),
(429,257,o),
(429,215,cs),
(429,174,o),
(405,135,o),
(332,135,cs),
(203,135,l)
);
},
{
closed = 1;
nodes = (
(203,565,l),
(302,565,ls),
(379,565,o),
(399,540,o),
(399,498,cs),
(399,457,o),
(375,431,o),
(302,431,cs),
(203,431,l)
);
}
);
width = 604;
},
{
layerId = "B950CEFC-B47C-4E26-91C8-4EFB806DAEDB";
shapes = (
{
closed = 1;
nodes = (
(347,0,ls),
(478,0,o),
(555,75,o),
(555,183,cs),
(555,279,o),
(489,345,o),
(405,371,c),
(476,394,o),
(515,443,o),
(515,520,cs),
(515,634,o),
(438,700,o),
(307,700,cs),
(103,700,l),
(103,0,l)
);
},
{
closed = 1;
nodes = (
(129,357,l),
(327,357,ls),
(419,357,o),
(529,297,o),
(529,183,cs),
(529,75,o),
(452,26,o),
(347,26,cs),
(129,26,l)
);
},
{
closed = 1;
nodes = (
(129,674,l),
(307,674,ls),
(412,674,o),
(489,634,o),
(489,520,cs),
(489,412,o),
(412,383,o),
(307,383,cs),
(129,383,l)
);
}
);
width = 617;
},
{
layerId = "38A022BC-B010-4522-83EC-9E43C5A6F806";
shapes = (
{
closed = 1;
nodes = (
(341,0,ls),
(472,0,o),
(563,71,o),
(563,192,cs),
(563,270,o),
(508,348,o),
(410,368,c),
(497,388,o),
(527,450,o),
(527,515,cs),
(527,636,o),
(437,700,o),
(305,700,cs),
(84,700,l),
(84,0,l)
);
},
{
closed = 1;
nodes = (
(161,331,l),
(329,331,ls),
(415,331,o),
(486,280,o),
(486,197,cs),
(486,117,o),
(432,73,o),
(341,73,cs),
(161,73,l)
);
},
{
closed = 1;
nodes = (
(161,627,l),
(305,627,ls),
(398,627,o),
(450,594,o),
(450,511,cs),
(450,431,o),
(396,404,o),
(305,404,cs),
(161,404,l)
);
}
);
width = 611;
}
);
unicode = 66;
},
{
glyphname = C;
kernLeft = O;
lastChange = "2022-09-12 12:04:11 +0000";
layers = (
{
anchors = (
{
name = bottom;
pos = (315,0);
},
{
name = top;
pos = (353,700);
}
);
layerId = "DFC09A70-1A82-4D07-97CF-EECDCA771356";
shapes = (
{
closed = 1;
nodes = (
(480,169,o),
(435,126,o),
(353,126,cs),
(233,126,o),
(184,237,o),
(184,343,cs),
(184,468,o),
(233,574,o),
(353,574,cs),
(443,574,o),
(489,525,o),
(509,453,c),
(650,497,l),
(612,635,o),
(514,710,o),
(353,710,c),
(149,710,o),
(38,578,o),
(38,343,c),
(38,127,o),
(149,-10,o),
(353,-10,c),
(514,-10,o),
(611,68,o),
(649,199,c),
(503,227,l)
);
}
);
width = 672;
},
{
anchors = (
{
name = bottom;
pos = (324,0);
},
{
name = top;
pos = (362,700);
}
);
layerId = "B950CEFC-B47C-4E26-91C8-4EFB806DAEDB";
shapes = (
{
closed = 1;
nodes = (
(525,66,o),
(442,16,o),
(342,16,cs),
(202,16,o),
(93,117,o),
(93,343,cs),
(93,588,o),
(202,684,o),
(342,684,cs),
(442,684,o),
(525,636,o),
(565,521,c),
(589,533,l),
(548,651,o),
(463,710,o),
(342,710,c),
(168,710,o),
(67,588,o),
(67,343,c),
(67,117,o),
(168,-10,o),
(342,-10,c),
(465,-10,o),
(551,53,o),
(591,170,c),
(565,176,l)
);
}
);
width = 648;
},
{
anchors = (
{
name = bottom;
pos = (320,0);
},
{
name = top;
pos = (358,700);
}
);
layerId = "38A022BC-B010-4522-83EC-9E43C5A6F806";
shapes = (
{
closed = 1;
nodes = (
(506,110,o),
(439,63,o),
(347,63,cs),
(215,63,o),
(132,168,o),
(132,343,cs),
(132,537,o),
(215,637,o),
(347,637,cs),
(442,637,o),
(510,588,o),
(541,492,c),
(615,518,l),
(575,644,o),
(485,710,o),
(347,710,c),
(160,710,o),
(55,584,o),
(55,343,c),
(55,121,o),
(160,-10,o),
(347,-10,c),
(486,-10,o),
(577,59,o),
(616,182,c),
(538,198,l)
);
}
);
width = 658;
}
);
unicode = 67;
},
{
glyphname = D;
kernRight = O;
lastChange = "2022-09-12 12:04:11 +0000";
layers = (
{
anchors = (
{
name = top;
pos = (294,700);
}
);
layerId = "DFC09A70-1A82-4D07-97CF-EECDCA771356";
shapes = (
{
closed = 1;
nodes = (
(312,0,ls),
(485,0,o),
(614,127,o),
(614,350,cs),
(614,563,o),
(466,700,o),
(312,700,cs),
(58,700,l),
(58,0,l)
);
},
{
closed = 1;
nodes = (
(203,565,l),
(292,565,ls),
(389,565,o),
(469,505,o),
(469,350,cs),
(469,186,o),
(385,135,o),
(292,135,cs),
(203,135,l)
);
}
);
width = 652;
},
{
anchors = (
{
name = top;
pos = (276,700);
}
);
layerId = "B950CEFC-B47C-4E26-91C8-4EFB806DAEDB";
shapes = (
{
closed = 1;
nodes = (
(277,0,ls),
(478,0,o),
(575,162,o),
(575,350,cs),
(575,524,o),
(478,700,o),
(277,700,cs),
(103,700,l),
(103,0,l)
);
},
{
closed = 1;
nodes = (
(129,674,l),
(277,674,ls),
(452,674,o),
(549,519,o),
(549,350,cs),
(549,167,o),
(452,26,o),
(277,26,cs),
(129,26,l)
);
}
);
width = 642;
},
{
anchors = (
{
name = top;
pos = (284,700);
}
);
layerId = "38A022BC-B010-4522-83EC-9E43C5A6F806";
shapes = (
{
closed = 1;
nodes = (
(292,0,ls),
(481,0,o),
(592,147,o),
(592,350,cs),
(592,541,o),
(473,700,o),
(292,700,cs),
(84,700,l),
(84,0,l)
);
},
{
closed = 1;
nodes = (
(161,627,l),
(283,627,ls),
(425,627,o),
(515,513,o),
(515,350,cs),
(515,175,o),
(423,73,o),
(283,73,cs),
(161,73,l)
);
}
);
width = 646;
}
);
unicode = 68;
},
{
glyphname = Eth;
kernRight = O;
lastChange = "2022-09-12 12:02:41 +0000";
layers = (
{
layerId = "DFC09A70-1A82-4D07-97CF-EECDCA771356";
shapes = (
{
closed = 1;
nodes = (
(15,294,l),
(368,294,l),
(368,410,l),
(15,410,l)
);
},
{
pos = (-5,0);
ref = D;
}
);
width = 661;
},
{
layerId = "B950CEFC-B47C-4E26-91C8-4EFB806DAEDB";
shapes = (
{
closed = 1;
nodes = (
(19,338,l),
(345,338,l),
(345,364,l),
(19,364,l)
);
},
{
pos = (-1,0);
ref = D;
}
);
width = 645;
},
{
layerId = "38A022BC-B010-4522-83EC-9E43C5A6F806";
shapes = (
{
closed = 1;
nodes = (
(17,319,l),
(355,319,l),
(355,384,l),
(17,384,l)
);
},
{
alignment = -1;
pos = (-3,0);
ref = D;
}
);
width = 652;
}
);
unicode = 208;
},
{
glyphname = E;
lastChange = "2022-09-12 12:04:11 +0000";
layers = (
{
anchors = (
{
name = dotbelow;
pos = (305,0);
},
{
name = top;
pos = (288,700);
}
);
layerId = "DFC09A70-1A82-4D07-97CF-EECDCA771356";
shapes = (
{
closed = 1;
nodes = (
(58,0,l),
(203,0,l),
(203,700,l),
(58,700,l)
);
},
{
closed = 1;
nodes = (
(78,296,l),
(422,296,l),
(422,431,l),
(78,431,l)
);
},
{
closed = 1;
nodes = (
(78,565,l),
(532,565,l),
(532,700,l),
(78,700,l)
);
},
{
closed = 1;
nodes = (
(78,0,l),
(532,0,l),
(532,135,l),
(78,135,l)
);
}
);
width = 573;
},
{
anchors = (
{
name = dotbelow;
pos = (305,0);
},
{
name = top;
pos = (292,730);
}
);
layerId = "B950CEFC-B47C-4E26-91C8-4EFB806DAEDB";
shapes = (
{
closed = 1;
nodes = (
(103,0,l),
(129,0,l),
(129,700,l),
(103,700,l)
);
},
{
closed = 1;
nodes = (
(123,347,l),
(407,347,l),
(407,373,l),
(123,373,l)
);
},
{
closed = 1;
nodes = (
(123,674,l),
(487,674,l),
(487,700,l),
(123,700,l)
);
},
{
closed = 1;
nodes = (
(123,0,l),
(487,0,l),
(487,26,l),
(123,26,l)
);
}
);
width = 555;
},
{
anchors = (
{
name = dotbelow;
pos = (305,0);
},
{
name = top;
pos = (290,717);
}
);
layerId = "38A022BC-B010-4522-83EC-9E43C5A6F806";
shapes = (
{
closed = 1;
nodes = (
(84,0,l),
(161,0,l),
(161,700,l),
(84,700,l)
);
},
{
closed = 1;
nodes = (
(104,325,l),
(413,325,l),
(413,398,l),
(104,398,l)
);
},
{
closed = 1;
nodes = (
(104,627,l),
(506,627,l),
(506,700,l),
(104,700,l)
);
},
{
closed = 1;
nodes = (
(104,0,l),
(506,0,l),
(506,73,l),
(104,73,l)
);
}
);
width = 563;
}
);
unicode = 69;
},
{
glyphname = Schwa;
kernRight = O;
lastChange = "2022-09-12 12:02:41 +0000";
layers = (
{
layerId = "DFC09A70-1A82-4D07-97CF-EECDCA771356";
shapes = (
{
closed = 1;
nodes = (
(541,-10,o),
(632,127,o),
(632,343,c),
(632,578,o),
(541,710,o),
(327,710,c),
(179,710,o),
(85,640,o),
(45,512,c),
(187,470,l),
(208,532,o),
(252,574,o),
(327,574,cs),
(458,574,o),
(486,468,o),
(486,343,cs),
(486,237,o),
(458,126,o),
(327,126,cs),
(200,126,o),
(150,260,o),
(172,405,c),
(25,405,l),
(1,168,o),
(97,-10,o),
(327,-10,c)
);
},
{
closed = 1;
nodes = (
(548,275,l),
(548,405,l),
(56,405,l),
(56,275,l)
);
}
);
width = 670;
},
{
layerId = "B950CEFC-B47C-4E26-91C8-4EFB806DAEDB";
shapes = (
{
closed = 1;
nodes = (
(506,-10,o),
(607,117,o),
(607,343,c),
(607,588,o),
(506,710,o),
(332,710,c),
(217,710,o),
(134,657,o),
(91,550,c),
(116,539,l),
(158,641,o),
(238,684,o),
(332,684,cs),
(473,684,o),
(581,588,o),
(581,343,cs),
(581,117,o),
(473,16,o),
(332,16,cs),
(192,16,o),
(83,117,o),
(83,343,c),
(57,343,l),
(57,117,o),
(158,-10,o),
(332,-10,c)
);
},
{
closed = 1;
nodes = (
(586,317,l),
(586,343,l),
(71,343,l),
(71,317,l)
);
}
);
width = 674;
},
{
layerId = "38A022BC-B010-4522-83EC-9E43C5A6F806";
shapes = (
{
closed = 1;
nodes = (
(521,-10,o),
(618,121,o),
(618,343,c),
(618,584,o),
(521,710,o),
(330,710,c),
(201,710,o),
(113,650,o),
(71,534,c),
(146,509,l),
(179,594,o),
(244,637,o),
(330,637,cs),
(467,637,o),
(540,537,o),
(540,343,cs),
(540,168,o),
(467,63,o),
(330,63,cs),
(195,63,o),
(112,178,o),
(121,370,c),
(43,370,l),
(33,139,o),
(132,-10,o),
(330,-10,c)
);
},
{
closed = 1;
nodes = (
(570,299,l),
(570,370,l),
(65,370,l),
(65,299,l)
);
}
);
width = 672;
}
);
unicode = 399;
},
{
glyphname = F;
kernRight = V;
lastChange = "2022-09-12 12:04:11 +0000";
layers = (
{
layerId = "DFC09A70-1A82-4D07-97CF-EECDCA771356";
shapes = (
{
closed = 1;
nodes = (
(58,0,l),
(203,0,l),
(203,700,l),
(58,700,l)
);
},
{
closed = 1;
nodes = (
(78,276,l),
(442,276,l),
(442,411,l),
(78,411,l)
);
},
{
closed = 1;
nodes = (
(78,565,l),
(522,565,l),
(522,700,l),
(78,700,l)
);
}
);
width = 556;
},
{
layerId = "B950CEFC-B47C-4E26-91C8-4EFB806DAEDB";
shapes = (
{
closed = 1;
nodes = (
(103,0,l),
(129,0,l),
(129,700,l),
(103,700,l)
);
},
{
closed = 1;
nodes = (
(123,327,l),
(427,327,l),
(427,353,l),
(123,353,l)
);
},
{
closed = 1;
nodes = (
(123,674,l),
(477,674,l),
(477,700,l),
(123,700,l)
);
}
);
width = 528;
},
{
layerId = "38A022BC-B010-4522-83EC-9E43C5A6F806";
shapes = (
{
closed = 1;
nodes = (
(84,0,l),
(161,0,l),
(161,700,l),
(84,700,l)
);
},
{
closed = 1;
nodes = (
(104,305,l),
(433,305,l),
(433,378,l),
(104,378,l)
);
},
{
closed = 1;
nodes = (
(104,627,l),
(496,627,l),
(496,700,l),
(104,700,l)
);
}
);
width = 540;
}
);
unicode = 70;
},
{
glyphname = G;
kernLeft = O;
lastChange = "2022-09-12 12:04:11 +0000";
layers = (
{
anchors = (
{
name = bottom;
pos = (355,0);
},
{
name = top;
pos = (363,700);
}
);
layerId = "DFC09A70-1A82-4D07-97CF-EECDCA771356";
shapes = (
{
closed = 1;
nodes = (
(320,258,l),
(643,258,l),
(643,383,l),
(320,383,l)
);
},
{
closed = 1;
nodes = (
(531,383,l),
(537,249,o),
(506,125,o),
(363,125,cs),
(243,125,o),
(194,237,o),
(194,343,cs),
(194,468,o),
(243,574,o),
(363,574,cs),
(431,574,o),
(474,545,o),
(500,500,c),
(659,500,l),
(620,636,o),
(523,710,o),
(363,710,c),
(159,710,o),
(48,578,o),
(48,343,c),
(48,126,o),
(159,-11,o),
(363,-11,c),
(602,-11,o),
(688,158,o),
(677,383,c)
);
}
);
width = 710;
},
{
anchors = (
{
name = bottom;
pos = (342,0);
},
{
name = top;
pos = (332,700);
}
);
layerId = "B950CEFC-B47C-4E26-91C8-4EFB806DAEDB";
shapes = (
{
closed = 1;
nodes = (
(290,308,l),
(592,308,l),
(592,334,l),
(290,334,l)
);
},
{
closed = 1;
nodes = (
(581,334,l),
(578,114,o),
(471,16,o),
(332,16,cs),
(192,16,o),
(83,117,o),
(83,343,cs),
(83,588,o),
(192,684,o),
(332,684,cs),
(438,684,o),
(525,630,o),
(562,500,c),
(589,500,l),
(553,640,o),
(464,710,o),
(332,710,c),
(158,710,o),
(57,588,o),
(57,343,c),
(57,117,o),
(158,-10,o),
(332,-10,c),
(504,-10,o),
(604,114,o),
(607,334,c)
);
}
);
width = 657;
},
{
anchors = (
{
name = bottom;
pos = (344,0);
},
{
name = top;
pos = (342,700);
}
);
layerId = "38A022BC-B010-4522-83EC-9E43C5A6F806";
shapes = (
{
closed = 1;
nodes = (
(291,281,l),
(600,281,l),
(600,354,l),
(291,354,l)
);
},
{
closed = 1;
nodes = (
(558,354,l),
(557,202,o),
(506,62,o),
(342,62,cs),
(211,62,o),
(126,168,o),
(126,343,cs),
(126,538,o),
(211,638,o),
(342,638,cs),
(436,638,o),
(502,591,o),
(535,500,c),
(617,500,l),
(580,639,o),
(486,711,o),
(342,711,c),
(155,711,o),
(49,585,o),
(49,343,c),
(49,121,o),
(155,-11,o),
(342,-11,c),
(556,-11,o),
(638,150,o),
(635,354,c)
);
}
);
width = 677;
}
);
unicode = 71;
},
{
glyphname = H;
lastChange = "2022-09-12 12:04:11 +0000";
layers = (
{
layerId = "DFC09A70-1A82-4D07-97CF-EECDCA771356";
shapes = (
{
closed = 1;
nodes = (
(78,0,l),
(223,0,l),
(223,700,l),
(78,700,l)
);
},
{
closed = 1;
nodes = (
(467,0,l),
(612,0,l),
(612,700,l),
(467,700,l)
);
},
{
closed = 1;
nodes = (
(217,263,l),
(481,263,l),
(481,398,l),
(217,398,l)
);
}
);
width = 690;
},
{
layerId = "B950CEFC-B47C-4E26-91C8-4EFB806DAEDB";
shapes = (
{
closed = 1;
nodes = (
(103,0,l),
(129,0,l),
(129,700,l),
(103,700,l)
);
},
{
closed = 1;
nodes = (
(523,0,l),
(549,0,l),
(549,700,l),
(523,700,l)
);
},
{
closed = 1;
nodes = (
(123,337,l),
(537,337,l),
(537,363,l),
(123,363,l)
);
}
);
width = 652;
},
{
layerId = "38A022BC-B010-4522-83EC-9E43C5A6F806";
shapes = (
{
closed = 1;
nodes = (
(92,0,l),
(169,0,l),
(169,700,l),
(92,700,l)
);
},
{
closed = 1;
nodes = (
(499,0,l),
(576,0,l),
(576,700,l),
(499,700,l)
);
},
{
closed = 1;
nodes = (
(163,304,l),
(513,304,l),
(513,377,l),
(163,377,l)
);
}
);
width = 668;
}
);
unicode = 72;
},
{
glyphname = Hbar;
lastChange = "2022-09-12 12:02:41 +0000";
layers = (
{
layerId = "DFC09A70-1A82-4D07-97CF-EECDCA771356";
shapes = (
{
closed = 1;
nodes = (
(14,500,l),
(668,500,l),
(668,615,l),
(14,615,l)
);
},
{
pos = (-4,0);
ref = H;
}
);
width = 680;
},
{
layerId = "B950CEFC-B47C-4E26-91C8-4EFB806DAEDB";
shapes = (
{
closed = 1;
nodes = (
(55,500,l),
(599,500,l),
(599,526,l),
(55,526,l)
);
},
{
pos = (1,0);
ref = H;
}
);
width = 656;
},
{
layerId = "38A022BC-B010-4522-83EC-9E43C5A6F806";
shapes = (
{
closed = 1;
nodes = (
(37,500,l),
(629,500,l),
(629,564,l),
(37,564,l)
);
},
{
alignment = -1;
pos = (-1,0);
ref = H;
}
);
width = 666;
}
);
unicode = 294;
},
{
glyphname = I;
lastChange = "2022-09-12 12:04:11 +0000";
layers = (
{
anchors = (
{
name = dotbelow;
pos = (131,0);
},
{
name = top;
pos = (128,700);
}
);
layerId = "DFC09A70-1A82-4D07-97CF-EECDCA771356";
shapes = (
{
closed = 1;
nodes = (
(58,0,l),
(203,0,l),
(203,700,l),
(58,700,l)
);
}
);
width = 261;
},
{
anchors = (
{
name = dotbelow;
pos = (116,0);
},
{
name = top;
pos = (116,700);
}
);
layerId = "B950CEFC-B47C-4E26-91C8-4EFB806DAEDB";
shapes = (
{
closed = 1;
nodes = (
(103,0,l),
(129,0,l),
(129,700,l),
(103,700,l)
);
}
);
width = 232;
},
{
anchors = (
{
name = dotbelow;
pos = (122,0);
},
{
name = top;
pos = (121,700);
}
);
layerId = "38A022BC-B010-4522-83EC-9E43C5A6F806";
shapes = (
{
closed = 1;
nodes = (
(84,0,l),
(161,0,l),
(161,700,l),
(84,700,l)
);
}
);
width = 244;
}
);
unicode = 73;
},
{
glyphname = J;
lastChange = "2022-09-12 12:04:11 +0000";
layers = (
{
layerId = "DFC09A70-1A82-4D07-97CF-EECDCA771356";
shapes = (
{
closed = 1;
nodes = (
(45,79,o),
(123,-10,o),
(261,-10,cs),
(431,-10,o),
(504,113,o),
(504,258,cs),
(504,700,l),
(359,700,l),
(359,261,ls),
(359,150,o),
(314,125,o),
(263,125,cs),
(212,125,o),
(171,154,o),
(158,224,c),
(19,188,l)
);
}
);
width = 559;
},
{
layerId = "B950CEFC-B47C-4E26-91C8-4EFB806DAEDB";
shapes = (
{
closed = 1;
nodes = (
(25,94,o),
(95,-10,o),
(213,-10,cs),
(363,-10,o),
(406,113,o),
(406,258,cs),
(406,700,l),
(380,700,l),
(380,253,ls),
(380,100,o),
(328,16,o),
(213,16,cs),
(114,16,o),
(53,103,o),
(47,190,c),
(21,190,l)
);
}
);
width = 501;
},
{
layerId = "38A022BC-B010-4522-83EC-9E43C5A6F806";
shapes = (
{
closed = 1;
nodes = (
(34,88,o),
(107,-10,o),
(234,-10,cs),
(392,-10,o),
(448,113,o),
(448,258,cs),
(448,700,l),
(371,700,l),
(371,256,ls),
(371,121,o),
(322,63,o),
(234,63,cs),
(156,63,o),
(104,125,o),
(95,205,c),
(20,189,l)
);
}
);
width = 526;
}
);
unicode = 74;
},
{
glyphname = K;
lastChange = "2022-09-12 12:04:11 +0000";
layers = (
{
layerId = "DFC09A70-1A82-4D07-97CF-EECDCA771356";
shapes = (
{
closed = 1;
nodes = (
(203,0,l),
(203,214,l),
(289,317,l),
(475,0,l),
(640,0,l),
(387,429,l),
(623,700,l),
(434,700,l),
(203,422,l),
(203,700,l),
(58,700,l),
(58,0,l)
);
}
);
width = 649;
},
{
layerId = "B950CEFC-B47C-4E26-91C8-4EFB806DAEDB";
shapes = (
{
closed = 1;
nodes = (
(129,0,l),
(129,188,l),
(308,397,l),
(538,0,l),
(568,0,l),
(326,418,l),
(563,700,l),
(529,700,l),
(129,227,l),
(129,700,l),
(103,700,l),
(103,0,l)
);
}
);
width = 587;
},
{
layerId = "38A022BC-B010-4522-83EC-9E43C5A6F806";
shapes = (
{
closed = 1;
nodes = (
(161,0,l),
(161,199,l),
(300,363,l),
(511,0,l),
(599,0,l),
(352,423,l),
(589,700,l),
(488,700,l),
(161,311,l),
(161,700,l),
(84,700,l),
(84,0,l)
);
}
);
width = 614;
}
);
unicode = 75;
},
{
glyphname = L;
lastChange = "2022-09-12 12:04:11 +0000";
layers = (
{
layerId = "DFC09A70-1A82-4D07-97CF-EECDCA771356";
shapes = (
{
closed = 1;
nodes = (
(58,0,l),
(203,0,l),
(203,700,l),
(58,700,l)
);
},
{
closed = 1;
nodes = (
(78,0,l),
(512,0,l),
(512,135,l),
(78,135,l)
);
}
);
width = 538;
},
{
layerId = "B950CEFC-B47C-4E26-91C8-4EFB806DAEDB";
shapes = (
{
closed = 1;
nodes = (
(103,0,l),
(129,0,l),
(129,700,l),
(103,700,l)
);
},
{
closed = 1;
nodes = (
(123,0,l),
(467,0,l),
(467,26,l),
(123,26,l)
);
}
);
width = 486;
},
{
layerId = "38A022BC-B010-4522-83EC-9E43C5A6F806";
shapes = (
{
closed = 1;
nodes = (
(84,0,l),
(161,0,l),
(161,700,l),
(84,700,l)
);
},
{
closed = 1;
nodes = (
(104,0,l),
(486,0,l),
(486,73,l),
(104,73,l)
);
}
);
width = 508;
}
);
unicode = 76;
},
{
glyphname = Lslash;
lastChange = "2022-09-12 12:02:41 +0000";
layers = (
{
layerId = "DFC09A70-1A82-4D07-97CF-EECDCA771356";
shapes = (
{
closed = 1;
nodes = (
(0,281,l),
(340,397,l),
(340,516,l),
(0,400,l)
);
},
{
ref = L;
}
);
width = 553;
},
{
layerId = "B950CEFC-B47C-4E26-91C8-4EFB806DAEDB";
shapes = (
{
closed = 1;
nodes = (
(0,373,l),
(251,473,l),
(251,500,l),
(0,400,l)
);
},
{
ref = L;
}
);
width = 491;
},
{
layerId = "38A022BC-B010-4522-83EC-9E43C5A6F806";
shapes = (
{
closed = 1;
nodes = (
(0,334,l),
(289,440,l),
(289,507,l),
(0,400,l)
);
},
{
alignment = -1;
ref = L;
}
);
width = 518;
}
);
unicode = 321;
},
{
glyphname = M;
lastChange = "2022-09-12 12:04:11 +0000";
layers = (
{
layerId = "DFC09A70-1A82-4D07-97CF-EECDCA771356";
shapes = (
{
closed = 1;
nodes = (
(203,0,l),
(203,415,l),
(340,145,l),
(434,145,l),
(570,415,l),
(570,0,l),
(715,0,l),
(715,712,l),
(587,712,l),
(387,347,l),
(186,712,l),
(58,712,l),
(58,0,l)
);
}
);
width = 773;
},
{
layerId = "B950CEFC-B47C-4E26-91C8-4EFB806DAEDB";
shapes = (
{
closed = 1;
nodes = (
(129,0,l),
(129,658,l),
(363,171,l),
(387,171,l),
(617,658,l),
(617,0,l),
(643,0,l),
(643,712,l),
(614,712,l),
(375,203,l),
(132,712,l),
(103,712,l),
(103,0,l)
);
}
);
width = 746;
},
{
layerId = "38A022BC-B010-4522-83EC-9E43C5A6F806";
shapes = (
{
closed = 1;
nodes = (
(161,0,l),
(161,554,l),
(353,160,l),
(407,160,l),
(597,554,l),
(597,0,l),
(674,0,l),
(674,712,l),
(602,712,l),
(380,265,l),
(155,712,l),
(84,712,l),
(84,0,l)
);
}
);
width = 758;
}
);
unicode = 77;
},
{
glyphname = N;
lastChange = "2022-09-12 12:04:11 +0000";
layers = (
{
anchors = (
{
name = top;
pos = (327,700);
}
);
layerId = "DFC09A70-1A82-4D07-97CF-EECDCA771356";
shapes = (
{
closed = 1;
nodes = (
(203,0,l),
(203,414,l),
(478,0,l),
(598,0,l),
(598,700,l),
(453,700,l),
(453,285,l),
(178,700,l),
(58,700,l),
(58,0,l)
);
}
);
width = 656;
},
{
anchors = (
{
name = top;
pos = (339,700);
}
);
layerId = "B950CEFC-B47C-4E26-91C8-4EFB806DAEDB";
shapes = (
{
closed = 1;
nodes = (
(129,-1,l),
(129,671,l),
(498,-1,l),
(537,-1,l),
(537,700,l),
(511,700,l),
(511,28,l),
(142,700,l),
(103,700,l),
(103,-1,l)
);
}
);
width = 640;
},
{
anchors = (
{
name = top;
pos = (334,700);
}
);
layerId = "38A022BC-B010-4522-83EC-9E43C5A6F806";
shapes = (
{
closed = 1;
nodes = (
(161,-1,l),
(161,561,l),
(489,-1,l),
(563,-1,l),
(563,700,l),
(486,700,l),
(486,138,l),
(157,700,l),
(84,700,l),
(84,-1,l)
);
}
);
width = 647;
}
);
unicode = 78;
},
{
glyphname = Eng;
lastChange = "2022-09-12 12:02:41 +0000";
layers = (
{
layerId = "DFC09A70-1A82-4D07-97CF-EECDCA771356";
shapes = (
{
closed = 1;
nodes = (
(470,35,l),
(470,-6,l),
(470,-46,o),
(469,-73,o),
(409,-73,c),
(342,-73,l),
(342,-192,l),
(468,-192,ls),
(559,-192,o),
(598,-121,o),
(598,3,cs),
(598,8,l)
);
},
{
pos = (1,0);
ref = N;
}
);
width = 656;
},
{
layerId = "B950CEFC-B47C-4E26-91C8-4EFB806DAEDB";
shapes = (
{
closed = 1;
nodes = (
(511,73,l),
(511,9,l),
(511,-48,o),
(513,-103,o),
(441,-103,cs),
(376,-103,l),
(376,-127,l),
(442,-127,ls),
(531,-127,o),
(537,-66,o),
(537,8,cs),
(537,73,l)
);
},
{
ref = N;
}
);
width = 640;
},
{
layerId = "38A022BC-B010-4522-83EC-9E43C5A6F806";
shapes = (
{
closed = 1;
nodes = (
(493,57,l),
(493,3,l),
(493,-47,o),
(494,-90,o),
(427,-90,c),
(361,-90,l),
(361,-155,l),
(453,-155,ls),
(543,-155,o),
(563,-90,o),
(563,6,cs),
(563,45,l)
);
},
{
alignment = -1;
ref = N;
}
);
width = 647;
}
);
unicode = 330;
},
{
glyphname = O;
kernLeft = O;
kernRight = O;
lastChange = "2022-09-12 12:04:11 +0000";
layers = (
{
anchors = (
{
name = dotbelow;
pos = (353,0);
},
{
name = horn;
pos = (423,700);
},
{
name = top;
pos = (353,700);
}
);
layerId = "DFC09A70-1A82-4D07-97CF-EECDCA771356";
shapes = (
{
closed = 1;
nodes = (
(38,127,o),
(149,-10,o),
(353,-10,c),
(567,-10,o),
(668,127,o),
(668,343,c),
(668,578,o),
(567,710,o),
(353,710,c),
(149,710,o),
(38,578,o),
(38,343,c)
);
},
{
closed = 1;
nodes = (
(233,126,o),
(184,237,o),
(184,343,cs),
(184,468,o),
(233,574,o),
(353,574,cs),
(484,574,o),
(522,468,o),
(522,343,cs),
(522,237,o),
(484,126,o),
(353,126,cs)
);
}
);
width = 706;
},
{
anchors = (
{
name = dotbelow;
pos = (332,0);
},
{
name = horn;
pos = (414,700);
},
{
name = top;
pos = (332,700);
}
);
layerId = "B950CEFC-B47C-4E26-91C8-4EFB806DAEDB";
shapes = (
{
closed = 1;
nodes = (
(57,117,o),
(158,-10,o),
(332,-10,c),
(506,-10,o),
(607,117,o),
(607,343,c),
(607,588,o),
(506,710,o),
(332,710,c),
(158,710,o),
(57,588,o),
(57,343,c)
);
},
{
closed = 1;
nodes = (
(192,16,o),
(83,117,o),
(83,343,cs),
(83,588,o),
(192,684,o),
(332,684,cs),
(473,684,o),
(581,588,o),
(581,343,cs),
(581,117,o),
(473,16,o),
(332,16,cs)
);
}
);
width = 664;
},
{
anchors = (
{
name = dotbelow;
pos = (341,0);
},
{
name = horn;
pos = (418,700);
},
{
name = top;
pos = (341,700);
}
);
layerId = "38A022BC-B010-4522-83EC-9E43C5A6F806";
shapes = (
{
closed = 1;
nodes = (
(49,121,o),
(154,-10,o),
(341,-10,c),
(532,-10,o),
(633,121,o),
(633,343,c),
(633,584,o),
(532,710,o),
(341,710,c),
(154,710,o),
(49,584,o),
(49,343,c)
);
},
{
closed = 1;
nodes = (
(210,63,o),
(126,168,o),
(126,343,cs),
(126,537,o),
(210,637,o),
(341,637,cs),
(478,637,o),
(556,537,o),
(556,343,cs),
(556,168,o),
(478,63,o),
(341,63,cs)
);
}
);
width = 682;
}
);
unicode = 79;
},
{
glyphname = Oslash;
kernLeft = O;
kernRight = O;
lastChange = "2022-09-12 12:02:41 +0000";
layers = (
{
layerId = "DFC09A70-1A82-4D07-97CF-EECDCA771356";
shapes = (
{
closed = 1;
nodes = (
(39,15,l),
(140,-60,l),
(668,681,l),
(566,755,l)
);
},
{
pos = (-10,0);
ref = O;
}
);
width = 708;
},
{
layerId = "B950CEFC-B47C-4E26-91C8-4EFB806DAEDB";
shapes = (
{
closed = 1;
nodes = (
(96,15,l),
(117,0,l),
(589,688,l),
(567,702,l)
);
},
{
pos = (-3,0);
ref = O;
}
);
width = 683;
},
{
layerId = "38A022BC-B010-4522-83EC-9E43C5A6F806";
shapes = (
{
closed = 1;
nodes = (
(72,15,l),
(127,-26,l),
(623,685,l),
(567,725,l)
);
},
{
alignment = -1;
pos = (-6,0);
ref = O;
}
);
width = 694;
}
);
unicode = 216;
},
{
glyphname = OE;
kernLeft = O;
lastChange = "2022-09-12 12:02:41 +0000";
layers = (
{
layerId = "DFC09A70-1A82-4D07-97CF-EECDCA771356";
shapes = (
{
closed = 1;
nodes = (
(23,127,o),
(114,-10,o),
(318,-10,c),
(492,-10,o),
(573,118,o),
(573,343,c),
(573,567,o),
(492,709,o),
(318,710,c),
(114,710,o),
(23,578,o),
(23,343,c)
);
},
{
closed = 1;
nodes = (
(218,126,o),
(169,237,o),
(169,343,cs),
(169,468,o),
(218,574,o),
(338,574,cs),
(469,574,o),
(506,448,o),
(506,343,cs),
(506,257,o),
(469,126,o),
(338,126,cs)
);
},
{
alignment = -1;
pos = (449,0);
ref = E;
}
);
width = 1037;
},
{
layerId = "B950CEFC-B47C-4E26-91C8-4EFB806DAEDB";
shapes = (
{
closed = 1;
nodes = (
(67,117,o),
(168,-10,o),
(342,-10,c),
(516,-10,o),
(617,117,o),
(617,343,c),
(617,588,o),
(516,710,o),
(342,710,c),
(168,710,o),
(67,588,o),
(67,343,c)
);
},
{
closed = 1;
nodes = (
(202,16,o),
(93,117,o),
(93,343,cs),
(93,588,o),
(202,684,o),
(342,684,cs),
(483,684,o),
(591,588,o),
(591,343,cs),
(591,117,o),
(483,16,o),
(342,16,cs)
);
},
{
alignment = -1;
pos = (483,0);
ref = E;
}
);
width = 1043;
},
{
layerId = "38A022BC-B010-4522-83EC-9E43C5A6F806";
shapes = (
{
closed = 1;
nodes = (
(48,121,o),
(145,-10,o),
(332,-10,c),
(506,-10,o),
(598,117,o),
(598,343,c),
(598,579,o),
(506,710,o),
(332,710,c),
(145,710,o),
(48,584,o),
(48,343,c)
);
},
{
closed = 1;
nodes = (
(209,63,o),
(126,168,o),
(126,343,cs),
(126,537,o),
(209,637,o),
(340,637,cs),
(477,637,o),
(555,528,o),
(555,343,cs),
(555,177,o),
(477,63,o),
(340,63,cs)
);
},
{
alignment = -1;
pos = (468,0);
ref = E;
}
);
width = 1040;
}
);
unicode = 338;
},
{
glyphname = P;
lastChange = "2022-09-12 12:04:11 +0000";
layers = (
{
layerId = "DFC09A70-1A82-4D07-97CF-EECDCA771356";
shapes = (
{
closed = 1;
nodes = (
(58,0,l),
(203,0,l),
(203,700,l),
(58,700,l)
);
},
{
closed = 1;
nodes = (
(78,246,l),
(332,246,l),
(332,381,l),
(78,381,l)
);
},
{
closed = 1;
nodes = (
(78,565,l),
(332,565,l),
(332,700,l),
(78,700,l)
);
},
{
closed = 1;
nodes = (
(409,565,o),
(429,528,o),
(429,473,cs),
(429,409,o),
(405,382,o),
(332,381,c),
(332,246,l),
(465,246,o),
(574,320,o),
(574,473,c),
(574,616,o),
(465,700,o),
(332,700,c),
(332,565,l)
);
}
);
width = 602;
},
{
layerId = "B950CEFC-B47C-4E26-91C8-4EFB806DAEDB";
shapes = (
{
closed = 1;
nodes = (
(103,0,l),
(129,0,l),
(129,700,l),
(103,700,l)
);
},
{
closed = 1;
nodes = (
(123,307,l),
(327,307,l),
(327,333,l),
(123,333,l)
);
},
{
closed = 1;
nodes = (
(123,674,l),
(327,674,l),
(327,700,l),
(123,700,l)
);
},
{
closed = 1;
nodes = (
(432,672,o),
(509,624,o),
(509,500,cs),
(509,362,o),
(432,335,o),
(327,333,c),
(327,307,l),
(458,309,o),
(535,362,o),
(535,500,c),
(535,624,o),
(458,699,o),
(327,700,c),
(327,674,l)
);
}
);
width = 577;
},
{
layerId = "38A022BC-B010-4522-83EC-9E43C5A6F806";
shapes = (
{
closed = 1;
nodes = (
(84,0,l),
(161,0,l),
(161,700,l),
(84,700,l)
);
},
{
closed = 1;
nodes = (
(104,281,l),
(329,281,l),
(329,354,l),
(104,354,l)
);
},
{
closed = 1;
nodes = (
(104,627,l),
(329,627,l),
(329,700,l),
(104,700,l)
);
},
{
closed = 1;
nodes = (
(422,626,o),
(475,583,o),
(475,488,cs),
(475,382,o),
(420,355,o),
(329,354,c),
(329,281,l),
(461,282,o),
(552,344,o),
(552,488,c),
(552,621,o),
(461,699,o),
(329,700,c),
(329,627,l)
);
}
);
width = 588;
}
);
unicode = 80;
},
{
glyphname = Thorn;
lastChange = "2022-09-12 12:02:41 +0000";
layers = (
{
layerId = "DFC09A70-1A82-4D07-97CF-EECDCA771356";
shapes = (
{
closed = 1;
nodes = (
(58,0,l),
(203,0,l),
(203,700,l),
(58,700,l)
);
},
{
closed = 1;
nodes = (
(78,136,l),
(332,136,l),
(332,271,l),
(78,271,l)
);
},
{
closed = 1;
nodes = (
(78,455,l),
(332,455,l),
(332,590,l),
(78,590,l)
);
},
{
closed = 1;
nodes = (
(409,455,o),
(429,418,o),
(429,363,cs),
(429,299,o),
(405,272,o),
(332,271,c),
(332,136,l),
(465,136,o),
(574,210,o),
(574,363,c),
(574,506,o),
(465,590,o),
(332,590,c),
(332,455,l)
);
}
);
width = 602;
},
{
layerId = "B950CEFC-B47C-4E26-91C8-4EFB806DAEDB";
shapes = (
{
closed = 1;
nodes = (
(103,0,l),
(129,0,l),
(129,700,l),
(103,700,l)
);
},
{
closed = 1;
nodes = (
(123,167,l),
(327,167,l),
(327,193,l),
(123,193,l)
);
},
{
closed = 1;
nodes = (
(123,534,l),
(327,534,l),
(327,560,l),
(123,560,l)
);
},
{
closed = 1;
nodes = (
(432,532,o),
(509,484,o),
(509,360,cs),
(509,222,o),
(432,195,o),
(327,193,c),
(327,167,l),
(458,169,o),
(535,222,o),
(535,360,c),
(535,484,o),
(458,559,o),
(327,560,c),
(327,534,l)
);
}
);
width = 577;
},
{
layerId = "38A022BC-B010-4522-83EC-9E43C5A6F806";
shapes = (
{
closed = 1;
nodes = (
(84,0,l),
(161,0,l),
(161,700,l),
(84,700,l)
);
},
{
closed = 1;
nodes = (
(104,154,l),
(329,154,l),
(329,226,l),
(104,226,l)
);
},
{
closed = 1;
nodes = (
(104,500,l),
(329,500,l),
(329,573,l),
(104,573,l)
);
},
{
closed = 1;
nodes = (
(422,499,o),
(475,456,o),
(475,361,cs),
(475,255,o),
(420,228,o),
(329,226,c),
(329,154,l),
(461,155,o),
(552,217,o),
(552,361,c),
(552,493,o),
(461,572,o),
(329,573,c),
(329,500,l)
);
}
);
width = 588;
}
);
unicode = 222;
},
{
glyphname = Q;
kernLeft = O;
kernRight = O;
lastChange = "2022-09-12 12:04:11 +0000";
layers = (
{
layerId = "DFC09A70-1A82-4D07-97CF-EECDCA771356";
shapes = (
{
closed = 1;
nodes = (
(566,-10,o),
(667,127,o),
(668,343,c),
(668,578,o),
(567,710,o),
(353,710,c),
(149,710,o),
(38,578,o),
(38,343,c),
(38,127,o),
(149,-10,o),
(353,-10,c)
);
},
{
closed = 1;
nodes = (
(233,126,o),
(184,237,o),
(184,343,cs),
(184,468,o),
(233,574,o),
(353,574,cs),
(484,574,o),
(522,468,o),
(522,343,cs),
(522,237,o),
(484,126,o),
(353,126,cs)
);
},
{
closed = 1;
nodes = (
(300,-53,ls),
(335,-137,o),
(393,-178,o),
(466,-178,cs),
(585,-178,l),
(585,-53,l),
(523,-53,ls),
(459,-53,o),
(441,-32,o),
(434,-11,cs),
(397,101,l),
(254,57,l)
);
}
);
width = 706;
},
{
layerId = "B950CEFC-B47C-4E26-91C8-4EFB806DAEDB";
shapes = (
{
closed = 1;
nodes = (
(516,-10,o),
(617,117,o),
(617,343,c),
(617,588,o),
(516,710,o),
(342,710,c),
(168,710,o),
(67,588,o),
(67,343,c),
(67,117,o),
(168,-10,o),
(342,-10,c)
);
},
{
closed = 1;
nodes = (
(202,16,o),
(93,117,o),
(93,343,cs),
(93,588,o),
(202,684,o),
(342,684,cs),
(483,684,o),
(591,588,o),
(591,343,cs),
(591,117,o),
(483,16,o),
(342,16,cs)
);
},
{
closed = 1;
nodes = (
(370,-75,ls),
(383,-126,o),
(428,-163,o),
(488,-163,cs),
(559,-163,l),
(559,-139,l),
(500,-139,ls),
(433,-139,o),
(401,-107,o),
(388,-52,cs),
(374,9,l),
(350,5,l)
);
}
);
width = 684;
},
{
layerId = "38A022BC-B010-4522-83EC-9E43C5A6F806";
shapes = (
{
closed = 1;
nodes = (
(537,-10,o),
(638,121,o),
(639,343,c),
(639,584,o),
(538,710,o),
(347,710,c),
(160,710,o),
(55,584,o),
(55,343,c),
(55,121,o),
(160,-10,o),
(347,-10,c)
);
},
{
closed = 1;
nodes = (
(215,63,o),
(132,168,o),
(132,343,cs),
(132,537,o),
(215,637,o),
(347,637,cs),
(483,637,o),
(561,537,o),
(561,343,cs),
(561,168,o),
(483,63,o),
(347,63,cs)
);
},
{
closed = 1;
nodes = (
(340,-66,ls),
(362,-131,o),
(413,-169,o),
(479,-169,cs),
(570,-169,l),
(570,-102,l),
(510,-102,ls),
(444,-102,o),
(418,-75,o),
(408,-34,cs),
(384,48,l),
(309,27,l)
);
}
);
width = 693;
}
);
unicode = 81;
},
{
glyphname = R;
lastChange = "2022-09-12 12:04:11 +0000";
layers = (
{
anchors = (
{
name = bottom;
pos = (276,0);
},
{
name = top;
pos = (294,700);
}
);
layerId = "DFC09A70-1A82-4D07-97CF-EECDCA771356";
shapes = (
{
closed = 1;
nodes = (
(58,0,l),
(203,0,l),
(203,700,l),
(58,700,l)
);
},
{
closed = 1;
nodes = (
(78,246,l),
(332,246,l),
(332,381,l),
(78,381,l)
);
},
{
closed = 1;
nodes = (
(78,565,l),
(332,565,l),
(332,700,l),
(78,700,l)
);
},
{
closed = 1;
nodes = (
(409,565,o),
(429,528,o),
(429,473,cs),
(429,409,o),
(405,382,o),
(332,381,c),
(332,246,l),
(465,246,o),
(574,310,o),
(574,473,c),
(574,616,o),
(465,700,o),
(332,700,c),
(332,565,l)
);
},
{
closed = 1;
nodes = (
(430,0,l),
(589,0,l),
(419,299,l),
(260,299,l)
);
}
);
width = 623;
},
{
anchors = (
{
name = bottom;
pos = (307,0);
},
{
name = top;
pos = (308,700);
}
);
layerId = "B950CEFC-B47C-4E26-91C8-4EFB806DAEDB";
shapes = (
{
closed = 1;
nodes = (
(103,0,l),
(129,0,l),
(129,700,l),
(103,700,l)
);
},
{
closed = 1;
nodes = (
(123,307,l),
(327,307,l),
(327,333,l),
(123,333,l)
);
},
{
closed = 1;
nodes = (
(123,674,l),
(327,674,l),
(327,700,l),
(123,700,l)
);
},
{
closed = 1;
nodes = (
(432,672,o),
(509,624,o),
(509,500,cs),
(509,362,o),
(432,335,o),
(327,333,c),
(327,307,l),
(458,309,o),
(535,362,o),
(535,500,c),
(535,624,o),
(458,699,o),
(327,700,c),
(327,674,l)
);
},
{
closed = 1;
nodes = (
(515,0,l),
(545,0,l),
(372,320,l),
(342,320,l)
);
}
);
width = 606;
},
{
anchors = (
{
name = bottom;
pos = (294,0);
},
{
name = top;
pos = (302,700);
}
);
layerId = "38A022BC-B010-4522-83EC-9E43C5A6F806";
shapes = (
{
closed = 1;
nodes = (
(84,0,l),
(161,0,l),
(161,700,l),
(84,700,l)
);
},
{
closed = 1;
nodes = (
(104,281,l),
(329,281,l),
(329,354,l),
(104,354,l)
);
},
{
closed = 1;
nodes = (
(104,627,l),
(329,627,l),
(329,700,l),
(104,700,l)
);
},
{
closed = 1;
nodes = (
(422,626,o),
(475,583,o),
(475,488,cs),
(475,382,o),
(420,355,o),
(329,354,c),
(329,281,l),
(461,282,o),
(552,340,o),
(552,488,c),
(552,621,o),
(461,699,o),
(329,700,c),
(329,627,l)
);
},
{
closed = 1;
nodes = (
(479,0,l),
(564,0,l),
(392,311,l),
(307,311,l)
);
}
);
width = 613;
}
);
unicode = 82;
},
{
glyphname = S;
kernLeft = O;
lastChange = "2022-09-12 12:04:11 +0000";
layers = (
{
anchors = (
{
name = bottom;
pos = (298,0);
},
{
name = top;
pos = (316,700);
}
);
layerId = "DFC09A70-1A82-4D07-97CF-EECDCA771356";
shapes = (
{
closed = 1;
nodes = (
(477,-11,o),
(605,62,o),
(605,214,c),
(605,333,o),
(518,405,o),
(409,421,c),
(378,424,o),
(274,432,o),
(243,437,c),
(204,444,o),
(185,464,o),
(185,499,c),
(185,554,o),
(246,576,o),
(315,576,c),
(385,576,o),
(442,546,o),
(445,489,c),
(591,489,l),
(589,595,o),
(497,711,o),
(316,711,c),
(163,711,o),
(38,623,o),
(38,495,c),
(38,388,o),
(106,313,o),
(219,295,c),
(240,291,o),
(364,281,o),
(388,277,c),
(420,271,o),
(457,254,o),
(457,209,c),
(457,148,o),
(393,124,o),
(316,124,c),
(222,124,o),
(169,166,o),
(169,227,c),
(24,227,l),
(24,86,o),
(144,-11,o),
(314,-11,c)
);
}
);
width = 643;
},
{
anchors = (
{
name = bottom;
pos = (275,0);
},
{
name = top;
pos = (269,700);
}
);
layerId = "B950CEFC-B47C-4E26-91C8-4EFB806DAEDB";
shapes = (
{
closed = 1;
nodes = (
(423,-9,o),
(539,56,o),
(539,186,c),
(539,283,o),
(468,353,o),
(363,367,c),
(317,373,o),
(272,378,o),
(226,384,c),
(138,395,o),
(85,447,o),
(85,526,c),
(85,627,o),
(179,685,o),
(287,685,c),
(389,685,o),
(473,638,o),
(494,533,c),
(522,533,l),
(508,637,o),
(406,711,o),
(287,711,c),
(172,711,o),
(59,641,o),
(59,526,c),
(59,470,o),
(81,376,o),
(224,358,c),
(269,352,o),
(314,347,o),
(359,341,c),
(447,329,o),
(513,265,o),
(513,186,c),
(513,75,o),
(412,17,o),
(291,17,c),
(174,17,o),
(85,85,o),
(67,185,c),
(40,185,l),
(59,63,o),
(162,-9,o),
(291,-9,c)
);
}
);
width = 594;
},
{
anchors = (
{
name = bottom;
pos = (301,0);
},
{
name = top;
pos = (305,700);
}
);
layerId = "38A022BC-B010-4522-83EC-9E43C5A6F806";
shapes = (
{
closed = 1;
nodes = (
(445,-11,o),
(563,64,o),
(563,192,c),
(563,297,o),
(499,365,o),
(375,382,c),
(349,387,o),
(280,397,o),
(254,401,c),
(184,410,o),
(140,438,o),
(140,508,c),
(140,593,o),
(218,638,o),
(304,638,c),
(402,638,o),
(468,583,o),
(473,498,c),
(550,498,l),
(542,628,o),
(441,711,o),
(305,711,c),
(169,711,o),
(63,625,o),
(63,506,c),
(63,407,o),
(123,345,o),
(244,327,c),
(282,322,o),
(322,316,o),
(360,311,c),
(468,294,o),
(486,227,o),
(486,190,c),
(486,98,o),
(403,62,o),
(309,62,c),
(189,62,o),
(114,130,o),
(114,220,c),
(37,220,l),
(39,96,o),
(131,-11,o),
(309,-11,c)
);
}
);
width = 612;
}
);
unicode = 83;
},
{
glyphname = Germandbls;
lastChange = "2022-09-12 12:02:41 +0000";
layers = (
{
layerId = "DFC09A70-1A82-4D07-97CF-EECDCA771356";
shapes = (
{
closed = 1;
nodes = (
(470,-10,o),
(563,66,o),
(563,212,cs),
(563,232,ls),
(563,320,o),
(477,416,o),
(395,424,c),
(516,581,l),
(466,654,o),
(381,710,o),
(290,710,cs),
(142,710,o),
(58,617,o),
(58,463,cs),
(58,0,l),
(193,0,l),
(193,470,ls),
(193,558,o),
(238,585,o),
(287,585,cs),
(304,585,o),
(334,577,o),
(354,560,c),
(266,434,l),
(266,325,l),
(336,325,o),
(428,305,o),
(428,240,cs),
(428,220,ls),
(428,162,o),
(404,115,o),
(338,115,c),
(321,115,o),
(297,123,o),
(278,132,c),
(257,15,l),
(279,0,o),
(317,-10,o),
(346,-10,c)
);
}
);
width = 593;
},
{
layerId = "B950CEFC-B47C-4E26-91C8-4EFB806DAEDB";
shapes = (
{
closed = 1;
nodes = (
(439,-10,o),
(524,57,o),
(524,206,cs),
(524,226,ls),
(524,357,o),
(455,433,o),
(328,439,c),
(475,586,l),
(428,681,o),
(370,710,o),
(300,710,cs),
(169,710,o),
(103,624,o),
(103,484,cs),
(103,0,l),
(129,0,l),
(129,480,ls),
(129,602,o),
(177,684,o),
(299,684,cs),
(358,684,o),
(406,658,o),
(441,591,c),
(284,430,l),
(284,416,l),
(421,416,o),
(498,366,o),
(498,225,cs),
(498,205,ls),
(498,68,o),
(418,16,o),
(322,16,c),
(268,16,o),
(233,32,o),
(206,65,c),
(186,47,l),
(219,8,o),
(261,-10,o),
(321,-10,c)
);
}
);
width = 586;
},
{
layerId = "38A022BC-B010-4522-83EC-9E43C5A6F806";
shapes = (
{
closed = 1;
nodes = (
(452,-10,o),
(541,61,o),
(541,209,cs),
(541,229,ls),
(541,341,o),
(464,426,o),
(357,433,c),
(493,584,l),
(444,669,o),
(375,710,o),
(296,710,cs),
(157,710,o),
(84,621,o),
(84,475,cs),
(84,0,l),
(156,0,l),
(156,476,ls),
(156,583,o),
(203,642,o),
(294,642,cs),
(335,642,o),
(375,623,o),
(404,578,c),
(276,432,l),
(276,377,l),
(385,377,o),
(468,340,o),
(468,231,cs),
(468,211,ls),
(468,108,o),
(412,58,o),
(329,58,c),
(291,58,o),
(260,71,o),
(237,94,c),
(216,33,l),
(245,5,o),
(285,-10,o),
(332,-10,c)
);
}
);
width = 589;
}
);
unicode = 7838;
},
{
glyphname = T;
kernLeft = V;
kernRight = V;
lastChange = "2022-09-12 12:04:11 +0000";
layers = (
{
anchors = (
{
name = bottom;
pos = (266,-9);
},
{
name = top;
pos = (306,700);
}
);
layerId = "DFC09A70-1A82-4D07-97CF-EECDCA771356";
shapes = (
{
closed = 1;
nodes = (
(235,0,l),
(380,0,l),
(380,700,l),
(235,700,l)
);
},
{
closed = 1;
nodes = (
(20,565,l),
(594,565,l),
(594,700,l),
(20,700,l)
);
}
);
width = 614;
},
{
anchors = (
{
name = bottom;
pos = (243,3);
},
{
name = top;
pos = (268,730);
}
);
layerId = "B950CEFC-B47C-4E26-91C8-4EFB806DAEDB";
shapes = (
{
closed = 1;
nodes = (
(255,0,l),
(281,0,l),
(281,700,l),
(255,700,l)
);
},
{
closed = 1;
nodes = (
(16,674,l),
(520,674,l),
(520,700,l),
(16,700,l)
);
}
);
width = 536;
},
{
anchors = (
{
name = bottom;
pos = (253,-2);
},
{
name = top;
pos = (284,717);
}
);
layerId = "38A022BC-B010-4522-83EC-9E43C5A6F806";
shapes = (
{
closed = 1;
nodes = (
(246,0,l),
(323,0,l),
(323,700,l),
(246,700,l)
);
},
{
closed = 1;
nodes = (
(18,627,l),
(552,627,l),
(552,700,l),
(18,700,l)
);
}
);
width = 569;
}
);
unicode = 84;
},
{
glyphname = Tbar;
kernLeft = V;
kernRight = V;
lastChange = "2022-09-12 12:02:41 +0000";
layers = (
{
layerId = "DFC09A70-1A82-4D07-97CF-EECDCA771356";
shapes = (
{
closed = 1;
nodes = (
(126,229,l),
(492,229,l),
(492,364,l),
(126,364,l)
);
},
{
pos = (-5,0);
ref = T;
}
);
width = 615;
},
{
layerId = "B950CEFC-B47C-4E26-91C8-4EFB806DAEDB";
shapes = (
{
closed = 1;
nodes = (
(125,338,l),
(411,338,l),
(411,364,l),
(125,364,l)
);
},
{
pos = (-1,0);
ref = T;
}
);
width = 536;
},
{
layerId = "38A022BC-B010-4522-83EC-9E43C5A6F806";
shapes = (
{
closed = 1;
nodes = (
(125,291,l),
(446,291,l),
(446,364,l),
(125,364,l)
);
},
{
alignment = -1;
pos = (-3,0);
ref = T;
}
);
width = 570;
}
);
unicode = 358;
},
{
glyphname = U;
lastChange = "2022-09-12 12:04:11 +0000";
layers = (
{
anchors = (
{
name = dotbelow;
pos = (325,0);
},
{
name = horn;
pos = (504,695);
},
{
name = top;
pos = (328,700);
}
);
layerId = "DFC09A70-1A82-4D07-97CF-EECDCA771356";
shapes = (
{
closed = 1;
nodes = (
(55,133,o),
(128,-10,o),
(323,-10,cs),
(523,-10,o),
(596,133,o),
(596,278,cs),
(596,700,l),
(451,700,l),
(451,281,ls),
(451,170,o),
(406,125,o),
(325,125,cs),
(243,125,o),
(200,168,o),
(200,277,cs),
(200,700,l),
(55,700,l),
(55,278,ls)
);
}
);
width = 651;
},
{
anchors = (
{
name = dotbelow;
pos = (325,0);
},
{
name = horn;
pos = (530,700);
},
{
name = top;
pos = (326,700);
}
);
layerId = "B950CEFC-B47C-4E26-91C8-4EFB806DAEDB";
shapes = (
{
closed = 1;
nodes = (
(95,113,o),
(168,-10,o),
(323,-10,cs),
(483,-10,o),
(556,113,o),
(556,288,cs),
(556,700,l),
(530,700,l),
(530,276,ls),
(530,121,o),
(458,16,o),
(325,16,cs),
(192,16,o),
(121,121,o),
(121,272,cs),
(121,700,l),
(95,700,l),
(95,288,ls)
);
}
);
width = 651;
},
{
anchors = (
{
name = dotbelow;
pos = (325,0);
},
{
name = horn;
pos = (519,698);
},
{
name = top;
pos = (327,700);
}
);
layerId = "38A022BC-B010-4522-83EC-9E43C5A6F806";
shapes = (
{
closed = 1;
nodes = (
(78,122,o),
(151,-10,o),
(323,-10,cs),
(500,-10,o),
(573,122,o),
(573,284,cs),
(573,700,l),
(496,700,l),
(496,278,ls),
(496,142,o),
(436,63,o),
(325,63,cs),
(214,63,o),
(155,141,o),
(155,274,cs),
(155,700,l),
(78,700,l),
(78,284,ls)
);
}
);
width = 651;
}
);
unicode = 85;
},
{
glyphname = V;
kernLeft = V;
kernRight = V;
lastChange = "2022-09-12 12:04:11 +0000";
layers = (
{
anchors = (
{
name = top;
pos = (350,730);
}
);
layerId = "DFC09A70-1A82-4D07-97CF-EECDCA771356";
shapes = (
{
closed = 1;
nodes = (
(249,0,l),
(397,0,l),
(163,700,l),
(9,700,l)
);
},
{
closed = 1;
nodes = (
(511,700,l),
(277,0,l),
(425,0,l),
(665,700,l)
);
}
);
width = 674;
},
{
anchors = (
{
name = top;
pos = (296,730);
}
);
layerId = "B950CEFC-B47C-4E26-91C8-4EFB806DAEDB";
shapes = (
{
closed = 1;
nodes = (
(269,0,l),
(296,0,l),
(56,700,l),
(29,700,l)
);
},
{
closed = 1;
nodes = (
(520,700,l),
(280,0,l),
(307,0,l),
(547,700,l)
);
}
);
width = 576;
},
{
anchors = (
{
name = top;
pos = (319,730);
}
);
layerId = "38A022BC-B010-4522-83EC-9E43C5A6F806";
shapes = (
{
closed = 1;
nodes = (
(260,0,l),
(339,0,l),
(102,700,l),
(20,700,l)
);
},
{
closed = 1;
nodes = (
(516,700,l),
(279,0,l),
(358,0,l),
(598,700,l)
);
}
);
width = 618;
}
);
unicode = 86;
},
{
glyphname = W;
kernLeft = V;
kernRight = V;
lastChange = "2022-09-12 12:04:11 +0000";
layers = (
{
anchors = (
{
name = top;
pos = (461,720);
}
);
layerId = "DFC09A70-1A82-4D07-97CF-EECDCA771356";
shapes = (
{
closed = 1;
nodes = (
(172,0,l),
(320,0,l),
(170,700,l),
(22,700,l)
);
},
{
closed = 1;
nodes = (
(384,700,l),
(214,0,l),
(331,0,l),
(501,700,l)
);
},
{
closed = 1;
nodes = (
(585,0,l),
(702,0,l),
(532,700,l),
(415,700,l)
);
},
{
closed = 1;
nodes = (
(746,700,l),
(596,0,l),
(744,0,l),
(894,700,l)
);
}
);
width = 916;
},
{
anchors = (
{
name = top;
pos = (393,730);
}
);
layerId = "B950CEFC-B47C-4E26-91C8-4EFB806DAEDB";
shapes = (
{
closed = 1;
nodes = (
(199,0,l),
(226,0,l),
(56,700,l),
(29,700,l)
);
},
{
closed = 1;
nodes = (
(380,700,l),
(213,0,l),
(237,0,l),
(407,700,l)
);
},
{
closed = 1;
nodes = (
(550,0,l),
(574,0,l),
(407,700,l),
(380,700,l)
);
},
{
closed = 1;
nodes = (
(731,700,l),
(561,0,l),
(588,0,l),
(758,700,l)
);
}
);
width = 787;
},
{
anchors = (
{
name = top;
pos = (422,726);
}
);
layerId = "38A022BC-B010-4522-83EC-9E43C5A6F806";
shapes = (
{
closed = 1;
nodes = (
(187,0,l),
(266,0,l),
(105,700,l),
(26,700,l)
);
},
{
closed = 1;
nodes = (
(382,700,l),
(213,0,l),
(277,0,l),
(447,700,l)
);
},
{
closed = 1;
nodes = (
(565,0,l),
(629,0,l),
(461,700,l),
(395,700,l)
);
},
{
closed = 1;
nodes = (
(737,700,l),
(576,0,l),
(655,0,l),
(816,700,l)
);
}
);
width = 842;
}
);
unicode = 87;
},
{
glyphname = X;
lastChange = "2022-09-12 12:04:11 +0000";
layers = (
{
layerId = "DFC09A70-1A82-4D07-97CF-EECDCA771356";
shapes = (
{
closed = 1;
nodes = (
(179,6,l),
(316,248,l),
(454,6,l),
(625,6,l),
(403,365,l),
(610,706,l),
(441,706,l),
(316,482,l),
(192,706,l),
(22,706,l),
(229,365,l),
(8,6,l)
);
}
);
width = 633;
},
{
layerId = "B950CEFC-B47C-4E26-91C8-4EFB806DAEDB";
shapes = (
{
closed = 1;
nodes = (
(89,0,l),
(284,327,l),
(479,0,l),
(509,0,l),
(301,350,l),
(509,700,l),
(479,700,l),
(284,373,l),
(89,700,l),
(59,700,l),
(268,350,l),
(59,0,l)
);
}
);
width = 593;
},
{
layerId = "38A022BC-B010-4522-83EC-9E43C5A6F806";
shapes = (
{
closed = 1;
nodes = (
(128,3,l),
(298,293,l),
(468,3,l),
(559,3,l),
(345,356,l),
(552,703,l),
(463,703,l),
(298,420,l),
(133,703,l),
(43,703,l),
(251,356,l),
(37,3,l)
);
}
);
width = 610;
}
);
unicode = 88;
},
{
glyphname = Y;
kernLeft = V;
kernRight = V;
lastChange = "2022-09-12 12:04:11 +0000";
layers = (
{
anchors = (
{
name = dotbelow;
pos = (293,0);
},
{
name = top;
pos = (294,700);
}
);
layerId = "DFC09A70-1A82-4D07-97CF-EECDCA771356";
shapes = (
{
closed = 1;
nodes = (
(366,0,l),
(366,280,l),
(580,700,l),
(422,700,l),
(294,433,l),
(164,700,l),
(7,700,l),
(221,280,l),
(221,0,l)
);
}
);
width = 587;
},
{
anchors = (
{
name = dotbelow;
pos = (261,0);
},
{
name = top;
pos = (260,730);
}
);
layerId = "B950CEFC-B47C-4E26-91C8-4EFB806DAEDB";
shapes = (
{
closed = 1;
nodes = (
(274,0,l),
(274,308,l),
(500,700,l),
(469,700,l),
(261,340,l),
(50,700,l),
(20,700,l),
(248,308,l),
(248,0,l)
);
}
);
width = 520;
},
{
anchors = (
{
name = dotbelow;
pos = (275,0);
},
{
name = top;
pos = (275,717);
}
);
layerId = "38A022BC-B010-4522-83EC-9E43C5A6F806";
shapes = (
{
closed = 1;
nodes = (
(313,0,l),
(313,296,l),
(534,700,l),
(449,700,l),
(275,380,l),
(99,700,l),
(14,700,l),
(236,296,l),
(236,0,l)
);
}
);
width = 549;
}
);
unicode = 89;
},
{
glyphname = Z;
lastChange = "2022-09-12 12:04:11 +0000";
layers = (
{
anchors = (
{
name = bottom;
pos = (281,0);
},
{
name = top;
pos = (281,700);
}
);
layerId = "DFC09A70-1A82-4D07-97CF-EECDCA771356";
shapes = (
{
closed = 1;
nodes = (
(36,565,l),
(529,565,l),
(529,700,l),
(36,700,l)
);
},
{
closed = 1;
nodes = (
(29,0,l),
(529,0,l),
(529,135,l),
(29,135,l)
);
},
{
closed = 1;
nodes = (
(529,565,l),
(349,565,l),
(29,135,l),
(209,135,l)
);
}
);
width = 558;
},
{
anchors = (
{
name = bottom;
pos = (289,0);
},
{
name = top;
pos = (289,730);
}
);
layerId = "B950CEFC-B47C-4E26-91C8-4EFB806DAEDB";
shapes = (
{
closed = 1;
nodes = (
(57,674,l),
(497,674,l),
(497,700,l),
(57,700,l)
);
},
{
closed = 1;
nodes = (
(37,0,l),
(497,0,l),
(497,26,l),
(37,26,l)
);
},
{
closed = 1;
nodes = (
(497,674,l),
(466,674,l),
(37,26,l),
(68,26,l)
);
}
);
width = 524;
},
{
anchors = (
{
name = bottom;
pos = (286,0);
},
{
name = top;
pos = (286,717);
}
);
layerId = "38A022BC-B010-4522-83EC-9E43C5A6F806";
shapes = (
{
closed = 1;
nodes = (
(48,627,l),
(511,627,l),
(511,700,l),
(48,700,l)
);
},
{
closed = 1;
nodes = (
(34,0,l),
(511,0,l),
(511,73,l),
(34,73,l)
);
},
{
closed = 1;
nodes = (
(511,627,l),
(416,627,l),
(34,73,l),
(128,73,l)
);
}
);
width = 539;
}
);
unicode = 90;
},
{
glyphname = I.alt;
lastChange = "2022-09-12 12:02:42 +0000";
layers = (
{
anchors = (
{
name = top;
pos = (128,640);
}
);
layerId = "DFC09A70-1A82-4D07-97CF-EECDCA771356";
shapes = (
{
closed = 1;
nodes = (
(58,0,l),
(203,0,l),
(203,640,l),
(58,640,l)
);
}
);
width = 261;
},
{
anchors = (
{
name = top;
pos = (116,640);
}
);
layerId = "B950CEFC-B47C-4E26-91C8-4EFB806DAEDB";
shapes = (
{
closed = 1;
nodes = (
(103,0,l),
(129,0,l),
(129,640,l),
(103,640,l)
);
}
);
width = 232;
},
{
anchors = (
{
name = top;
pos = (121,640);
}
);
layerId = "38A022BC-B010-4522-83EC-9E43C5A6F806";
shapes = (
{
closed = 1;
nodes = (
(84,0,l),
(161,0,l),
(161,640,l),
(84,640,l)
);
}
);
width = 244;
}
);
},
{
glyphname = a;
kernLeft = o;
kernRight = a;
lastChange = "2022-09-12 12:04:11 +0000";
layers = (
{
anchors = (
{
name = dotbelow;
pos = (281,0);
},
{
name = top;
pos = (274,500);
}
);
layerId = "DFC09A70-1A82-4D07-97CF-EECDCA771356";
shapes = (
{
closed = 1;
nodes = (
(275,-11,o),
(327,14,o),
(366,61,c),
(376,0,l),
(501,0,l),
(501,306,l),
(366,306,l),
(259,306,l),
(120,306,o),
(32,241,o),
(32,142,c),
(32,45,o),
(103,-11,o),
(191,-11,c)
);
},
{
closed = 1;
nodes = (
(190,97,o),
(167,117,o),
(167,147,c),
(167,191,o),
(198,213,o),
(264,213,c),
(366,213,l),
(366,203,l),
(366,139,o),
(285,97,o),
(224,97,c)
);
},
{
closed = 1;
nodes = (
(366,295,l),
(501,295,l),
(501,306,l),
(501,432,o),
(425,511,o),
(274,511,c),
(134,511,o),
(62,422,o),
(61,338,c),
(196,338,l),
(196,358,o),
(214,401,o),
(274,401,cs),
(349,401,o),
(366,376,o),
(366,306,c)
);
}
);
width = 553;
},
{
anchors = (
{
name = dotbelow;
pos = (227,0);
},
{
name = top;
pos = (241,500);
}
);
layerId = "B950CEFC-B47C-4E26-91C8-4EFB806DAEDB";
shapes = (
{
closed = 1;
nodes = (
(313,-11,o),
(373,29,o),
(413,88,c),
(413,0,l),
(437,0,l),
(437,295,l),
(413,295,l),
(262,295,l),
(141,295,o),
(57,241,o),
(57,142,c),
(57,47,o),
(133,-11,o),
(222,-11,c)
);
},
{
closed = 1;
nodes = (
(145,13,o),
(81,61,o),
(81,142,c),
(81,222,o),
(148,271,o),
(264,271,c),
(413,271,l),
(413,178,l),
(413,75,o),
(315,13,o),
(227,13,c)
);
},
{
closed = 1;
nodes = (
(413,281,l),
(437,281,l),
(437,295,l),
(437,411,o),
(400,500,o),
(257,500,c),
(145,500,o),
(88,423,o),
(77,345,c),
(101,342,l),
(112,414,o),
(164,476,o),
(257,476,cs),
(374,476,o),
(413,411,o),
(413,295,c)
);
}
);
width = 537;
},
{
anchors = (
{
name = dotbelow;
pos = (262,0);
},
{
name = top;
pos = (267,500);
}
);
layerId = "38A022BC-B010-4522-83EC-9E43C5A6F806";
shapes = (
{
closed = 1;
nodes = (
(300,-9,o),
(356,25,o),
(391,77,c),
(396,-1,l),
(463,-1,l),
(463,306,l),
(391,306,l),
(295,306,l),
(140,306,o),
(46,251,o),
(46,144,c),
(46,40,o),
(117,-9,o),
(219,-9,c)
);
},
{
closed = 1;
nodes = (
(158,58,o),
(117,84,o),
(117,144,c),
(117,205,o),
(175,243,o),
(297,243,c),
(391,243,l),
(391,224,l),
(391,94,o),
(301,58,o),
(224,58,c)
);
},
{
closed = 1;
nodes = (
(391,290,l),
(463,290,l),
(463,306,l),
(463,433,o),
(389,511,o),
(257,511,c),
(137,511,o),
(77,439,o),
(64,354,c),
(135,350,l),
(147,406,o),
(180,444,o),
(264,444,cs),
(348,444,o),
(391,400,o),
(391,306,c)
);
}
);
width = 542;
}
);
unicode = 97;
},
{
glyphname = ae;
kernLeft = o;
kernRight = e;
lastChange = "2022-09-12 12:02:42 +0000";
layers = (
{
anchors = (
{
name = top;
pos = (582,500);
}
);
layerId = "DFC09A70-1A82-4D07-97CF-EECDCA771356";
shapes = (
{
closed = 1;
nodes = (
(672,133,o),
(645,115,o),
(589,115,cs),
(496,115,o),
(494,199,o),
(494,245,cs),
(494,301,o),
(502,385,o),
(589,385,cs),
(643,385,o),
(693,354,o),
(686,211,c),
(822,211,l),
(828,448,o),
(706,510,o),
(589,510,c),
(446,510,o),
(359,421,o),
(359,245,c),
(359,79,o),
(446,-10,o),
(589,-10,c),
(707,-12,o),
(786,43,o),
(816,148,c),
(680,168,l)
);
},
{
closed = 1;
nodes = (
(387,304,l),
(228,304,o),
(20,304,o),
(20,163,cs),
(20,61,o),
(96,-10,o),
(206,-10,c),
(356,-10,o),
(450,61,o),
(450,313,c),
(450,313,o),
(361,313,o),
(361,313,cs),
(361,185,o),
(321,110,o),
(234,110,cs),
(172,110,o),
(155,142,o),
(155,171,cs),
(155,214,o),
(252,218,o),
(391,218,c)
);
},
{
closed = 1;
nodes = (
(187,374,o),
(217,385,o),
(276,385,c),
(320,385,o),
(361,359,o),
(361,314,cs),
(361,290,o),
(486,200,o),
(486,319,cs),
(486,406,o),
(411,510,o),
(270,510,cs),
(145,510,o),
(71,449,o),
(45,373,c),
(168,332,l)
);
},
{
closed = 1;
nodes = (
(388,211,l),
(802,211,l),
(802,308,l),
(388,308,l)
);
}
);
width = 842;
},
{
anchors = (
{
name = top;
pos = (587,500);
}
);
layerId = "B950CEFC-B47C-4E26-91C8-4EFB806DAEDB";
shapes = (
{
closed = 1;
nodes = (
(723,71,o),
(690,14,o),
(586,14,cs),
(473,14,o),
(421,129,o),
(421,250,cs),
(421,371,o),
(473,486,o),
(586,486,cs),
(680,486,o),
(748,424,o),
(748,258,c),
(774,258,l),
(774,445,o),
(684,510,o),
(586,510,c),
(484,510,o),
(397,424,o),
(397,250,c),
(397,76,o),
(484,-10,o),
(586,-10,c),
(692,-11,o),
(744,49,o),
(769,123,c),
(745,127,l)
);
},
{
closed = 1;
nodes = (
(409,287,l),
(308,287,o),
(39,301,o),
(39,132,cs),
(39,50,o),
(105,-10,o),
(215,-10,c),
(395,-10,o),
(424,156,o),
(424,340,c),
(424,340,o),
(399,340,o),
(399,340,cs),
(399,185,o),
(391,14,o),
(207,14,cs),
(128,14,o),
(63,63,o),
(63,129,cs),
(63,276,o),
(324,263,o),
(409,263,c)
);
},
{
closed = 1;
nodes = (
(104,445,o),
(161,486,o),
(250,486,cs),
(337,486,o),
(399,427,o),
(399,340,cs),
(399,260,o),
(423,242,o),
(423,338,c),
(425,445,o),
(352,510,o),
(250,510,cs),
(149,510,o),
(81,459,o),
(64,367,c),
(87,364,l)
);
},
{
closed = 1;
nodes = (
(399,258,l),
(769,258,l),
(769,282,l),
(401,282,l)
);
}
);
width = 813;
},
{
anchors = (
{
name = top;
pos = (585,500);
}
);
layerId = "38A022BC-B010-4522-83EC-9E43C5A6F806";
shapes = (
{
closed = 1;
nodes = (
(701,98,o),
(671,57,o),
(587,57,cs),
(483,57,o),
(452,159,o),
(452,248,cs),
(452,341,o),
(485,443,o),
(587,443,cs),
(664,443,o),
(724,394,o),
(721,238,c),
(795,238,l),
(797,446,o),
(693,510,o),
(587,510,c),
(468,510,o),
(381,423,o),
(381,248,c),
(381,77,o),
(468,-10,o),
(587,-10,c),
(698,-11,o),
(762,46,o),
(789,134,c),
(717,145,l)
);
},
{
closed = 1;
nodes = (
(400,294,l),
(274,294,o),
(31,302,o),
(31,145,cs),
(31,55,o),
(101,-10,o),
(211,-10,c),
(378,-10,o),
(435,115,o),
(435,328,c),
(435,328,o),
(383,328,o),
(383,328,cs),
(383,185,o),
(361,55,o),
(219,55,cs),
(147,55,o),
(102,97,o),
(102,147,cs),
(102,249,o),
(293,244,o),
(401,244,c)
);
},
{
closed = 1;
nodes = (
(140,415,o),
(185,443,o),
(261,443,c),
(330,443,o),
(383,398,o),
(383,329,cs),
(383,273,o),
(450,224,o),
(450,330,cs),
(451,428,o),
(377,510,o),
(259,510,cs),
(147,510,o),
(77,455,o),
(56,370,c),
(122,350,l)
);
},
{
closed = 1;
nodes = (
(394,238,l),
(783,238,l),
(783,293,l),
(395,293,l)
);
}
);
width = 825;
}
);
unicode = 230;
},
{
glyphname = b;
lastChange = "2022-09-12 12:04:11 +0000";
layers = (
{
layerId = "DFC09A70-1A82-4D07-97CF-EECDCA771356";
shapes = (
{
closed = 1;
nodes = (
(187,500,l),
(187,700,l),
(52,700,l),
(52,500,l)
);
},
{
pos = (166,0);
ref = "lowercase-curve";
},
{
pos = (166,500);
ref = "lowercase-curve";
scale = (1,-1);
},
{
pos = (52,500);
ref = "lowercase-vertical";
scale = (1,-1);
}
);
width = 552;
},
{
layerId = "B950CEFC-B47C-4E26-91C8-4EFB806DAEDB";
shapes = (
{
closed = 1;
nodes = (
(124,500,l),
(124,700,l),
(100,700,l),
(100,500,l)
);
},
{
pos = (110,1);
ref = "lowercase-curve";
},
{
pos = (110,500);
ref = "lowercase-curve";
scale = (1,-1);
},
{
pos = (100,500);
ref = "lowercase-vertical";
scale = (1,-1);
}
);
width = 535;
},
{
layerId = "38A022BC-B010-4522-83EC-9E43C5A6F806";
shapes = (
{
closed = 1;
nodes = (
(151,500,l),
(151,700,l),
(79,700,l),
(79,500,l)
);
},
{
alignment = -1;
pos = (134,1);
ref = "lowercase-curve";
},
{
alignment = -1;
pos = (134,500);
ref = "lowercase-curve";
scale = (1,-1);
},
{
alignment = -1;
pos = (79,500);
ref = "lowercase-vertical";
scale = (1,-1);
}
);
width = 542;
}
);
unicode = 98;
},
{
glyphname = c;
kernLeft = o;
lastChange = "2022-09-12 12:04:11 +0000";
layers = (
{
anchors = (
{
name = bottom;
pos = (220,0);
},
{
name = top;
pos = (257,500);
}
);
layerId = "DFC09A70-1A82-4D07-97CF-EECDCA771356";
shapes = (
{
closed = 1;
nodes = (
(385,-12,o),
(468,53,o),
(491,177,c),
(357,196,l),
(349,156,o),
(324,115,o),
(257,115,cs),
(170,115,o),
(162,199,o),
(162,245,cs),
(162,301,o),
(170,385,o),
(257,385,cs),
(321,385,o),
(346,349,o),
(356,308,c),
(490,326,l),
(466,448,o),
(384,510,o),
(257,510,c),
(114,510,o),
(27,421,o),
(27,245,c),
(27,79,o),
(114,-10,o),
(257,-10,c)
);
},
{
closed = 0;
nodes = (
(356,308,l)
);
},
{
closed = 0;
nodes = (
(491,177,l)
);
}
);
width = 508;
},
{
anchors = (
{
name = bottom;
pos = (226,0);
},
{
name = top;
pos = (264,500);
}
);
layerId = "B950CEFC-B47C-4E26-91C8-4EFB806DAEDB";
shapes = (
{
closed = 1;
nodes = (
(354,-10,o),
(406,52,o),
(430,127,c),
(407,133,l),
(385,75,o),
(354,14,o),
(246,14,cs),
(133,14,o),
(81,129,o),
(81,250,cs),
(81,371,o),
(133,486,o),
(246,486,cs),
(350,486,o),
(384,429,o),
(408,361,c),
(431,366,l),
(406,450,o),
(354,510,o),
(246,510,c),
(144,510,o),
(57,424,o),
(57,250,c),
(57,76,o),
(144,-10,o),
(246,-10,c)
);
},
{
closed = 0;
nodes = (
(430,127,l)
);
},
{
closed = 0;
nodes = (
(408,361,l)
);
}
);
width = 472;
},
{
anchors = (
{
name = bottom;
pos = (223,0);
},
{
name = top;
pos = (261,500);
}
);
layerId = "38A022BC-B010-4522-83EC-9E43C5A6F806";
shapes = (
{
closed = 1;
nodes = (
(367,-11,o),
(433,52,o),
(456,148,c),
(386,160,l),
(370,110,o),
(341,57,o),
(251,57,cs),
(149,57,o),
(116,159,o),
(116,248,cs),
(116,341,o),
(149,443,o),
(251,443,cs),
(338,443,o),
(368,395,o),
(386,338,c),
(456,349,l),
(432,449,o),
(367,510,o),
(251,510,c),
(131,510,o),
(44,423,o),
(44,248,c),
(44,77,o),
(131,-10,o),
(251,-10,c)
);
},
{
closed = 0;
nodes = (
(398,205,l)
);
},
{
closed = 0;
nodes = (
(444,282,l)
);
}
);
width = 487;
}
);
unicode = 99;
},
{
glyphname = d;
kernLeft = o;
lastChange = "2022-09-12 12:04:11 +0000";
layers = (
{
layerId = "DFC09A70-1A82-4D07-97CF-EECDCA771356";
shapes = (
{
closed = 1;
nodes = (
(500,700,l),
(365,700,l),
(365,500,l),
(500,500,l)
);
},
{
pos = (386,0);
ref = "lowercase-curve";
scale = (-1,1);
},
{
angle = 180;
pos = (386,500);
ref = "lowercase-curve";
},
{
angle = 180;
pos = (500,500);
ref = "lowercase-vertical";
}
);
width = 552;
},
{
layerId = "B950CEFC-B47C-4E26-91C8-4EFB806DAEDB";
shapes = (
{
closed = 1;
nodes = (
(435,700,l),
(411,700,l),
(411,500,l),
(435,500,l)
);
},
{
pos = (425,1);
ref = "lowercase-curve";
scale = (-1,1);
},
{
angle = 180;
pos = (425,500);
ref = "lowercase-curve";
},
{
angle = 180;
pos = (435,500);
ref = "lowercase-vertical";
}
);
width = 535;
},
{
layerId = "38A022BC-B010-4522-83EC-9E43C5A6F806";
shapes = (
{
closed = 1;
nodes = (
(463,700,l),
(391,700,l),
(391,500,l),
(463,500,l)
);
},
{
alignment = -1;
pos = (408,1);
ref = "lowercase-curve";
scale = (-1,1);
},
{
alignment = -1;
angle = 180;
pos = (408,500);
ref = "lowercase-curve";
},
{
alignment = -1;
angle = 180;
pos = (463,500);
ref = "lowercase-vertical";
}
);
width = 542;
}
);
unicode = 100;
},
{
glyphname = dcroat;
kernLeft = o;
lastChange = "2022-09-12 12:02:42 +0000";
layers = (
{
layerId = "DFC09A70-1A82-4D07-97CF-EECDCA771356";
shapes = (
{
closed = 1;
nodes = (
(253,551,l),
(572,551,l),
(572,656,l),
(253,656,l)
);
},
{
pos = (-8,0);
ref = d;
}
);
width = 572;
},
{
layerId = "B950CEFC-B47C-4E26-91C8-4EFB806DAEDB";
shapes = (
{
closed = 1;
nodes = (
(268,592,l),
(507,592,l),
(507,616,l),
(268,616,l)
);
},
{
pos = (-3,0);
ref = d;
}
);
width = 538;
},
{
layerId = "38A022BC-B010-4522-83EC-9E43C5A6F806";
shapes = (
{
closed = 1;
nodes = (
(262,574,l),
(535,574,l),
(535,633,l),
(262,633,l)
);
},
{
alignment = -1;
pos = (-5,0);
ref = d;
}
);
width = 553;
}
);
unicode = 273;
},
{
glyphname = eth;
kernLeft = o;
lastChange = "2022-09-12 12:02:42 +0000";
layers = (
{
layerId = "DFC09A70-1A82-4D07-97CF-EECDCA771356";
shapes = (
{
closed = 1;
nodes = (
(478,467,o),
(383,609,o),
(302,666,c),
(334,713,l),
(258,765,l),
(225,717,l),
(199,732,o),
(171,746,o),
(141,759,c),
(79,668,l),
(103,659,o),
(132,646,o),
(165,629,c),
(136,587,l),
(211,534,l),
(242,580,l),
(276,556,o),
(354,480,o),
(372,292,c),
(491,305,l)
);
},
{
ref = o;
}
);
width = 522;
},
{
layerId = "B950CEFC-B47C-4E26-91C8-4EFB806DAEDB";
shapes = (
{
closed = 1;
nodes = (
(440,460,o),
(354,593,o),
(255,660,c),
(294,718,l),
(275,731,l),
(236,672,l),
(209,689,o),
(177,705,o),
(140,721,c),
(128,700,l),
(163,686,o),
(195,671,o),
(223,654,c),
(170,574,l),
(189,561,l),
(243,641,l),
(330,582,o),
(418,456,o),
(446,356,c),
(466,345,l)
);
},
{
pos = (-1,0);
ref = o;
}
);
width = 534;
},
{
layerId = "38A022BC-B010-4522-83EC-9E43C5A6F806";
shapes = (
{
closed = 1;
nodes = (
(456,463,o),
(366,600,o),
(275,663,c),
(311,716,l),
(268,746,l),
(231,691,l),
(205,707,o),
(174,723,o),
(140,737,c),
(107,686,l),
(137,674,o),
(168,660,o),
(198,643,c),
(155,580,l),
(198,549,l),
(243,615,l),
(307,571,o),
(391,466,o),
(414,329,c),
(477,328,l)
);
},
{
alignment = -1;
pos = (-1,0);
ref = o;
}
);
width = 529;
}
);
unicode = 240;
},
{
glyphname = e;
kernLeft = e;
kernRight = e;
lastChange = "2022-09-12 12:04:11 +0000";
layers = (
{
anchors = (
{
name = dotbelow;
pos = (257,0);
},
{
name = top;
pos = (250,500);
}
);
layerId = "DFC09A70-1A82-4D07-97CF-EECDCA771356";
shapes = (
{
closed = 1;
nodes = (
(340,133,o),
(313,115,o),
(257,115,cs),
(164,115,o),
(162,199,o),
(162,245,cs),
(162,301,o),
(170,385,o),
(257,385,cs),
(311,385,o),
(361,354,o),
(354,211,c),
(490,211,l),
(496,448,o),
(374,510,o),
(257,510,c),
(114,510,o),
(27,421,o),
(27,245,c),
(27,79,o),
(114,-10,o),
(257,-10,c),
(375,-12,o),
(454,43,o),
(484,148,c),
(348,168,l)
);
},
{
closed = 1;
nodes = (
(56,211,l),
(470,211,l),
(470,308,l),
(56,308,l)
);
}
);
width = 522;
},
{
anchors = (
{
name = dotbelow;
pos = (257,0);
},
{
name = top;
pos = (256,500);
}
);
layerId = "B950CEFC-B47C-4E26-91C8-4EFB806DAEDB";
shapes = (
{
closed = 1;
nodes = (
(392,71,o),
(359,14,o),
(255,14,cs),
(142,14,o),
(90,129,o),
(90,250,cs),
(90,371,o),
(142,486,o),
(255,486,cs),
(349,486,o),
(417,424,o),
(417,258,c),
(443,258,l),
(443,445,o),
(353,510,o),
(255,510,c),
(153,510,o),
(66,424,o),
(66,250,c),
(66,76,o),
(153,-10,o),
(255,-10,c),
(361,-11,o),
(413,49,o),
(438,123,c),
(414,127,l)
);
},
{
closed = 1;
nodes = (
(68,258,l),
(438,258,l),
(438,282,l),
(70,282,l)
);
}
);
width = 510;
},
{
anchors = (
{
name = dotbelow;
pos = (257,0);
},
{
name = top;
pos = (256,500);
}
);
layerId = "38A022BC-B010-4522-83EC-9E43C5A6F806";
shapes = (
{
closed = 1;
nodes = (
(371,97,o),
(340,52,o),
(256,52,cs),
(153,52,o),
(117,155,o),
(117,249,cs),
(117,345,o),
(153,449,o),
(256,449,cs),
(335,449,o),
(396,398,o),
(394,241,c),
(461,241,l),
(463,447,o),
(361,510,o),
(256,510,c),
(139,510,o),
(52,423,o),
(52,249,c),
(52,78,o),
(139,-10,o),
(256,-10,c),
(366,-12,o),
(429,47,o),
(455,133,c),
(389,143,l)
);
},
{
closed = 1;
nodes = (
(70,241,l),
(428,241,l),
(428,302,l),
(70,302,l)
);
}
);
width = 515;
}
);
unicode = 101;
},
{
glyphname = f;
kernLeft = t;
lastChange = "2022-09-12 12:04:11 +0000";
layers = (
{
layerId = "DFC09A70-1A82-4D07-97CF-EECDCA771356";
shapes = (
{
closed = 1;
nodes = (
(16,375,l),
(366,375,l),
(366,500,l),
(16,500,l)
);
},
{
closed = 1;
nodes = (
(245,500,l),
(245,514,l),
(245,554,o),
(246,575,o),
(306,575,cs),
(366,575,l),
(366,700,l),
(240,700,ls),
(149,700,o),
(110,629,o),
(110,505,cs),
(110,500,l)
);
},
{
closed = 1;
nodes = (
(110,0,l),
(245,0,l),
(245,480,l),
(110,480,l)
);
}
);
width = 376;
},
{
layerId = "B950CEFC-B47C-4E26-91C8-4EFB806DAEDB";
shapes = (
{
closed = 1;
nodes = (
(29,476,l),
(299,476,l),
(299,500,l),
(29,500,l)
);
},
{
closed = 1;
nodes = (
(144,496,l),
(144,564,l),
(144,621,o),
(142,676,o),
(214,676,cs),
(299,676,l),
(299,700,l),
(215,700,ls),
(126,700,o),
(120,639,o),
(120,565,cs),
(120,496,l)
);
},
{
closed = 1;
nodes = (
(120,0,l),
(144,0,l),
(144,477,l),
(120,477,l)
);
}
);
width = 323;
},
{
layerId = "38A022BC-B010-4522-83EC-9E43C5A6F806";
shapes = (
{
closed = 1;
nodes = (
(23,433,l),
(328,433,l),
(328,500,l),
(23,500,l)
);
},
{
closed = 1;
nodes = (
(187,498,l),
(187,543,l),
(187,592,o),
(187,633,o),
(253,633,cs),
(328,633,l),
(328,700,l),
(226,700,ls),
(136,700,o),
(116,635,o),
(116,539,cs),
(116,498,l)
);
},
{
closed = 1;
nodes = (
(116,0,l),
(187,0,l),
(187,478,l),
(116,478,l)
);
}
);
width = 346;
}
);
unicode = 102;
},
{
glyphname = g;
kernLeft = o;
lastChange = "2022-09-12 12:04:11 +0000";
layers = (
{
anchors = (
{
name = top;
pos = (267,500);
}
);
layerId = "DFC09A70-1A82-4D07-97CF-EECDCA771356";
shapes = (
{
closed = 1;
nodes = (
(500,0,o),
(365,0,o),
(365,0,cs),
(365,-70,o),
(342,-105,o),
(275,-105,cs),
(202,-105,o),
(184,-62,o),
(184,-42,c),
(49,-42,l),
(50,-126,o),
(127,-205,o),
(259,-205,c),
(402,-205,o),
(500,-146,o),
(500,0,cs)
);
},
{
angle = 180;
pos = (386,500);
ref = "lowercase-curve";
},
{
pos = (386,0);
ref = "lowercase-curve";
scale = (-1,1);
},
{
pos = (500,0);
ref = "lowercase-vertical";
scale = (-1,1);
}
);
width = 552;
},
{
anchors = (
{
name = top;
pos = (249,500);
}
);
layerId = "B950CEFC-B47C-4E26-91C8-4EFB806DAEDB";
shapes = (
{
closed = 1;
nodes = (
(434,0,o),
(410,0,o),
(410,0,cs),
(410,-116,o),
(351,-181,o),
(254,-181,cs),
(161,-181,o),
(117,-126,o),
(97,-42,c),
(74,-49,l),
(95,-137,o),
(142,-205,o),
(254,-205,c),
(377,-205,o),
(434,-116,o),
(434,0,cs)
);
},
{
angle = 180;
pos = (425,498);
ref = "lowercase-curve";
},
{
pos = (425,0);
ref = "lowercase-curve";
scale = (-1,1);
},
{
pos = (434,0);
ref = "lowercase-vertical";
scale = (-1,1);
}
);
width = 524;
},
{
anchors = (
{
name = top;
pos = (257,500);
}
);
layerId = "38A022BC-B010-4522-83EC-9E43C5A6F806";
shapes = (
{
closed = 1;
nodes = (
(462,0,o),
(390,0,o),
(390,0,cs),
(390,-96,o),
(347,-148,o),
(263,-148,cs),
(179,-148,o),
(146,-99,o),
(134,-42,c),
(63,-46,l),
(76,-132,o),
(136,-205,o),
(256,-205,c),
(388,-205,o),
(462,-129,o),
(462,0,cs)
);
},
{
alignment = -1;
angle = 180;
pos = (406,499);
ref = "lowercase-curve";
},
{
alignment = -1;
pos = (406,0);
ref = "lowercase-curve";
scale = (-1,1);
},
{
alignment = -1;
pos = (462,0);
ref = "lowercase-vertical";
scale = (-1,1);
}
);
width = 536;
}
);
unicode = 103;
},
{
glyphname = h;
lastChange = "2022-09-12 12:04:11 +0000";
layers = (
{
layerId = "DFC09A70-1A82-4D07-97CF-EECDCA771356";
shapes = (
{
closed = 1;
nodes = (
(52,0,l),
(187,0,l),
(187,700,l),
(52,700,l)
);
},
{
closed = 1;
nodes = (
(387,0,l),
(522,0,l),
(522,250,l),
(387,250,l)
);
},
{
pos = (168,0);
ref = "lowercase-curve";
}
);
width = 569;
},
{
layerId = "B950CEFC-B47C-4E26-91C8-4EFB806DAEDB";
shapes = (
{
closed = 1;
nodes = (
(100,0,l),
(124,0,l),
(124,700,l),
(100,700,l)
);
},
{
closed = 1;
nodes = (
(454,0,l),
(478,0,l),
(478,249,l),
(454,249,l)
);
},
{
pos = (110,0);
ref = "lowercase-curve";
}
);
width = 568;
},
{
layerId = "38A022BC-B010-4522-83EC-9E43C5A6F806";
shapes = (
{
closed = 1;
nodes = (
(79,0,l),
(151,0,l),
(151,700,l),
(79,700,l)
);
},
{
closed = 1;
nodes = (
(425,0,l),
(497,0,l),
(497,249,l),
(425,249,l)
);
},
{
alignment = -1;
pos = (135,0);
ref = "lowercase-curve";
}
);
width = 568;
}
);
unicode = 104;
},
{
glyphname = hbar;
lastChange = "2022-09-12 12:02:42 +0000";
layers = (
{
layerId = "DFC09A70-1A82-4D07-97CF-EECDCA771356";
shapes = (
{
closed = 1;
nodes = (
(0,556,l),
(350,556,l),
(350,650,l),
(0,650,l)
);
},
{
ref = h;
}
);
width = 582;
},
{
layerId = "B950CEFC-B47C-4E26-91C8-4EFB806DAEDB";
shapes = (
{
closed = 1;
nodes = (
(37,593,l),
(267,593,l),
(267,617,l),
(37,617,l)
);
},
{
pos = (-2,0);
ref = h;
}
);
width = 571;
},
{
layerId = "38A022BC-B010-4522-83EC-9E43C5A6F806";
shapes = (
{
closed = 1;
nodes = (
(21,577,l),
(303,577,l),
(303,631,l),
(21,631,l)
);
},
{
alignment = -1;
pos = (-1,0);
ref = h;
}
);
width = 576;
}
);
unicode = 295;
},
{
glyphname = idotless;
lastChange = "2022-09-12 12:02:42 +0000";
layers = (
{
anchors = (
{
name = dotbelow;
pos = (125,0);
},
{
name = top;
pos = (125,500);
}
);
layerId = "DFC09A70-1A82-4D07-97CF-EECDCA771356";
shapes = (
{
closed = 1;
nodes = (
(57,0,l),
(192,0,l),
(192,500,l),
(57,500,l)
);
}
);
width = 244;
},
{
anchors = (
{
name = dotbelow;
pos = (114,0);
},
{
name = top;
pos = (114,500);
}
);
layerId = "B950CEFC-B47C-4E26-91C8-4EFB806DAEDB";
shapes = (
{
closed = 1;
nodes = (
(102,0,l),
(126,0,l),
(126,500,l),
(102,500,l)
);
}
);
width = 231;
},
{
anchors = (
{
name = dotbelow;
pos = (119,0);
},
{
name = top;
pos = (119,500);
}
);
layerId = "38A022BC-B010-4522-83EC-9E43C5A6F806";
shapes = (
{
closed = 1;
nodes = (
(83,0,l),
(154,0,l),
(154,500,l),
(83,500,l)
);
}
);
width = 237;
}
);
unicode = 305;
},
{
glyphname = jdotless;
lastChange = "2022-09-12 12:02:42 +0000";
layers = (
{
anchors = (
{
name = _top;
pos = (140,500);
}
);
layerId = "DFC09A70-1A82-4D07-97CF-EECDCA771356";
shapes = (
{
closed = 1;
nodes = (
(72,0,l),
(207,0,l),
(207,500,l),
(72,500,l)
);
},
{
closed = 1;
nodes = (
(72,0,l),
(72,-14,l),
(72,-54,o),
(71,-75,o),
(11,-75,cs),
(-13,-75,l),
(-13,-200,l),
(77,-200,ls),
(167,-200,o),
(207,-128,o),
(207,-5,cs),
(207,0,l)
);
}
);
width = 259;
},
{
anchors = (
{
name = _top;
pos = (82,500);
}
);
layerId = "B950CEFC-B47C-4E26-91C8-4EFB806DAEDB";
shapes = (
{
closed = 1;
nodes = (
(70,0,l),
(94,0,l),
(94,500,l),
(70,500,l)
);
},
{
closed = 1;
nodes = (
(70,0,l),
(70,-64,l),
(70,-121,o),
(72,-176,o),
(0,-176,cs),
(-11,-176,l),
(-11,-200,l),
(-1,-200,ls),
(88,-200,o),
(94,-139,o),
(94,-65,cs),
(94,0,l)
);
}
);
width = 182;
},
{
anchors = (
{
name = _top;
pos = (107,500);
}
);
layerId = "38A022BC-B010-4522-83EC-9E43C5A6F806";
shapes = (
{
closed = 1;
nodes = (
(71,0,l),
(142,0,l),
(142,500,l),
(71,500,l)
);
},
{
closed = 1;
nodes = (
(71,0,l),
(71,-43,l),
(71,-92,o),
(72,-133,o),
(5,-133,cs),
(-12,-133,l),
(-12,-200,l),
(32,-200,ls),
(122,-200,o),
(142,-134,o),
(142,-39,cs),
(142,0,l)
);
}
);
width = 215;
}
);
unicode = 567;
},
{
glyphname = k;
lastChange = "2022-09-12 12:04:11 +0000";
layers = (
{
layerId = "DFC09A70-1A82-4D07-97CF-EECDCA771356";
shapes = (
{
closed = 1;
nodes = (
(187,700,l),
(187,340,l),
(326,500,l),
(492,500,l),
(300,288,l),
(522,0,l),
(356,0,l),
(194,209,l),
(187,200,l),
(187,0,l),
(52,0,l),
(52,700,l)
);
}
);
width = 522;
},
{
layerId = "B950CEFC-B47C-4E26-91C8-4EFB806DAEDB";
shapes = (
{
closed = 1;
nodes = (
(124,700,l),
(124,219,l),
(404,500,l),
(438,500,l),
(227,288,l),
(466,0,l),
(435,0,l),
(210,271,l),
(124,186,l),
(124,0,l),
(100,0,l),
(100,700,l)
);
}
);
width = 484;
},
{
layerId = "38A022BC-B010-4522-83EC-9E43C5A6F806";
shapes = (
{
closed = 1;
nodes = (
(151,700,l),
(151,271,l),
(371,500,l),
(461,500,l),
(258,288,l),
(490,0,l),
(401,0,l),
(203,244,l),
(151,192,l),
(151,0,l),
(79,0,l),
(79,700,l)
);
}
);
width = 500;
}
);
unicode = 107;
},
{
glyphname = l;
lastChange = "2022-09-12 12:04:11 +0000";
layers = (
{
anchors = (
{
name = top;
pos = (121,700);
}
);
layerId = "DFC09A70-1A82-4D07-97CF-EECDCA771356";
shapes = (
{
closed = 1;
nodes = (
(52,0,l),
(187,0,l),
(187,700,l),
(52,700,l)
);
}
);
width = 239;
},
{
anchors = (
{
name = top;
pos = (111,700);
}
);
layerId = "B950CEFC-B47C-4E26-91C8-4EFB806DAEDB";
shapes = (
{
closed = 1;
nodes = (
(100,0,l),
(124,0,l),
(124,700,l),
(100,700,l)
);
}
);
width = 224;
},
{
anchors = (
{
name = top;
pos = (115,700);
}
);
layerId = "38A022BC-B010-4522-83EC-9E43C5A6F806";
shapes = (
{
closed = 1;
nodes = (
(79,0,l),
(151,0,l),
(151,700,l),
(79,700,l)
);
}
);
width = 230;
}
);
unicode = 108;
},
{
glyphname = lslash;
lastChange = "2022-09-12 12:02:42 +0000";
layers = (
{
layerId = "DFC09A70-1A82-4D07-97CF-EECDCA771356";
shapes = (
{
closed = 1;
nodes = (
(0,281,l),
(272,347,l),
(272,466,l),
(0,400,l)
);
},
{
ref = l;
}
);
width = 273;
},
{
layerId = "B950CEFC-B47C-4E26-91C8-4EFB806DAEDB";
shapes = (
{
closed = 1;
nodes = (
(0,315,l),
(234,375,l),
(234,400,l),
(0,340,l)
);
},
{
ref = l;
}
);
width = 234;
},
{
layerId = "38A022BC-B010-4522-83EC-9E43C5A6F806";
shapes = (
{
closed = 1;
nodes = (
(0,300,l),
(250,363,l),
(250,428,l),
(0,366,l)
);
},
{
alignment = -1;
ref = l;
}
);
width = 251;
}
);
unicode = 322;
},
{
glyphname = m;
lastChange = "2022-09-12 12:04:11 +0000";
layers = (
{
layerId = "DFC09A70-1A82-4D07-97CF-EECDCA771356";
shapes = (
{
closed = 1;
nodes = (
(522,0,l),
(522,250,l),
(387,250,l),
(387,0,l)
);
},
{
closed = 1;
nodes = (
(857,0,l),
(857,250,l),
(722,250,l),
(722,0,l)
);
},
{
pos = (168,0);
ref = "lowercase-curve";
},
{
pos = (52,0);
ref = "lowercase-vertical";
},
{
pos = (503,0);
ref = "lowercase-curve";
}
);
width = 904;
},
{
layerId = "B950CEFC-B47C-4E26-91C8-4EFB806DAEDB";
shapes = (
{
closed = 1;
nodes = (
(478,0,l),
(478,249,l),
(454,249,l),
(454,0,l)
);
},
{
closed = 1;
nodes = (
(833,0,l),
(833,249,l),
(808,249,l),
(808,0,l)
);
},
{
pos = (110,0);
ref = "lowercase-curve";
},
{
pos = (100,0);
ref = "lowercase-vertical";
},
{
pos = (464,0);
ref = "lowercase-curve";
}
);
width = 923;
},
{
layerId = "38A022BC-B010-4522-83EC-9E43C5A6F806";
shapes = (
{
closed = 1;
nodes = (
(497,0,l),
(497,249,l),
(425,249,l),
(425,0,l)
);
},
{
closed = 1;
nodes = (
(843,0,l),
(843,249,l),
(771,249,l),
(771,0,l)
);
},
{
alignment = -1;
pos = (135,0);
ref = "lowercase-curve";
},
{
alignment = -1;
pos = (79,0);
ref = "lowercase-vertical";
},
{
alignment = -1;
pos = (481,0);
ref = "lowercase-curve";
}
);
width = 915;
}
);
unicode = 109;
},
{
glyphname = n;
lastChange = "2022-09-12 12:04:11 +0000";
layers = (
{
anchors = (
{
name = top;
pos = (282,500);
}
);
layerId = "DFC09A70-1A82-4D07-97CF-EECDCA771356";
shapes = (
{
closed = 1;
nodes = (
(522,0,l),
(522,250,l),
(387,250,l),
(387,0,l)
);
},
{
pos = (168,0);
ref = "lowercase-curve";
},
{
pos = (52,0);
ref = "lowercase-vertical";
}
);
width = 569;
},
{
anchors = (
{
name = top;
pos = (294,500);
}
);
layerId = "B950CEFC-B47C-4E26-91C8-4EFB806DAEDB";
shapes = (
{
closed = 1;
nodes = (
(478,0,l),
(478,249,l),
(454,249,l),
(454,0,l)
);
},
{
pos = (110,0);
ref = "lowercase-curve";
},
{
pos = (100,0);
ref = "lowercase-vertical";
}
);
width = 568;
},
{
anchors = (
{
name = top;
pos = (289,500);
}
);
layerId = "38A022BC-B010-4522-83EC-9E43C5A6F806";
shapes = (
{
closed = 1;
nodes = (
(497,0,l),
(497,249,l),
(425,249,l),
(425,0,l)
);
},
{
alignment = -1;
pos = (135,0);
ref = "lowercase-curve";
},
{
alignment = -1;
pos = (79,0);
ref = "lowercase-vertical";
}
);
width = 568;
}
);
unicode = 110;
},
{
glyphname = eng;
lastChange = "2022-09-12 12:02:42 +0000";
layers = (
{
layerId = "DFC09A70-1A82-4D07-97CF-EECDCA771356";
shapes = (
{
closed = 1;
nodes = (
(387,35,l),
(387,-6,l),
(387,-46,o),
(386,-73,o),
(336,-73,c),
(266,-73,l),
(266,-192,l),
(392,-192,ls),
(483,-192,o),
(522,-121,o),
(522,3,cs),
(522,8,l)
);
},
{
ref = n;
}
);
width = 569;
},
{
layerId = "B950CEFC-B47C-4E26-91C8-4EFB806DAEDB";
shapes = (
{
closed = 1;
nodes = (
(454,73,l),
(454,9,l),
(454,-48,o),
(456,-103,o),
(384,-103,cs),
(317,-103,l),
(317,-127,l),
(383,-127,ls),
(472,-127,o),
(478,-66,o),
(478,8,cs),
(478,73,l)
);
},
{
ref = n;
}
);
width = 568;
},
{
layerId = "38A022BC-B010-4522-83EC-9E43C5A6F806";
shapes = (
{
closed = 1;
nodes = (
(425,57,l),
(425,3,l),
(425,-47,o),
(426,-90,o),
(363,-90,c),
(295,-90,l),
(295,-155,l),
(387,-155,ls),
(477,-155,o),
(497,-90,o),
(497,6,cs),
(497,45,l)
);
},
{
alignment = -1;
ref = n;
}
);
width = 568;
}
);
unicode = 331;
},
{
glyphname = o;
kernLeft = o;
kernRight = o;
lastChange = "2022-09-12 12:04:11 +0000";
layers = (
{
anchors = (
{
name = dotbelow;
pos = (261,0);
},
{
name = horn;
pos = (318,500);
},
{
name = top;
pos = (261,500);
}
);
layerId = "DFC09A70-1A82-4D07-97CF-EECDCA771356";
shapes = (
{
closed = 1;
nodes = (
(27,79,o),
(114,-10,o),
(261,-10,c),
(408,-10,o),
(495,79,o),
(495,245,c),
(495,421,o),
(408,510,o),
(261,510,cs),
(114,510,o),
(27,421,o),
(27,245,c)
);
},
{
closed = 1;
nodes = (
(170,115,o),
(162,199,o),
(162,245,cs),
(162,301,o),
(170,385,o),
(261,385,cs),
(352,385,o),
(360,301,o),
(360,245,cs),
(360,199,o),
(352,115,o),
(261,115,cs)
);
}
);
width = 522;
},
{
anchors = (
{
name = dotbelow;
pos = (267,0);
},
{
name = horn;
pos = (319,505);
},
{
name = top;
pos = (267,500);
}
);
layerId = "B950CEFC-B47C-4E26-91C8-4EFB806DAEDB";
shapes = (
{
closed = 1;
nodes = (
(57,79,o),
(134,-10,o),
(267,-10,c),
(400,-10,o),
(477,79,o),
(477,245,c),
(477,421,o),
(400,510,o),
(267,510,c),
(134,510,o),
(57,421,o),
(57,245,c)
);
},
{
closed = 1;
nodes = (
(160,14,o),
(81,79,o),
(81,245,cs),
(81,421,o),
(160,486,o),
(267,486,cs),
(374,486,o),
(453,421,o),
(453,245,cs),
(453,79,o),
(374,14,o),
(267,14,cs)
);
}
);
width = 534;
},
{
anchors = (
{
name = dotbelow;
pos = (264,0);
},
{
name = horn;
pos = (319,503);
},
{
name = top;
pos = (264,500);
}
);
layerId = "38A022BC-B010-4522-83EC-9E43C5A6F806";
shapes = (
{
closed = 1;
nodes = (
(44,79,o),
(125,-10,o),
(264,-10,c),
(403,-10,o),
(485,79,o),
(485,245,c),
(485,421,o),
(403,510,o),
(264,510,cs),
(125,510,o),
(44,421,o),
(44,245,c)
);
},
{
closed = 1;
nodes = (
(164,57,o),
(116,130,o),
(116,245,cs),
(116,370,o),
(164,443,o),
(264,443,cs),
(365,443,o),
(413,370,o),
(413,245,cs),
(413,130,o),
(365,57,o),
(264,57,cs)
);
}
);
width = 529;
}
);
unicode = 111;
},
{
glyphname = oslash;
kernLeft = o;
kernRight = o;
lastChange = "2022-09-12 12:02:42 +0000";
layers = (
{
layerId = "DFC09A70-1A82-4D07-97CF-EECDCA771356";
shapes = (
{
closed = 1;
nodes = (
(28,6,l),
(108,-53,l),
(493,487,l),
(412,545,l)
);
},
{
pos = (-7,0);
ref = o;
}
);
width = 523;
},
{
layerId = "B950CEFC-B47C-4E26-91C8-4EFB806DAEDB";
shapes = (
{
closed = 1;
nodes = (
(73,-16,l),
(92,-29,l),
(461,514,l),
(441,526,l)
);
},
{
pos = (-3,0);
ref = o;
}
);
width = 534;
},
{
layerId = "38A022BC-B010-4522-83EC-9E43C5A6F806";
shapes = (
{
closed = 1;
nodes = (
(54,-7,l),
(99,-39,l),
(475,502,l),
(429,534,l)
);
},
{
alignment = -1;
pos = (-5,0);
ref = o;
}
);
width = 529;
}
);
unicode = 248;
},
{
glyphname = oe;
kernLeft = o;
lastChange = "2022-09-12 12:02:42 +0000";
layers = (
{
anchors = (
{
name = top;
pos = (254,500);
}
);
layerId = "DFC09A70-1A82-4D07-97CF-EECDCA771356";
shapes = (
{
closed = 1;
nodes = (
(401,-10,o),
(488,79,o),
(488,245,c),
(488,421,o),
(401,510,o),
(254,510,cs),
(107,510,o),
(20,421,o),
(20,245,c),
(20,79,o),
(107,-10,o),
(254,-10,c)
);
},
{
closed = 1;
nodes = (
(163,115,o),
(155,199,o),
(155,245,cs),
(155,301,o),
(163,385,o),
(254,385,cs),
(345,385,o),
(353,301,o),
(353,245,cs),
(353,199,o),
(345,115,o),
(254,115,cs)
);
},
{
closed = 1;
nodes = (
(701,-12,o),
(780,43,o),
(810,148,c),
(674,168,l),
(666,133,o),
(639,115,o),
(583,115,cs),
(490,115,o),
(488,199,o),
(488,245,cs),
(488,301,o),
(496,385,o),
(583,385,cs),
(637,385,o),
(687,354,o),
(680,211,c),
(816,211,l),
(822,448,o),
(700,510,o),
(583,510,c),
(440,510,o),
(353,421,o),
(353,245,c),
(353,79,o),
(440,-10,o),
(583,-10,c)
);
},
{
closed = 1;
nodes = (
(796,211,l),
(796,308,l),
(382,308,l),
(382,211,l)
);
}
);
width = 836;
},
{
anchors = (
{
name = top;
pos = (625,500);
}
);
layerId = "B950CEFC-B47C-4E26-91C8-4EFB806DAEDB";
shapes = (
{
closed = 1;
nodes = (
(382,-10,o),
(459,79,o),
(459,245,c),
(459,421,o),
(382,510,o),
(249,510,c),
(116,510,o),
(39,421,o),
(39,245,c),
(39,79,o),
(116,-10,o),
(249,-10,c)
);
},
{
closed = 1;
nodes = (
(142,14,o),
(63,79,o),
(63,245,cs),
(63,421,o),
(142,486,o),
(249,486,cs),
(356,486,o),
(435,421,o),
(435,245,cs),
(435,79,o),
(356,14,o),
(249,14,cs)
);
},
{
closed = 1;
nodes = (
(730,-11,o),
(782,49,o),
(807,123,c),
(783,127,l),
(761,71,o),
(728,14,o),
(624,14,cs),
(511,14,o),
(459,129,o),
(459,250,cs),
(459,371,o),
(511,486,o),
(624,486,cs),
(718,486,o),
(786,424,o),
(786,258,c),
(812,258,l),
(812,445,o),
(722,510,o),
(624,510,c),
(522,510,o),
(435,424,o),
(435,250,c),
(435,76,o),
(522,-10,o),
(624,-10,c)
);
},
{
closed = 1;
nodes = (
(807,258,l),
(807,282,l),
(439,282,l),
(437,258,l)
);
}
);
width = 851;
},
{
anchors = (
{
name = top;
pos = (466,500);
}
);
layerId = "38A022BC-B010-4522-83EC-9E43C5A6F806";
shapes = (
{
closed = 1;
nodes = (
(390,-10,o),
(471,79,o),
(471,245,c),
(471,421,o),
(390,510,o),
(251,510,cs),
(112,510,o),
(31,421,o),
(31,245,c),
(31,79,o),
(112,-10,o),
(251,-10,c)
);
},
{
closed = 1;
nodes = (
(151,57,o),
(102,130,o),
(102,245,cs),
(102,370,o),
(151,443,o),
(251,443,cs),
(351,443,o),
(400,370,o),
(400,245,cs),
(400,130,o),
(351,57,o),
(251,57,cs)
);
},
{
closed = 1;
nodes = (
(718,-11,o),
(781,46,o),
(808,134,c),
(736,145,l),
(720,98,o),
(690,57,o),
(606,57,cs),
(502,57,o),
(471,159,o),
(471,248,cs),
(471,341,o),
(505,443,o),
(606,443,cs),
(683,443,o),
(744,394,o),
(741,238,c),
(814,238,l),
(816,446,o),
(713,510,o),
(606,510,c),
(487,510,o),
(400,423,o),
(400,248,c),
(400,77,o),
(487,-10,o),
(606,-10,c)
);
},
{
closed = 1;
nodes = (
(802,238,l),
(802,293,l),
(415,293,l),
(413,238,l)
);
}
);
width = 845;
}
);
unicode = 339;
},
{
glyphname = p;
kernRight = o;
lastChange = "2022-09-12 12:04:11 +0000";
layers = (
{
layerId = "DFC09A70-1A82-4D07-97CF-EECDCA771356";
shapes = (
{
closed = 1;
nodes = (
(52,-200,l),
(187,-200,l),
(187,0,l),
(52,0,l)
);
},
{
pos = (166,500);
ref = "lowercase-curve";
scale = (1,-1);
},
{
pos = (166,0);
ref = "lowercase-curve";
},
{
pos = (52,0);
ref = "lowercase-vertical";
}
);
width = 552;
},
{
layerId = "B950CEFC-B47C-4E26-91C8-4EFB806DAEDB";
shapes = (
{
closed = 1;
nodes = (
(100,-200,l),
(124,-200,l),
(124,0,l),
(100,0,l)
);
},
{
pos = (110,499);
ref = "lowercase-curve";
scale = (1,-1);
},
{
pos = (110,0);
ref = "lowercase-curve";
},
{
pos = (100,0);
ref = "lowercase-vertical";
}
);
width = 535;
},
{
layerId = "38A022BC-B010-4522-83EC-9E43C5A6F806";
shapes = (
{
closed = 1;
nodes = (
(79,-200,l),
(151,-200,l),
(151,0,l),
(79,0,l)
);
},
{
alignment = -1;
pos = (134,499);
ref = "lowercase-curve";
scale = (1,-1);
},
{
alignment = -1;
pos = (134,0);
ref = "lowercase-curve";
},
{
alignment = -1;
pos = (79,0);
ref = "lowercase-vertical";
}
);
width = 542;
}
);
unicode = 112;
},
{
glyphname = thorn;
kernRight = o;
lastChange = "2022-09-12 12:02:42 +0000";
layers = (
{
layerId = "DFC09A70-1A82-4D07-97CF-EECDCA771356";
shapes = (
{
closed = 1;
nodes = (
(187,-200,l),
(187,700,l),
(52,700,l),
(52,-200,l)
);
},
{
pos = (166,0);
ref = "lowercase-curve";
},
{
pos = (166,500);
ref = "lowercase-curve";
scale = (1,-1);
}
);
width = 552;
},
{
layerId = "B950CEFC-B47C-4E26-91C8-4EFB806DAEDB";
shapes = (
{
closed = 1;
nodes = (
(124,-200,l),
(124,700,l),
(100,700,l),
(100,-200,l)
);
},
{
pos = (110,1);
ref = "lowercase-curve";
},
{
pos = (110,500);
ref = "lowercase-curve";
scale = (1,-1);
}
);
width = 535;
},
{
layerId = "38A022BC-B010-4522-83EC-9E43C5A6F806";
shapes = (
{
closed = 1;
nodes = (
(151,-200,l),
(151,700,l),
(79,700,l),
(79,-200,l)
);
},
{
alignment = -1;
pos = (134,1);
ref = "lowercase-curve";
},
{
alignment = -1;
pos = (134,500);
ref = "lowercase-curve";
scale = (1,-1);
}
);
width = 542;
}
);
unicode = 254;
},
{
glyphname = q;
kernLeft = o;
lastChange = "2022-09-12 12:04:11 +0000";
layers = (
{
layerId = "DFC09A70-1A82-4D07-97CF-EECDCA771356";
shapes = (
{
closed = 1;
nodes = (
(365,0,l),
(365,-200,l),
(500,-200,l),
(500,0,l)
);
},
{
angle = 180;
pos = (386,500);
ref = "lowercase-curve";
},
{
pos = (386,0);
ref = "lowercase-curve";
scale = (-1,1);
},
{
pos = (500,0);
ref = "lowercase-vertical";
scale = (-1,1);
}
);
width = 552;
},
{
layerId = "B950CEFC-B47C-4E26-91C8-4EFB806DAEDB";
shapes = (
{
closed = 1;
nodes = (
(410,0,l),
(410,-200,l),
(434,-200,l),
(434,0,l)
);
},
{
angle = 180;
pos = (425,498);
ref = "lowercase-curve";
},
{
pos = (425,0);
ref = "lowercase-curve";
scale = (-1,1);
},
{
pos = (434,0);
ref = "lowercase-vertical";
scale = (-1,1);
}
);
width = 534;
},
{
layerId = "38A022BC-B010-4522-83EC-9E43C5A6F806";
shapes = (
{
closed = 1;
nodes = (
(391,0,l),
(391,-200,l),
(462,-200,l),
(462,0,l)
);
},
{
alignment = -1;
angle = 180;
pos = (406,499);
ref = "lowercase-curve";
},
{
alignment = -1;
pos = (406,0);
ref = "lowercase-curve";
scale = (-1,1);
},
{
alignment = -1;
pos = (462,0);
ref = "lowercase-vertical";
scale = (-1,1);
}
);
width = 542;
}
);
unicode = 113;
},
{
glyphname = r;
kernRight = v;
lastChange = "2022-09-12 12:04:11 +0000";
layers = (
{
anchors = (
{
name = bottom;
pos = (113,0);
},
{
name = top;
pos = (173,500);
}
);
layerId = "DFC09A70-1A82-4D07-97CF-EECDCA771356";
shapes = (
{
closed = 1;
nodes = (
(342,375,o),
(342,510,o),
(342,510,c),
(192,510,o),
(155,371,o),
(155,197,c),
(155,197,o),
(187,197,o),
(187,197,cs),
(187,325,o),
(255,375,o),
(342,375,cs)
);
},
{
pos = (52,0);
ref = "lowercase-vertical";
}
);
width = 363;
},
{
anchors = (
{
name = bottom;
pos = (105,0);
},
{
name = top;
pos = (189,500);
}
);
layerId = "B950CEFC-B47C-4E26-91C8-4EFB806DAEDB";
shapes = (
{
closed = 1;
nodes = (
(318,486,o),
(318,510,o),
(318,510,c),
(192,510,o),
(116,432,o),
(106,245,c),
(106,245,o),
(124,245,o),
(124,245,cs),
(134,396,o),
(197,486,o),
(318,486,cs)
);
},
{
pos = (100,0);
ref = "lowercase-vertical";
}
);
width = 332;
},
{
anchors = (
{
name = bottom;
pos = (108,0);
},
{
name = top;
pos = (182,500);
}
);
layerId = "38A022BC-B010-4522-83EC-9E43C5A6F806";
shapes = (
{
closed = 1;
nodes = (
(328,438,o),
(328,510,o),
(328,510,c),
(192,510,o),
(133,406,o),
(127,224,c),
(127,224,o),
(151,224,o),
(151,224,cs),
(157,366,o),
(222,438,o),
(328,438,cs)
);
},
{
alignment = -1;
pos = (79,0);
ref = "lowercase-vertical";
}
);
width = 345;
}
);
unicode = 114;
},
{
glyphname = s;
kernLeft = o;
kernRight = o;
lastChange = "2022-09-12 12:04:11 +0000";
layers = (
{
anchors = (
{
name = bottom;
pos = (235,0);
},
{
name = top;
pos = (255,500);
}
);
layerId = "DFC09A70-1A82-4D07-97CF-EECDCA771356";
shapes = (
{
closed = 1;
nodes = (
(384,-11,o),
(477,43,o),
(477,158,c),
(477,235,o),
(420,290,o),
(331,305,c),
(295,310,o),
(236,317,o),
(225,319,c),
(182,324,o),
(176,341,o),
(176,356,c),
(176,393,o),
(215,404,o),
(256,404,c),
(295,404,o),
(330,383,o),
(330,347,c),
(465,347,l),
(465,441,o),
(383,511,o),
(255,511,c),
(136,511,o),
(43,455,o),
(43,346,c),
(43,279,o),
(93,223,o),
(165,207,c),
(192,202,o),
(275,192,o),
(303,190,c),
(329,186,o),
(345,171,o),
(345,149,c),
(345,125,o),
(329,98,o),
(253,98,c),
(205,98,o),
(162,119,o),
(162,165,c),
(27,165,l),
(27,69,o),
(114,-11,o),
(252,-11,c)
);
}
);
width = 504;
},
{
anchors = (
{
name = bottom;
pos = (238,0);
},
{
name = top;
pos = (236,500);
}
);
layerId = "B950CEFC-B47C-4E26-91C8-4EFB806DAEDB";
shapes = (
{
closed = 1;
nodes = (
(341,-11,o),
(432,35,o),
(432,135,c),
(432,213,o),
(366,256,o),
(300,264,c),
(267,269,o),
(234,273,o),
(201,278,c),
(125,287,o),
(88,316,o),
(88,378,c),
(88,445,o),
(153,487,o),
(236,487,c),
(313,487,o),
(379,454,o),
(394,378,c),
(418,378,l),
(406,461,o),
(334,511,o),
(236,511,c),
(141,511,o),
(62,459,o),
(62,374,c),
(62,298,o),
(121,262,o),
(197,253,c),
(231,248,o),
(264,244,o),
(298,239,c),
(363,231,o),
(408,188,o),
(408,132,c),
(408,51,o),
(330,13,o),
(241,13,c),
(156,13,o),
(79,55,o),
(66,136,c),
(42,136,l),
(50,46,o),
(138,-11,o),
(241,-11,c)
);
}
);
width = 485;
},
{
anchors = (
{
name = bottom;
pos = (242,0);
},
{
name = top;
pos = (250,500);
}
);
layerId = "38A022BC-B010-4522-83EC-9E43C5A6F806";
shapes = (
{
closed = 1;
nodes = (
(362,-11,o),
(454,39,o),
(454,146,c),
(454,216,o),
(404,267,o),
(328,279,c),
(291,285,o),
(216,295,o),
(208,297,c),
(161,303,o),
(135,324,o),
(135,363,c),
(135,421,o),
(198,444,o),
(250,444,c),
(316,444,o),
(357,406,o),
(362,354,c),
(434,354,l),
(431,454,o),
(352,511,o),
(250,511,c),
(147,511,o),
(63,449,o),
(63,360,c),
(63,293,o),
(110,241,o),
(183,230,c),
(221,225,o),
(258,220,o),
(296,215,c),
(347,208,o),
(382,180,o),
(382,140,c),
(382,80,o),
(313,56,o),
(252,56,c),
(182,56,o),
(118,88,o),
(116,158,c),
(44,158,l),
(47,57,o),
(128,-11,o),
(254,-11,c)
);
}
);
width = 498;
}
);
unicode = 115;
},
{
glyphname = germandbls;
lastChange = "2022-09-12 12:02:42 +0000";
layers = (
{
layerId = "DFC09A70-1A82-4D07-97CF-EECDCA771356";
shapes = (
{
closed = 1;
nodes = (
(441,-10,o),
(532,70,o),
(532,197,cs),
(532,207,ls),
(532,286,o),
(500,343,o),
(436,378,c),
(473,413,o),
(492,458,o),
(492,512,cs),
(492,522,ls),
(492,613,o),
(400,710,o),
(274,710,cs),
(146,710,o),
(52,629,o),
(52,508,cs),
(52,0,l),
(187,0,l),
(187,505,ls),
(187,572,o),
(236,585,o),
(272,585,cs),
(308,585,o),
(357,562,o),
(357,505,cs),
(357,490,ls),
(357,452,o),
(328,410,o),
(272,410,cs),
(262,410,l),
(262,300,l),
(297,300,ls),
(351,300,o),
(397,267,o),
(397,220,cs),
(397,205,ls),
(397,161,o),
(370,117,o),
(305,117,c),
(292,118,o),
(275,119,o),
(266,123,c),
(245,3,l),
(266,-6,o),
(291,-9,o),
(320,-10,c)
);
}
);
width = 580;
},
{
layerId = "B950CEFC-B47C-4E26-91C8-4EFB806DAEDB";
shapes = (
{
closed = 1;
nodes = (
(432,-10,o),
(489,56,o),
(489,173,cs),
(489,189,ls),
(489,281,o),
(441,351,o),
(354,372,c),
(414,401,o),
(449,453,o),
(449,526,cs),
(449,537,ls),
(449,633,o),
(382,710,o),
(275,710,cs),
(167,710,o),
(100,639,o),
(100,524,cs),
(100,0,l),
(124,0,l),
(124,522,ls),
(124,621,o),
(178,686,o),
(274,686,cs),
(362,686,o),
(425,628,o),
(425,533,cs),
(425,523,ls),
(425,442,o),
(365,382,o),
(284,382,cs),
(274,382,l),
(274,351,l),
(312,351,ls),
(396,351,o),
(465,286,o),
(465,185,cs),
(465,175,ls),
(465,74,o),
(421,14,o),
(322,14,c),
(254,14,o),
(218,45,o),
(204,62,c),
(187,45,l),
(202,27,o),
(243,-10,o),
(321,-10,c)
);
}
);
width = 579;
},
{
layerId = "38A022BC-B010-4522-83EC-9E43C5A6F806";
shapes = (
{
closed = 1;
nodes = (
(436,-10,o),
(507,62,o),
(507,183,cs),
(507,197,ls),
(507,283,o),
(466,348,o),
(389,375,c),
(439,406,o),
(467,455,o),
(467,520,cs),
(467,531,ls),
(467,624,o),
(390,710,o),
(275,710,cs),
(158,710,o),
(79,635,o),
(79,517,cs),
(79,0,l),
(151,0,l),
(151,515,ls),
(151,600,o),
(203,643,o),
(273,643,cs),
(339,643,o),
(396,600,o),
(396,521,cs),
(396,509,ls),
(396,446,o),
(349,394,o),
(279,394,cs),
(269,394,l),
(269,329,l),
(306,329,ls),
(377,329,o),
(436,278,o),
(436,200,cs),
(436,188,ls),
(436,111,o),
(399,58,o),
(315,58,c),
(270,59,o),
(242,77,o),
(231,88,c),
(212,27,l),
(229,13,o),
(264,-10,o),
(321,-10,c)
);
}
);
width = 579;
}
);
unicode = 223;
},
{
glyphname = t;
kernLeft = t;
lastChange = "2022-09-12 12:04:11 +0000";
layers = (
{
anchors = (
{
name = bottom;
pos = (225,0);
},
{
name = top;
pos = (203,668);
}
);
layerId = "DFC09A70-1A82-4D07-97CF-EECDCA771356";
shapes = (
{
closed = 1;
nodes = (
(17,375,l),
(367,375,l),
(367,500,l),
(17,500,l)
);
},
{
closed = 1;
nodes = (
(111,195,ls),
(111,71,o),
(150,0,o),
(241,0,cs),
(367,0,l),
(367,125,l),
(307,125,l),
(247,125,o),
(246,146,o),
(246,186,c),
(246,200,l),
(111,200,l)
);
},
{
closed = 1;
nodes = (
(246,656,l),
(111,656,l),
(111,200,l),
(246,200,l)
);
}
);
width = 393;
},
{
anchors = (
{
name = bottom;
pos = (230,7);
},
{
name = top;
pos = (136,648);
}
);
layerId = "B950CEFC-B47C-4E26-91C8-4EFB806DAEDB";
shapes = (
{
closed = 1;
nodes = (
(29,476,l),
(299,476,l),
(299,500,l),
(29,500,l)
);
},
{
closed = 1;
nodes = (
(120,135,ls),
(120,61,o),
(126,0,o),
(215,0,cs),
(299,0,l),
(299,24,l),
(214,24,ls),
(142,24,o),
(144,79,o),
(144,136,c),
(144,200,l),
(120,200,l)
);
},
{
closed = 1;
nodes = (
(144,636,l),
(120,636,l),
(120,200,l),
(144,200,l)
);
}
);
width = 340;
},
{
anchors = (
{
name = bottom;
pos = (228,4);
},
{
name = top;
pos = (165,648);
}
);
layerId = "38A022BC-B010-4522-83EC-9E43C5A6F806";
shapes = (
{
closed = 1;
nodes = (
(24,433,l),
(328,433,l),
(328,500,l),
(24,500,l)
);
},
{
closed = 1;
nodes = (
(116,161,ls),
(116,65,o),
(136,0,o),
(226,0,cs),
(328,0,l),
(328,67,l),
(254,67,l),
(187,67,o),
(188,108,o),
(188,157,c),
(188,200,l),
(116,200,l)
);
},
{
closed = 1;
nodes = (
(188,636,l),
(116,636,l),
(116,200,l),
(188,200,l)
);
}
);
width = 363;
}
);
unicode = 116;
},
{
glyphname = tbar;
kernLeft = t;
lastChange = "2022-09-12 12:02:42 +0000";
layers = (
{
layerId = "DFC09A70-1A82-4D07-97CF-EECDCA771356";
shapes = (
{
closed = 1;
nodes = (
(19,190,l),
(368,190,l),
(368,315,l),
(19,315,l)
);
},
{
pos = (-4,0);
ref = t;
}
);
width = 394;
},
{
layerId = "B950CEFC-B47C-4E26-91C8-4EFB806DAEDB";
shapes = (
{
closed = 1;
nodes = (
(39,242,l),
(269,242,l),
(269,266,l),
(39,266,l)
);
},
{
pos = (-1,0);
ref = t;
}
);
width = 340;
},
{
layerId = "38A022BC-B010-4522-83EC-9E43C5A6F806";
shapes = (
{
closed = 1;
nodes = (
(30,220,l),
(311,220,l),
(311,287,l),
(30,287,l)
);
},
{
alignment = -1;
pos = (-2,0);
ref = t;
}
);
width = 363;
}
);
unicode = 359;
},
{
glyphname = u;
lastChange = "2022-09-12 12:04:11 +0000";
layers = (
{
anchors = (
{
name = dotbelow;
pos = (298,-6);
},
{
name = horn;
pos = (404,495);
},
{
name = top;
pos = (285,500);
}
);
layerId = "DFC09A70-1A82-4D07-97CF-EECDCA771356";
shapes = (
{
closed = 1;
nodes = (
(47,500,l),
(47,250,l),
(182,250,l),
(182,500,l)
);
},
{
angle = 180;
pos = (401,500);
ref = "lowercase-curve";
},
{
angle = 180;
pos = (517,500);
ref = "lowercase-vertical";
}
);
width = 569;
},
{
anchors = (
{
name = dotbelow;
pos = (284,-6);
},
{
name = horn;
pos = (424,500);
},
{
name = top;
pos = (263,500);
}
);
layerId = "B950CEFC-B47C-4E26-91C8-4EFB806DAEDB";
shapes = (
{
closed = 1;
nodes = (
(70,500,l),
(70,249,l),
(94,249,l),
(94,500,l)
);
},
{
angle = 180;
pos = (438,500);
ref = "lowercase-curve";
},
{
angle = 180;
pos = (448,500);
ref = "lowercase-vertical";
}
);
width = 548;
},
{
anchors = (
{
name = dotbelow;
pos = (290,-6);
},
{
name = horn;
pos = (415,498);
},
{
name = top;
pos = (272,500);
}
);
layerId = "38A022BC-B010-4522-83EC-9E43C5A6F806";
shapes = (
{
closed = 1;
nodes = (
(60,500,l),
(60,249,l),
(132,249,l),
(132,500,l)
);
},
{
alignment = -1;
angle = 180;
pos = (422,500);
ref = "lowercase-curve";
},
{
alignment = -1;
angle = 180;
pos = (478,500);
ref = "lowercase-vertical";
}
);
width = 557;
}
);
unicode = 117;
},
{
glyphname = v;
kernLeft = v;
kernRight = v;
lastChange = "2022-09-12 12:04:11 +0000";
layers = (
{
layerId = "DFC09A70-1A82-4D07-97CF-EECDCA771356";
shapes = (
{
closed = 1;
nodes = (
(355,0,l),
(505,500,l),
(361,500,l),
(219,0,l)
);
},
{
closed = 1;
nodes = (
(288,0,l),
(147,500,l),
(5,500,l),
(155,0,l)
);
}
);
width = 510;
},
{
layerId = "B950CEFC-B47C-4E26-91C8-4EFB806DAEDB";
shapes = (
{
closed = 1;
nodes = (
(249,0,l),
(439,500,l),
(413,500,l),
(223,0,l)
);
},
{
closed = 1;
nodes = (
(240,0,l),
(50,500,l),
(24,500,l),
(214,0,l)
);
}
);
width = 463;
},
{
layerId = "38A022BC-B010-4522-83EC-9E43C5A6F806";
shapes = (
{
closed = 1;
nodes = (
(294,0,l),
(467,500,l),
(391,500,l),
(221,0,l)
);
},
{
closed = 1;
nodes = (
(261,0,l),
(92,500,l),
(16,500,l),
(189,0,l)
);
}
);
width = 483;
}
);
unicode = 118;
},
{
glyphname = w;
kernLeft = v;
kernRight = v;
lastChange = "2022-09-12 12:04:11 +0000";
layers = (
{
anchors = (
{
name = top;
pos = (361,500);
}
);
layerId = "DFC09A70-1A82-4D07-97CF-EECDCA771356";
shapes = (
{
closed = 1;
nodes = (
(301,0,l),
(411,500,l),
(307,500,l),
(185,0,l)
);
},
{
closed = 1;
nodes = (
(254,0,l),
(153,500,l),
(11,500,l),
(131,0,l)
);
},
{
closed = 1;
nodes = (
(589,0,l),
(709,500,l),
(565,500,l),
(463,0,l)
);
},
{
closed = 1;
nodes = (
(532,0,l),
(411,500,l),
(309,500,l),
(419,0,l)
);
}
);
width = 720;
},
{
anchors = (
{
name = top;
pos = (351,500);
}
);
layerId = "B950CEFC-B47C-4E26-91C8-4EFB806DAEDB";
shapes = (
{
closed = 1;
nodes = (
(214,0,l),
(364,500,l),
(338,500,l),
(188,0,l)
);
},
{
closed = 1;
nodes = (
(205,0,l),
(55,500,l),
(29,500,l),
(179,0,l)
);
},
{
closed = 1;
nodes = (
(523,0,l),
(673,500,l),
(647,500,l),
(497,0,l)
);
},
{
closed = 1;
nodes = (
(514,0,l),
(364,500,l),
(338,500,l),
(488,0,l)
);
}
);
width = 702;
},
{
anchors = (
{
name = top;
pos = (355,500);
}
);
layerId = "38A022BC-B010-4522-83EC-9E43C5A6F806";
shapes = (
{
closed = 1;
nodes = (
(251,0,l),
(384,500,l),
(325,500,l),
(187,0,l)
);
},
{
closed = 1;
nodes = (
(226,0,l),
(97,500,l),
(21,500,l),
(158,0,l)
);
},
{
closed = 1;
nodes = (
(551,0,l),
(688,500,l),
(612,500,l),
(482,0,l)
);
},
{
closed = 1;
nodes = (
(522,0,l),
(384,500,l),
(326,500,l),
(458,0,l)
);
}
);
width = 710;
}
);
unicode = 119;
},
{
glyphname = x;
lastChange = "2022-09-12 12:04:11 +0000";
layers = (
{
layerId = "DFC09A70-1A82-4D07-97CF-EECDCA771356";
shapes = (
{
closed = 1;
nodes = (
(174,260,l),
(320,260,l),
(173,500,l),
(18,500,l)
);
},
{
closed = 1;
nodes = (
(340,260,l),
(496,500,l),
(339,500,l),
(194,260,l)
);
},
{
closed = 1;
nodes = (
(163,0,l),
(320,260,l),
(174,260,l),
(8,0,l)
);
},
{
closed = 1;
nodes = (
(351,0,l),
(506,0,l),
(340,260,l),
(194,260,l)
);
}
);
width = 514;
},
{
layerId = "B950CEFC-B47C-4E26-91C8-4EFB806DAEDB";
shapes = (
{
closed = 1;
nodes = (
(199,260,l),
(228,260,l),
(58,500,l),
(29,500,l)
);
},
{
closed = 1;
nodes = (
(228,260,l),
(398,500,l),
(369,500,l),
(199,260,l)
);
},
{
closed = 1;
nodes = (
(48,0,l),
(228,260,l),
(199,260,l),
(19,0,l)
);
},
{
closed = 1;
nodes = (
(379,0,l),
(408,0,l),
(228,260,l),
(199,260,l)
);
}
);
width = 427;
},
{
layerId = "38A022BC-B010-4522-83EC-9E43C5A6F806";
shapes = (
{
closed = 1;
nodes = (
(188,260,l),
(267,260,l),
(107,500,l),
(24,500,l)
);
},
{
closed = 1;
nodes = (
(276,260,l),
(440,500,l),
(356,500,l),
(197,260,l)
);
},
{
closed = 1;
nodes = (
(97,0,l),
(267,260,l),
(188,260,l),
(14,0,l)
);
},
{
closed = 1;
nodes = (
(367,0,l),
(450,0,l),
(276,260,l),
(197,260,l)
);
}
);
width = 464;
}
);
unicode = 120;
},
{
glyphname = y;
kernLeft = v;
kernRight = v;
lastChange = "2022-09-12 12:04:11 +0000";
layers = (
{
anchors = (
{
name = dotbelow;
pos = (430,0);
},
{
name = top;
pos = (269,500);
}
);
layerId = "DFC09A70-1A82-4D07-97CF-EECDCA771356";
shapes = (
{
closed = 1;
nodes = (
(136,-200,ls),
(254,-200,o),
(299,-160,o),
(327,-73,cs),
(515,500,l),
(371,500,l),
(198,-31,ls),
(191,-52,o),
(173,-73,o),
(109,-73,cs),
(47,-73,l),
(47,-200,l)
);
},
{
closed = 1;
nodes = (
(341,-22,l),
(147,500,l),
(5,500,l),
(208,-22,l)
);
}
);
width = 520;
},
{
anchors = (
{
name = dotbelow;
pos = (324,0);
},
{
name = top;
pos = (238,500);
}
);
layerId = "B950CEFC-B47C-4E26-91C8-4EFB806DAEDB";
shapes = (
{
closed = 1;
nodes = (
(115,-200,ls),
(155,-200,o),
(186,-178,o),
(203,-132,cs),
(439,500,l),
(413,500,l),
(186,-109,ls),
(168,-157,o),
(156,-176,o),
(103,-176,cs),
(24,-176,l),
(24,-200,l)
);
},
{
closed = 1;
nodes = (
(252,0,l),
(63,500,l),
(37,500,l),
(227,0,l)
);
}
);
width = 463;
},
{
anchors = (
{
name = dotbelow;
pos = (352,0);
},
{
name = top;
pos = (246,500);
}
);
layerId = "38A022BC-B010-4522-83EC-9E43C5A6F806";
shapes = (
{
closed = 1;
nodes = (
(117,-200,ls),
(172,-200,o),
(209,-171,o),
(232,-110,cs),
(462,500,l),
(391,500,l),
(173,-80,ls),
(159,-118,o),
(145,-133,o),
(87,-133,cs),
(37,-133,l),
(37,-200,l)
);
},
{
closed = 1;
nodes = (
(278,19,l),
(96,500,l),
(25,500,l),
(211,19,l)
);
}
);
width = 479;
}
);
unicode = 121;
},
{
glyphname = z;
lastChange = "2022-09-12 12:04:11 +0000";
layers = (
{
anchors = (
{
name = bottom;
pos = (248,0);
},
{
name = top;
pos = (248,500);
}
);
layerId = "DFC09A70-1A82-4D07-97CF-EECDCA771356";
shapes = (
{
closed = 1;
nodes = (
(36,375,l),
(449,375,l),
(449,500,l),
(36,500,l)
);
},
{
closed = 1;
nodes = (
(29,0,l),
(449,0,l),
(449,125,l),
(29,125,l)
);
},
{
closed = 1;
nodes = (
(449,375,l),
(289,375,l),
(29,125,l),
(189,125,l)
);
}
);
width = 478;
},
{
anchors = (
{
name = bottom;
pos = (205,0);
},
{
name = top;
pos = (205,500);
}
);
layerId = "B950CEFC-B47C-4E26-91C8-4EFB806DAEDB";
shapes = (
{
closed = 1;
nodes = (
(46,476,l),
(376,476,l),
(376,500,l),
(46,500,l)
);
},
{
closed = 1;
nodes = (
(26,0,l),
(376,0,l),
(376,24,l),
(26,24,l)
);
},
{
closed = 1;
nodes = (
(376,476,l),
(347,476,l),
(26,24,l),
(55,24,l)
);
}
);
width = 416;
},
{
anchors = (
{
name = bottom;
pos = (223,0);
},
{
name = top;
pos = (223,500);
}
);
layerId = "38A022BC-B010-4522-83EC-9E43C5A6F806";
shapes = (
{
closed = 1;
nodes = (
(42,433,l),
(407,433,l),
(407,500,l),
(42,500,l)
);
},
{
closed = 1;
nodes = (
(27,0,l),
(407,0,l),
(407,67,l),
(27,67,l)
);
},
{
closed = 1;
nodes = (
(407,433,l),
(322,433,l),
(27,67,l),
(112,67,l)
);
}
);
width = 443;
}
);
unicode = 122;
},
{
glyphname = a.ss01;
kernLeft = o;
lastChange = "2022-09-12 12:02:42 +0000";
layers = (
{
anchors = (
{
name = dotbelow;
pos = (283,0);
},
{
name = top;
pos = (290,500);
}
);
layerId = "DFC09A70-1A82-4D07-97CF-EECDCA771356";
shapes = (
{
pos = (386,0);
ref = "lowercase-curve";
scale = (-1,1);
},
{
angle = 180;
pos = (386,500);
ref = "lowercase-curve";
},
{
closed = 1;
nodes = (
(365,500,l),
(365,0,l),
(500,0,l),
(500,500,l)
);
}
);
width = 552;
},
{
anchors = (
{
name = dotbelow;
pos = (257,0);
},
{
name = top;
pos = (252,500);
}
);
layerId = "B950CEFC-B47C-4E26-91C8-4EFB806DAEDB";
shapes = (
{
pos = (425,1);
ref = "lowercase-curve";
scale = (-1,1);
},
{
angle = 180;
pos = (425,500);
ref = "lowercase-curve";
},
{
closed = 1;
nodes = (
(411,500,l),
(411,0,l),
(435,0,l),
(435,500,l)
);
}
);
width = 535;
},
{
anchors = (
{
name = dotbelow;
pos = (268,0);
},
{
name = top;
pos = (268,500);
}
);
layerId = "38A022BC-B010-4522-83EC-9E43C5A6F806";
shapes = (
{
alignment = -1;
pos = (408,1);
ref = "lowercase-curve";
scale = (-1,1);
},
{
alignment = -1;
angle = 180;
pos = (408,500);
ref = "lowercase-curve";
},
{
closed = 1;
nodes = (
(391,500,l),
(391,0,l),
(463,0,l),
(463,500,l)
);
}
);
width = 542;
}
);
},
{
glyphname = g.ss02;
kernLeft = g.ss02;
lastChange = "2022-09-12 12:02:42 +0000";
layers = (
{
anchors = (
{
name = top;
pos = (274,500);
}
);
layerId = "DFC09A70-1A82-4D07-97CF-EECDCA771356";
shapes = (
{
closed = 1;
nodes = (
(335,-200,ls),
(441,-200,o),
(511,-128,o),
(511,-38,cs),
(511,46,o),
(452,103,o),
(375,103,cs),
(206,103,ls),
(186,103,o),
(173,111,o),
(173,127,cs),
(173,143,o),
(182,152,o),
(206,152,c),
(274,152,l),
(162,180,l),
(111,180,o),
(43,158,o),
(43,97,cs),
(43,46,o),
(72,26,o),
(130,17,c),
(76,6,o),
(15,-24,o),
(15,-89,cs),
(15,-165,o),
(93,-200,o),
(166,-200,cs)
);
},
{
closed = 1;
nodes = (
(165,-84,o),
(143,-68,o),
(143,-45,cs),
(143,-23,o),
(167,-7,o),
(196,-7,cs),
(254,-7,o),
(271,-7,o),
(329,-7,cs),
(360,-7,o),
(383,-21,o),
(383,-45,cs),
(383,-68,o),
(358,-84,o),
(323,-84,cs),
(196,-84,l)
);
},
{
closed = 1;
nodes = (
(411,152,o),
(498,214,o),
(498,328,c),
(498,449,o),
(411,510,o),
(274,510,cs),
(137,510,o),
(50,449,o),
(50,328,c),
(50,214,o),
(137,152,o),
(274,152,c)
);
},
{
closed = 1;
nodes = (
(203,268,o),
(185,301,o),
(185,328,cs),
(185,361,o),
(203,394,o),
(274,394,cs),
(345,394,o),
(363,361,o),
(363,328,cs),
(363,301,o),
(345,268,o),
(274,268,cs)
);
},
{
closed = 1;
nodes = (
(535,520,l),
(470,558,l),
(340,454,l),
(457,386,l)
);
}
);
width = 545;
},
{
anchors = (
{
name = top;
pos = (268,500);
}
);
layerId = "B950CEFC-B47C-4E26-91C8-4EFB806DAEDB";
shapes = (
{
closed = 1;
nodes = (
(355,-200,l),
(427,-200,o),
(486,-141,o),
(486,-68,cs),
(486,1,o),
(431,56,o),
(362,56,c),
(156,56,l),
(126,56,o),
(98,81,o),
(98,111,c),
(98,148,o),
(133,166,o),
(167,166,c),
(267,166,l),
(167,190,l),
(112,190,o),
(73,155,o),
(73,111,c),
(73,71,o),
(107,40,o),
(135,37,c),
(79,9,o),
(57,-26,o),
(57,-85,c),
(57,-153,o),
(116,-200,o),
(190,-200,c)
);
},
{
closed = 1;
nodes = (
(136,-175,o),
(80,-147,o),
(80,-78,cs),
(80,-21,o),
(125,31,o),
(211,31,cs),
(254,31,o),
(297,31,o),
(360,31,cs),
(415,31,o),
(459,-13,o),
(459,-68,cs),
(459,-127,o),
(412,-175,o),
(353,-175,cs),
(195,-175,ls)
);
},
{
closed = 1;
nodes = (
(392,166,o),
(462,224,o),
(462,335,c),
(462,451,o),
(392,510,o),
(267,510,c),
(142,510,o),
(72,451,o),
(72,335,c),
(72,224,o),
(142,166,o),
(267,166,c)
);
},
{
closed = 1;
nodes = (
(175,191,o),
(97,224,o),
(97,335,cs),
(97,451,o),
(175,485,o),
(267,485,cs),
(359,485,o),
(437,451,o),
(437,335,cs),
(437,224,o),
(359,191,o),
(267,191,cs)
);
},
{
closed = 1;
nodes = (
(483,500,l),
(462,510,l),
(420,438,l),
(440,426,l)
);
}
);
width = 533;
},
{
anchors = (
{
name = top;
pos = (271,500);
}
);
layerId = "38A022BC-B010-4522-83EC-9E43C5A6F806";
shapes = (
{
closed = 1;
nodes = (
(346,-200,ls),
(433,-200,o),
(497,-135,o),
(497,-55,cs),
(497,20,o),
(440,76,o),
(368,76,cs),
(177,76,ls),
(152,76,o),
(130,94,o),
(130,118,cs),
(130,146,o),
(154,160,o),
(184,160,c),
(270,160,l),
(165,186,l),
(112,186,o),
(60,156,o),
(60,105,cs),
(60,60,o),
(92,34,o),
(133,28,c),
(78,8,o),
(39,-25,o),
(39,-87,cs),
(39,-158,o),
(106,-200,o),
(180,-200,cs)
);
},
{
closed = 1;
nodes = (
(148,-136,o),
(107,-113,o),
(107,-64,cs),
(107,-22,o),
(143,15,o),
(205,15,cs),
(254,15,o),
(286,15,o),
(347,15,cs),
(391,15,o),
(426,-16,o),
(426,-58,cs),
(426,-102,o),
(389,-136,o),
(340,-136,cs),
(195,-136,l)
);
},
{
closed = 1;
nodes = (
(400,160,o),
(477,220,o),
(477,332,c),
(477,450,o),
(400,510,o),
(270,510,cs),
(140,510,o),
(63,450,o),
(63,332,c),
(63,220,o),
(140,160,o),
(270,160,c)
);
},
{
closed = 1;
nodes = (
(187,224,o),
(135,257,o),
(135,332,cs),
(135,412,o),
(187,446,o),
(270,446,cs),
(353,446,o),
(405,412,o),
(405,332,cs),
(405,257,o),
(353,224,o),
(270,224,cs)
);
},
{
closed = 1;
nodes = (
(505,509,l),
(469,530,l),
(386,445,l),
(447,409,l)
);
}
);
width = 538;
}
);
},
{
glyphname = f_f;
lastChange = "2022-09-12 12:02:42 +0000";
layers = (
{
layerId = "DFC09A70-1A82-4D07-97CF-EECDCA771356";
shapes = (
{
closed = 1;
nodes = (
(16,375,l),
(366,375,l),
(366,500,l),
(16,500,l)
);
},
{
closed = 1;
nodes = (
(245,490,l),
(245,504,l),
(245,544,o),
(246,565,o),
(306,565,cs),
(366,565,l),
(366,690,l),
(240,690,ls),
(149,690,o),
(110,619,o),
(110,495,cs),
(110,490,l)
);
},
{
closed = 1;
nodes = (
(110,0,l),
(245,0,l),
(245,480,l),
(110,480,l)
);
},
{
closed = 1;
nodes = (
(342,375,l),
(692,375,l),
(692,500,l),
(342,500,l)
);
},
{
closed = 1;
nodes = (
(571,500,l),
(571,514,l),
(571,554,o),
(572,575,o),
(632,575,cs),
(692,575,l),
(692,700,l),
(566,700,ls),
(475,700,o),
(436,629,o),
(436,505,cs),
(436,500,l)
);
},
{
closed = 1;
nodes = (
(436,0,l),
(571,0,l),
(571,480,l),
(436,480,l)
);
}
);
width = 702;
},
{
layerId = "B950CEFC-B47C-4E26-91C8-4EFB806DAEDB";
shapes = (
{
closed = 1;
nodes = (
(29,476,l),
(369,476,l),
(369,500,l),
(29,500,l)
);
},
{
closed = 1;
nodes = (
(144,481,l),
(144,549,l),
(144,606,o),
(142,661,o),
(214,661,cs),
(299,661,l),
(299,685,l),
(215,685,ls),
(126,685,o),
(120,624,o),
(120,550,cs),
(120,481,l)
);
},
{
closed = 1;
nodes = (
(120,0,l),
(144,0,l),
(144,477,l),
(120,477,l)
);
},
{
closed = 1;
nodes = (
(292,476,l),
(562,476,l),
(562,500,l),
(292,500,l)
);
},
{
closed = 1;
nodes = (
(407,496,l),
(407,564,l),
(407,621,o),
(405,676,o),
(477,676,cs),
(562,676,l),
(562,700,l),
(478,700,ls),
(389,700,o),
(383,639,o),
(383,565,cs),
(383,496,l)
);
},
{
closed = 1;
nodes = (
(383,0,l),
(407,0,l),
(407,477,l),
(383,477,l)
);
}
);
width = 586;
},
{
layerId = "38A022BC-B010-4522-83EC-9E43C5A6F806";
shapes = (
{
closed = 1;
nodes = (
(23,433,l),
(368,433,l),
(368,500,l),
(23,500,l)
);
},
{
closed = 1;
nodes = (
(187,485,l),
(187,530,l),
(187,579,o),
(187,620,o),
(253,620,cs),
(328,620,l),
(328,687,l),
(226,687,ls),
(136,687,o),
(116,622,o),
(116,526,cs),
(116,485,l)
);
},
{
closed = 1;
nodes = (
(116,0,l),
(187,0,l),
(187,478,l),
(116,478,l)
);
},
{
closed = 1;
nodes = (
(313,433,l),
(618,433,l),
(618,500,l),
(313,500,l)
);
},
{
closed = 1;
nodes = (
(477,498,l),
(477,543,l),
(477,592,o),
(477,633,o),
(543,633,cs),
(618,633,l),
(618,700,l),
(516,700,ls),
(426,700,o),
(406,635,o),
(406,539,cs),
(406,498,l)
);
},
{
closed = 1;
nodes = (
(406,0,l),
(477,0,l),
(477,478,l),
(406,478,l)
);
}
);
width = 636;
}
);
metricLeft = f;
},
{
glyphname = f_f_l;
lastChange = "2022-09-12 12:02:42 +0000";
layers = (
{
layerId = "DFC09A70-1A82-4D07-97CF-EECDCA771356";
shapes = (
{
closed = 1;
nodes = (
(16,375,l),
(366,375,l),
(366,500,l),
(16,500,l)
);
},
{
closed = 1;
nodes = (
(245,490,l),
(245,504,l),
(245,544,o),
(246,565,o),
(306,565,cs),
(366,565,l),
(366,690,l),
(240,690,ls),
(149,690,o),
(110,619,o),
(110,495,cs),
(110,490,l)
);
},
{
closed = 1;
nodes = (
(110,0,l),
(245,0,l),
(245,480,l),
(110,480,l)
);
},
{
pos = (316,0);
ref = f_l;
}
);
width = 931;
},
{
layerId = "B950CEFC-B47C-4E26-91C8-4EFB806DAEDB";
shapes = (
{
closed = 1;
nodes = (
(29,476,l),
(299,476,l),
(299,500,l),
(29,500,l)
);
},
{
closed = 1;
nodes = (
(144,481,l),
(144,549,l),
(144,606,o),
(142,661,o),
(214,661,cs),
(299,661,l),
(299,685,l),
(215,685,ls),
(126,685,o),
(120,624,o),
(120,550,cs),
(120,481,l)
);
},
{
closed = 1;
nodes = (
(120,0,l),
(144,0,l),
(144,477,l),
(120,477,l)
);
},
{
pos = (270,0);
ref = f_l;
}
);
width = 817;
},
{
layerId = "38A022BC-B010-4522-83EC-9E43C5A6F806";
shapes = (
{
closed = 1;
nodes = (
(23,433,l),
(328,433,l),
(328,500,l),
(23,500,l)
);
},
{
closed = 1;
nodes = (
(187,485,l),
(187,530,l),
(187,579,o),
(187,620,o),
(253,620,cs),
(328,620,l),
(328,687,l),
(226,687,ls),
(136,687,o),
(116,622,o),
(116,526,cs),
(116,485,l)
);
},
{
closed = 1;
nodes = (
(116,0,l),
(187,0,l),
(187,478,l),
(116,478,l)
);
},
{
alignment = -1;
pos = (290,0);
ref = f_l;
}
);
width = 866;
}
);
metricLeft = f;
metricRight = l;
},
{
glyphname = f_i;
lastChange = "2022-09-12 12:02:42 +0000";
layers = (
{
anchors = (
{
name = dotbelow;
pos = (501,0);
},
{
name = top;
pos = (501,700);
}
);
layerId = "DFC09A70-1A82-4D07-97CF-EECDCA771356";
shapes = (
{
closed = 1;
nodes = (
(16,375,l),
(465,375,l),
(465,500,l),
(16,500,l)
);
},
{
closed = 1;
nodes = (
(245,500,l),
(245,514,l),
(245,554,o),
(246,575,o),
(306,575,cs),
(366,575,l),
(366,700,l),
(240,700,ls),
(149,700,o),
(110,629,o),
(110,505,cs),
(110,500,l)
);
},
{
closed = 1;
nodes = (
(110,0,l),
(245,0,l),
(245,480,l),
(110,480,l)
);
},
{
closed = 1;
nodes = (
(433,0,l),
(568,0,l),
(568,500,l),
(433,500,l)
);
},
{
closed = 1;
nodes = (
(418,592,o),
(444,564,o),
(502,564,c),
(555,564,o),
(584,592,o),
(584,640,c),
(584,693,o),
(555,719,o),
(502,719,c),
(444,719,o),
(418,693,o),
(418,640,c)
);
}
);
width = 620;
},
{
anchors = (
{
name = dotbelow;
pos = (437,0);
},
{
name = top;
pos = (437,680);
}
);
layerId = "B950CEFC-B47C-4E26-91C8-4EFB806DAEDB";
shapes = (
{
closed = 1;
nodes = (
(29,476,l),
(439,476,l),
(439,500,l),
(29,500,l)
);
},
{
closed = 1;
nodes = (
(144,496,l),
(144,564,l),
(144,621,o),
(142,676,o),
(214,676,cs),
(299,676,l),
(299,700,l),
(215,700,ls),
(126,700,o),
(120,639,o),
(120,565,cs),
(120,496,l)
);
},
{
closed = 1;
nodes = (
(120,0,l),
(144,0,l),
(144,477,l),
(120,477,l)
);
},
{
closed = 1;
nodes = (
(425,0,l),
(449,0,l),
(449,500,l),
(425,500,l)
);
},
{
closed = 1;
nodes = (
(408,630,o),
(417,619,o),
(437,619,c),
(455,619,o),
(465,630,o),
(465,649,c),
(465,670,o),
(455,680,o),
(437,680,c),
(417,680,o),
(408,670,o),
(408,649,c)
);
}
);
width = 554;
},
{
anchors = (
{
name = dotbelow;
pos = (465,0);
},
{
name = top;
pos = (465,689);
}
);
layerId = "38A022BC-B010-4522-83EC-9E43C5A6F806";
shapes = (
{
closed = 1;
nodes = (
(23,433,l),
(450,433,l),
(450,500,l),
(23,500,l)
);
},
{
closed = 1;
nodes = (
(187,498,l),
(187,543,l),
(187,592,o),
(187,633,o),
(253,633,cs),
(328,633,l),
(328,700,l),
(226,700,ls),
(136,700,o),
(116,635,o),
(116,539,cs),
(116,498,l)
);
},
{
closed = 1;
nodes = (
(116,0,l),
(187,0,l),
(187,478,l),
(116,478,l)
);
},
{
closed = 1;
nodes = (
(429,0,l),
(500,0,l),
(500,500,l),
(429,500,l)
);
},
{
closed = 1;
nodes = (
(412,614,o),
(429,595,o),
(465,595,c),
(498,595,o),
(516,614,o),
(516,645,c),
(516,680,o),
(498,697,o),
(465,697,c),
(429,697,o),
(412,680,o),
(412,645,c)
);
}
);
width = 583;
}
);
metricLeft = f;
metricRight = i;
},
{
glyphname = f_j;
lastChange = "2022-09-12 12:02:42 +0000";
layers = (
{
anchors = (
{
name = _top;
pos = (516,500);
},
{
name = top;
pos = (515,700);
}
);
layerId = "DFC09A70-1A82-4D07-97CF-EECDCA771356";
shapes = (
{
closed = 1;
nodes = (
(16,375,l),
(509,375,l),
(509,500,l),
(16,500,l)
);
},
{
closed = 1;
nodes = (
(245,500,l),
(245,514,l),
(245,554,o),
(246,575,o),
(306,575,cs),
(366,575,l),
(366,700,l),
(240,700,ls),
(149,700,o),
(110,629,o),
(110,505,cs),
(110,500,l)
);
},
{
closed = 1;
nodes = (
(110,0,l),
(245,0,l),
(245,480,l),
(110,480,l)
);
},
{
closed = 1;
nodes = (
(448,0,l),
(583,0,l),
(583,500,l),
(448,500,l)
);
},
{
closed = 1;
nodes = (
(448,0,l),
(448,-14,l),
(448,-54,o),
(447,-75,o),
(387,-75,cs),
(363,-75,l),
(363,-200,l),
(453,-200,ls),
(543,-200,o),
(583,-128,o),
(583,-5,cs),
(583,0,l)
);
},
{
closed = 1;
nodes = (
(432,592,o),
(458,564,o),
(516,564,c),
(569,564,o),
(598,592,o),
(598,640,c),
(598,693,o),
(569,719,o),
(516,719,c),
(458,719,o),
(432,693,o),
(432,640,c)
);
}
);
width = 635;
},
{
anchors = (
{
name = _top;
pos = (405,500);
},
{
name = top;
pos = (406,680);
}
);
layerId = "B950CEFC-B47C-4E26-91C8-4EFB806DAEDB";
shapes = (
{
closed = 1;
nodes = (
(29,476,l),
(406,476,l),
(406,500,l),
(29,500,l)
);
},
{
closed = 1;
nodes = (
(144,496,l),
(144,564,l),
(144,621,o),
(142,676,o),
(214,676,cs),
(299,676,l),
(299,700,l),
(215,700,ls),
(126,700,o),
(120,639,o),
(120,565,cs),
(120,496,l)
);
},
{
closed = 1;
nodes = (
(120,0,l),
(144,0,l),
(144,477,l),
(120,477,l)
);
},
{
closed = 1;
nodes = (
(393,0,l),
(417,0,l),
(417,500,l),
(393,500,l)
);
},
{
closed = 1;
nodes = (
(393,0,l),
(393,-64,l),
(393,-121,o),
(395,-176,o),
(323,-176,cs),
(312,-176,l),
(312,-200,l),
(322,-200,ls),
(411,-200,o),
(417,-139,o),
(417,-65,cs),
(417,0,l)
);
},
{
closed = 1;
nodes = (
(377,630,o),
(386,619,o),
(406,619,c),
(424,619,o),
(434,630,o),
(434,649,c),
(434,670,o),
(424,680,o),
(406,680,c),
(386,680,o),
(377,670,o),
(377,649,c)
);
}
);
width = 505;
},
{
anchors = (
{
name = _top;
pos = (453,500);
},
{
name = top;
pos = (453,689);
}
);
layerId = "38A022BC-B010-4522-83EC-9E43C5A6F806";
shapes = (
{
closed = 1;
nodes = (
(23,433,l),
(450,433,l),
(450,500,l),
(23,500,l)
);
},
{
closed = 1;
nodes = (
(187,498,l),
(187,543,l),
(187,592,o),
(187,633,o),
(253,633,cs),
(328,633,l),
(328,700,l),
(226,700,ls),
(136,700,o),
(116,635,o),
(116,539,cs),
(116,498,l)
);
},
{
closed = 1;
nodes = (
(116,0,l),
(187,0,l),
(187,478,l),
(116,478,l)
);
},
{
closed = 1;
nodes = (
(417,0,l),
(488,0,l),
(488,500,l),
(417,500,l)
);
},
{
closed = 1;
nodes = (
(417,0,l),
(417,-43,l),
(417,-92,o),
(418,-133,o),
(351,-133,cs),
(334,-133,l),
(334,-200,l),
(378,-200,ls),
(468,-200,o),
(488,-134,o),
(488,-39,cs),
(488,0,l)
);
},
{
closed = 1;
nodes = (
(400,614,o),
(417,595,o),
(453,595,c),
(486,595,o),
(504,614,o),
(504,645,c),
(504,680,o),
(486,697,o),
(453,697,c),
(417,697,o),
(400,680,o),
(400,645,c)
);
}
);
width = 561;
}
);
metricLeft = f;
metricRight = j;
},
{
glyphname = f_l;
lastChange = "2022-09-12 12:02:42 +0000";
layers = (
{
layerId = "DFC09A70-1A82-4D07-97CF-EECDCA771356";
shapes = (
{
closed = 1;
nodes = (
(16,375,l),
(366,375,l),
(366,500,l),
(16,500,l)
);
},
{
closed = 1;
nodes = (
(245,500,l),
(245,514,l),
(245,554,o),
(246,575,o),
(306,575,cs),
(501,575,l),
(501,700,l),
(240,700,ls),
(149,700,o),
(110,629,o),
(110,505,cs),
(110,500,l)
);
},
{
closed = 1;
nodes = (
(110,0,l),
(245,0,l),
(245,480,l),
(110,480,l)
);
},
{
pos = (376,0);
ref = l;
}
);
width = 615;
},
{
layerId = "B950CEFC-B47C-4E26-91C8-4EFB806DAEDB";
shapes = (
{
closed = 1;
nodes = (
(29,476,l),
(299,476,l),
(299,500,l),
(29,500,l)
);
},
{
closed = 1;
nodes = (
(144,496,l),
(144,564,l),
(144,621,o),
(142,676,o),
(214,676,cs),
(436,676,l),
(436,700,l),
(215,700,ls),
(126,700,o),
(120,639,o),
(120,565,cs),
(120,496,l)
);
},
{
closed = 1;
nodes = (
(120,0,l),
(144,0,l),
(144,477,l),
(120,477,l)
);
},
{
pos = (323,0);
ref = l;
}
);
width = 547;
},
{
layerId = "38A022BC-B010-4522-83EC-9E43C5A6F806";
shapes = (
{
closed = 1;
nodes = (
(23,433,l),
(328,433,l),
(328,500,l),
(23,500,l)
);
},
{
closed = 1;
nodes = (
(187,498,l),
(187,543,l),
(187,592,o),
(187,633,o),
(253,633,cs),
(464,633,l),
(464,700,l),
(226,700,ls),
(136,700,o),
(116,635,o),
(116,539,cs),
(116,498,l)
);
},
{
closed = 1;
nodes = (
(116,0,l),
(187,0,l),
(187,478,l),
(116,478,l)
);
},
{
alignment = -1;
pos = (346,0);
ref = l;
}
);
width = 576;
}
);
metricLeft = f;
metricRight = l;
},
{
glyphname = t_t;
lastChange = "2022-09-12 12:02:42 +0000";
layers = (
{
anchors = (
{
name = bottom;
pos = (225,0);
},
{
name = top;
pos = (203,668);
}
);
layerId = "DFC09A70-1A82-4D07-97CF-EECDCA771356";
shapes = (
{
closed = 1;
nodes = (
(17,375,l),
(367,375,l),
(367,500,l),
(17,500,l)
);
},
{
closed = 1;
nodes = (
(111,195,ls),
(111,71,o),
(150,0,o),
(241,0,cs),
(367,0,l),
(367,125,l),
(307,125,l),
(247,125,o),
(246,146,o),
(246,186,c),
(246,200,l),
(111,200,l)
);
},
{
closed = 1;
nodes = (
(246,656,l),
(171,656,l),
(145,656,o),
(111,533,o),
(111,500,c),
(111,200,l),
(246,200,l)
);
},
{
closed = 1;
nodes = (
(360,375,l),
(710,375,l),
(710,500,l),
(360,500,l)
);
},
{
closed = 1;
nodes = (
(454,195,ls),
(454,71,o),
(493,0,o),
(584,0,cs),
(710,0,l),
(710,125,l),
(650,125,l),
(590,125,o),
(589,146,o),
(589,186,c),
(589,200,l),
(454,200,l)
);
},
{
closed = 1;
nodes = (
(589,656,l),
(514,656,l),
(488,656,o),
(454,533,o),
(454,500,c),
(454,200,l),
(589,200,l)
);
}
);
width = 736;
},
{
anchors = (
{
name = bottom;
pos = (230,7);
},
{
name = top;
pos = (136,598);
}
);
layerId = "B950CEFC-B47C-4E26-91C8-4EFB806DAEDB";
shapes = (
{
closed = 1;
nodes = (
(29,476,l),
(319,476,l),
(319,500,l),
(29,500,l)
);
},
{
closed = 1;
nodes = (
(120,135,ls),
(120,61,o),
(126,0,o),
(215,0,cs),
(299,0,l),
(299,24,l),
(214,24,ls),
(142,24,o),
(144,79,o),
(144,136,c),
(144,200,l),
(120,200,l)
);
},
{
closed = 1;
nodes = (
(144,586,l),
(127,586,l),
(121,586,o),
(120,534,o),
(120,501,c),
(120,200,l),
(144,200,l)
);
},
{
closed = 1;
nodes = (
(309,476,l),
(579,476,l),
(579,500,l),
(309,500,l)
);
},
{
closed = 1;
nodes = (
(400,135,ls),
(400,61,o),
(406,0,o),
(495,0,cs),
(579,0,l),
(579,24,l),
(494,24,ls),
(422,24,o),
(424,79,o),
(424,136,c),
(424,200,l),
(400,200,l)
);
},
{
closed = 1;
nodes = (
(424,586,l),
(407,586,l),
(401,586,o),
(400,534,o),
(400,501,c),
(400,200,l),
(424,200,l)
);
}
);
width = 620;
},
{
anchors = (
{
name = bottom;
pos = (228,4);
},
{
name = top;
pos = (165,628);
}
);
layerId = "38A022BC-B010-4522-83EC-9E43C5A6F806";
shapes = (
{
closed = 1;
nodes = (
(24,433,l),
(340,433,l),
(340,500,l),
(24,500,l)
);
},
{
closed = 1;
nodes = (
(116,161,ls),
(116,65,o),
(136,0,o),
(226,0,cs),
(328,0,l),
(328,67,l),
(254,67,l),
(187,67,o),
(188,108,o),
(188,157,c),
(188,200,l),
(116,200,l)
);
},
{
closed = 1;
nodes = (
(188,616,l),
(146,616,l),
(131,616,o),
(116,534,o),
(116,501,c),
(116,200,l),
(188,200,l)
);
},
{
closed = 1;
nodes = (
(331,433,l),
(635,433,l),
(635,500,l),
(331,500,l)
);
},
{
closed = 1;
nodes = (
(423,161,ls),
(423,65,o),
(443,0,o),
(533,0,cs),
(635,0,l),
(635,67,l),
(561,67,l),
(494,67,o),
(495,108,o),
(495,157,c),
(495,200,l),
(423,200,l)
);
},
{
closed = 1;
nodes = (
(495,616,l),
(453,616,l),
(438,616,o),
(423,534,o),
(423,501,c),
(423,200,l),
(495,200,l)
);
}
);
width = 670;
}
);
metricLeft = t;
metricRight = t;
},
{
glyphname = f_i.ss04;
lastChange = "2022-09-12 12:02:42 +0000";
layers = (
{
anchors = (
{
name = dotbelow;
pos = (501,0);
},
{
name = top;
pos = (501,700);
}
);
layerId = "DFC09A70-1A82-4D07-97CF-EECDCA771356";
shapes = (
{
closed = 1;
nodes = (
(16,375,l),
(460,375,l),
(460,500,l),
(16,500,l)
);
},
{
closed = 1;
nodes = (
(245,500,l),
(245,514,l),
(245,554,o),
(246,575,o),
(306,575,cs),
(366,575,l),
(366,700,l),
(240,700,ls),
(149,700,o),
(110,629,o),
(110,505,cs),
(110,500,l)
);
},
{
closed = 1;
nodes = (
(110,0,l),
(245,0,l),
(245,480,l),
(110,480,l)
);
},
{
closed = 1;
nodes = (
(433,0,l),
(568,0,l),
(568,500,l),
(433,500,l)
);
},
{
closed = 1;
nodes = (
(433,572,l),
(568,572,l),
(568,700,l),
(433,700,l)
);
}
);
width = 604;
},
{
anchors = (
{
name = dotbelow;
pos = (437,0);
},
{
name = top;
pos = (437,680);
}
);
layerId = "B950CEFC-B47C-4E26-91C8-4EFB806DAEDB";
shapes = (
{
closed = 1;
nodes = (
(29,476,l),
(433,476,l),
(433,500,l),
(29,500,l)
);
},
{
closed = 1;
nodes = (
(144,496,l),
(144,564,l),
(144,621,o),
(142,676,o),
(214,676,cs),
(299,676,l),
(299,700,l),
(215,700,ls),
(126,700,o),
(120,639,o),
(120,565,cs),
(120,496,l)
);
},
{
closed = 1;
nodes = (
(120,0,l),
(144,0,l),
(144,477,l),
(120,477,l)
);
},
{
closed = 1;
nodes = (
(425,0,l),
(449,0,l),
(449,500,l),
(425,500,l)
);
},
{
closed = 1;
nodes = (
(408,625,l),
(465,625,l),
(465,680,l),
(408,680,l)
);
}
);
width = 554;
},
{
anchors = (
{
name = dotbelow;
pos = (465,0);
},
{
name = top;
pos = (465,689);
}
);
layerId = "38A022BC-B010-4522-83EC-9E43C5A6F806";
shapes = (
{
closed = 1;
nodes = (
(23,433,l),
(445,433,l),
(445,500,l),
(23,500,l)
);
},
{
closed = 1;
nodes = (
(187,498,l),
(187,543,l),
(187,592,o),
(187,633,o),
(253,633,cs),
(328,633,l),
(328,700,l),
(226,700,ls),
(136,700,o),
(116,635,o),
(116,539,cs),
(116,498,l)
);
},
{
closed = 1;
nodes = (
(116,0,l),
(187,0,l),
(187,478,l),
(116,478,l)
);
},
{
closed = 1;
nodes = (
(429,0,l),
(500,0,l),
(500,500,l),
(429,500,l)
);
},
{
closed = 1;
nodes = (
(420,602,l),
(510,602,l),
(510,689,l),
(420,689,l)
);
}
);
width = 577;
}
);
metricLeft = f;
metricRight = i;
},
{
glyphname = f_j.ss04;
lastChange = "2022-09-12 12:02:42 +0000";
layers = (
{
anchors = (
{
name = _top;
pos = (516,500);
},
{
name = top;
pos = (516,700);
}
);
layerId = "DFC09A70-1A82-4D07-97CF-EECDCA771356";
shapes = (
{
closed = 1;
nodes = (
(16,375,l),
(529,375,l),
(529,500,l),
(16,500,l)
);
},
{
closed = 1;
nodes = (
(245,500,l),
(245,514,l),
(245,554,o),
(246,575,o),
(306,575,cs),
(366,575,l),
(366,700,l),
(240,700,ls),
(149,700,o),
(110,629,o),
(110,505,cs),
(110,500,l)
);
},
{
closed = 1;
nodes = (
(110,0,l),
(245,0,l),
(245,480,l),
(110,480,l)
);
},
{
closed = 1;
nodes = (
(448,0,l),
(583,0,l),
(583,500,l),
(448,500,l)
);
},
{
closed = 1;
nodes = (
(448,0,l),
(448,-14,l),
(448,-54,o),
(447,-75,o),
(387,-75,cs),
(363,-75,l),
(363,-200,l),
(453,-200,ls),
(543,-200,o),
(583,-128,o),
(583,-5,cs),
(583,0,l)
);
},
{
closed = 1;
nodes = (
(448,572,l),
(583,572,l),
(583,700,l),
(448,700,l)
);
}
);
width = 620;
},
{
anchors = (
{
name = _top;
pos = (405,500);
},
{
name = top;
pos = (408,680);
}
);
layerId = "B950CEFC-B47C-4E26-91C8-4EFB806DAEDB";
shapes = (
{
closed = 1;
nodes = (
(29,476,l),
(406,476,l),
(406,500,l),
(29,500,l)
);
},
{
closed = 1;
nodes = (
(144,496,l),
(144,564,l),
(144,621,o),
(142,676,o),
(214,676,cs),
(299,676,l),
(299,700,l),
(215,700,ls),
(126,700,o),
(120,639,o),
(120,565,cs),
(120,496,l)
);
},
{
closed = 1;
nodes = (
(120,0,l),
(144,0,l),
(144,477,l),
(120,477,l)
);
},
{
closed = 1;
nodes = (
(393,0,l),
(417,0,l),
(417,500,l),
(393,500,l)
);
},
{
closed = 1;
nodes = (
(393,0,l),
(393,-64,l),
(393,-121,o),
(395,-176,o),
(323,-176,cs),
(312,-176,l),
(312,-200,l),
(322,-200,ls),
(411,-200,o),
(417,-139,o),
(417,-65,cs),
(417,0,l)
);
},
{
closed = 1;
nodes = (
(379,625,l),
(436,625,l),
(436,680,l),
(379,680,l)
);
}
);
width = 507;
},
{
anchors = (
{
name = _top;
pos = (453,500);
},
{
name = top;
pos = (454,689);
}
);
layerId = "38A022BC-B010-4522-83EC-9E43C5A6F806";
shapes = (
{
closed = 1;
nodes = (
(23,433,l),
(459,433,l),
(459,500,l),
(23,500,l)
);
},
{
closed = 1;
nodes = (
(187,498,l),
(187,543,l),
(187,592,o),
(187,633,o),
(253,633,cs),
(328,633,l),
(328,700,l),
(226,700,ls),
(136,700,o),
(116,635,o),
(116,539,cs),
(116,498,l)
);
},
{
closed = 1;
nodes = (
(116,0,l),
(187,0,l),
(187,478,l),
(116,478,l)
);
},
{
closed = 1;
nodes = (
(417,0,l),
(488,0,l),
(488,500,l),
(417,500,l)
);
},
{
closed = 1;
nodes = (
(417,0,l),
(417,-43,l),
(417,-92,o),
(418,-133,o),
(351,-133,cs),
(334,-133,l),
(334,-200,l),
(378,-200,ls),
(468,-200,o),
(488,-134,o),
(488,-39,cs),
(488,0,l)
);
},
{
closed = 1;
nodes = (
(409,602,l),
(499,602,l),
(499,689,l),
(409,689,l)
);
}
);
width = 556;
}
);
metricLeft = f;
metricRight = j;
},
{
glyphname = ordfeminine;
lastChange = "2022-09-12 12:02:42 +0000";
layers = (
{
layerId = "DFC09A70-1A82-4D07-97CF-EECDCA771356";
shapes = (
{
closed = 1;
nodes = (
(182,588,o),
(192,606,o),
(232,606,cs),
(273,606,o),
(289,586,o),
(289,545,c),
(404,542,l),
(404,626,o),
(358,711,o),
(232,711,cs),
(143,711,o),
(90,660,o),
(71,606,c),
(174,571,l)
);
},
{
closed = 1;
nodes = (
(404,346,l),
(404,542,l),
(289,563,l),
(289,458,l),
(289,434,o),
(314,346,o),
(332,346,c)
);
},
{
closed = 1;
nodes = (
(315,563,l),
(202,563,o),
(53,563,o),
(53,463,cs),
(53,390,o),
(108,339,o),
(186,339,c),
(307,339,o),
(312,440,o),
(315,563,c),
(289,562,l),
(289,471,o),
(265,425,o),
(214,425,cs),
(182,425,o),
(168,437,o),
(168,458,cs),
(168,489,o),
(219,492,o),
(318,492,c)
);
},
{
closed = 1;
nodes = (
(52,171,l),
(404,171,l),
(404,276,l),
(52,276,l)
);
}
);
width = 456;
},
{
layerId = "B950CEFC-B47C-4E26-91C8-4EFB806DAEDB";
shapes = (
{
closed = 1;
nodes = (
(124,662,o),
(157,686,o),
(221,686,cs),
(285,686,o),
(323,652,o),
(323,587,c),
(347,587,l),
(349,665,o),
(293,710,o),
(221,710,cs),
(148,710,o),
(100,673,o),
(88,608,c),
(111,604,l)
);
},
{
closed = 1;
nodes = (
(347,347,l),
(347,587,l),
(323,587,l),
(323,407,l),
(323,384,o),
(323,347,o),
(327,347,c)
);
},
{
closed = 1;
nodes = (
(330,551,l),
(258,551,o),
(70,561,o),
(70,441,cs),
(70,382,o),
(117,339,o),
(196,339,c),
(285,339,o),
(342,397,o),
(342,528,c),
(323,528,l),
(323,418,o),
(284,363,o),
(189,363,cs),
(133,363,o),
(94,392,o),
(94,438,cs),
(94,543,o),
(269,526,o),
(330,526,c)
);
},
{
closed = 1;
nodes = (
(70,231,l),
(347,231,l),
(347,256,l),
(70,256,l)
);
}
);
width = 417;
},
{
layerId = "38A022BC-B010-4522-83EC-9E43C5A6F806";
shapes = (
{
closed = 1;
nodes = (
(149,630,o),
(172,652,o),
(226,652,cs),
(280,652,o),
(308,624,o),
(308,569,c),
(371,568,l),
(373,648,o),
(321,710,o),
(226,710,cs),
(146,710,o),
(96,667,o),
(81,607,c),
(138,590,l)
);
},
{
closed = 1;
nodes = (
(371,347,l),
(371,568,l),
(308,577,l),
(308,429,l),
(308,405,o),
(319,347,o),
(329,347,c)
);
},
{
closed = 1;
nodes = (
(324,556,l),
(234,556,o),
(63,562,o),
(63,450,cs),
(63,385,o),
(113,339,o),
(192,339,c),
(294,339,o),
(329,415,o),
(330,543,c),
(308,543,l),
(308,441,o),
(276,390,o),
(200,390,cs),
(154,390,o),
(126,411,o),
(126,447,cs),
(126,520,o),
(248,511,o),
(325,511,c)
);
},
{
closed = 1;
nodes = (
(62,205,l),
(371,205,l),
(371,265,l),
(62,265,l)
);
}
);
width = 434;
}
);
unicode = 170;
},
{
glyphname = ordmasculine;
lastChange = "2022-09-12 12:02:42 +0000";
layers = (
{
layerId = "DFC09A70-1A82-4D07-97CF-EECDCA771356";
shapes = (
{
closed = 1;
nodes = (
(327,336,o),
(389,401,o),
(389,520,c),
(389,646,o),
(327,710,o),
(221,710,cs),
(114,710,o),
(52,646,o),
(52,520,c),
(52,401,o),
(114,336,o),
(221,336,c)
);
},
{
closed = 1;
nodes = (
(388,171,l),
(388,276,l),
(54,276,l),
(54,171,l)
);
},
{
closed = 1;
nodes = (
(175,441,o),
(167,486,o),
(167,520,cs),
(167,560,o),
(175,605,o),
(221,605,cs),
(267,605,o),
(274,560,o),
(274,520,cs),
(274,486,o),
(267,441,o),
(221,441,cs)
);
}
);
width = 441;
},
{
layerId = "B950CEFC-B47C-4E26-91C8-4EFB806DAEDB";
shapes = (
{
closed = 1;
nodes = (
(315,339,o),
(370,402,o),
(370,521,c),
(370,646,o),
(315,710,o),
(220,710,c),
(125,710,o),
(70,646,o),
(70,521,c),
(70,402,o),
(125,339,o),
(220,339,c)
);
},
{
closed = 1;
nodes = (
(358,231,l),
(358,256,l),
(81,256,l),
(81,231,l)
);
},
{
closed = 1;
nodes = (
(144,361,o),
(94,406,o),
(94,521,cs),
(94,641,o),
(144,688,o),
(220,688,cs),
(296,688,o),
(346,641,o),
(346,521,cs),
(346,406,o),
(296,361,o),
(220,361,cs)
);
}
);
width = 440;
},
{
layerId = "38A022BC-B010-4522-83EC-9E43C5A6F806";
shapes = (
{
closed = 1;
nodes = (
(320,338,o),
(378,402,o),
(378,521,c),
(378,646,o),
(320,710,o),
(220,710,cs),
(120,710,o),
(62,646,o),
(62,521,c),
(62,402,o),
(120,338,o),
(220,338,c)
);
},
{
closed = 1;
nodes = (
(371,205,l),
(371,265,l),
(69,265,l),
(69,205,l)
);
},
{
closed = 1;
nodes = (
(157,395,o),
(125,440,o),
(125,521,cs),
(125,606,o),
(157,652,o),
(220,652,cs),
(284,652,o),
(315,606,o),
(315,521,cs),
(315,440,o),
(284,395,o),
(220,395,cs)
);
}
);
width = 440;
}
);
unicode = 186;
},
{
glyphname = zero;
lastChange = "2022-09-12 12:02:42 +0000";
layers = (
{
layerId = "DFC09A70-1A82-4D07-97CF-EECDCA771356";
shapes = (
{
closed = 1;
nodes = (
(201,135,o),
(168,233,o),
(168,350,cs),
(168,467,o),
(201,565,o),
(284,565,cs),
(367,565,o),
(400,467,o),
(400,350,cs),
(400,233,o),
(367,135,o),
(284,135,cs)
);
},
{
closed = 1;
nodes = (
(460,0,o),
(545,160,o),
(545,350,cs),
(545,540,o),
(460,700,o),
(284,700,cs),
(108,700,o),
(23,540,o),
(23,350,cs),
(23,160,o),
(108,0,o),
(284,0,cs)
);
}
);
width = 568;
},
{
layerId = "B950CEFC-B47C-4E26-91C8-4EFB806DAEDB";
shapes = (
{
closed = 1;
nodes = (
(135,16,o),
(93,187,o),
(93,350,cs),
(93,513,o),
(135,684,o),
(289,684,cs),
(443,684,o),
(485,513,o),
(485,350,cs),
(485,187,o),
(443,16,o),
(289,16,cs)
);
},
{
closed = 1;
nodes = (
(459,-10,o),
(511,170,o),
(511,350,cs),
(511,530,o),
(459,710,o),
(289,710,cs),
(119,710,o),
(67,530,o),
(67,350,cs),
(67,170,o),
(119,-10,o),
(289,-10,cs)
);
}
);
width = 578;
},
{
layerId = "38A022BC-B010-4522-83EC-9E43C5A6F806";
shapes = (
{
closed = 1;
nodes = (
(163,67,o),
(125,207,o),
(125,350,cs),
(125,493,o),
(163,633,o),
(287,633,cs),
(410,633,o),
(449,493,o),
(449,350,cs),
(449,207,o),
(410,67,o),
(287,67,cs)
);
},
{
closed = 1;
nodes = (
(459,-6,o),
(526,166,o),
(526,350,cs),
(526,534,o),
(459,706,o),
(287,706,cs),
(114,706,o),
(48,534,o),
(48,350,cs),
(48,166,o),
(114,-6,o),
(287,-6,cs)
);
}
);
width = 574;
}
);
unicode = 48;
},
{
glyphname = one;
lastChange = "2022-09-12 12:02:42 +0000";
layers = (
{
layerId = "DFC09A70-1A82-4D07-97CF-EECDCA771356";
shapes = (
{
closed = 1;
nodes = (
(189,0,l),
(334,0,l),
(334,700,l),
(200,700,l),
(26,602,l),
(26,448,l),
(189,542,l)
);
}
);
width = 392;
},
{
layerId = "B950CEFC-B47C-4E26-91C8-4EFB806DAEDB";
shapes = (
{
closed = 1;
nodes = (
(239,0,l),
(265,0,l),
(265,700,l),
(241,700,l),
(76,583,l),
(76,551,l),
(239,666,l)
);
}
);
width = 368;
},
{
layerId = "38A022BC-B010-4522-83EC-9E43C5A6F806";
shapes = (
{
closed = 1;
nodes = (
(218,0,l),
(295,0,l),
(295,700,l),
(223,700,l),
(55,591,l),
(55,507,l),
(218,613,l)
);
}
);
width = 378;
}
);
unicode = 49;
},
{
glyphname = two;
lastChange = "2022-09-12 12:02:42 +0000";
layers = (
{
layerId = "DFC09A70-1A82-4D07-97CF-EECDCA771356";
shapes = (
{
closed = 1;
nodes = (
(210,551,o),
(244,575,o),
(291,575,cs),
(339,575,o),
(372,546,o),
(372,485,cs),
(372,425,o),
(310,369,o),
(268,330,cs),
(49,130,l),
(49,0,l),
(518,0,l),
(518,135,l),
(259,135,l),
(371,235,ls),
(437,294,o),
(517,383,o),
(517,482,cs),
(517,603,o),
(445,710,o),
(297,710,cs),
(150,710,o),
(70,622,o),
(58,500,c),
(203,490,l)
);
}
);
width = 567;
},
{
layerId = "B950CEFC-B47C-4E26-91C8-4EFB806DAEDB";
shapes = (
{
closed = 1;
nodes = (
(119,599,o),
(185,674,o),
(299,674,cs),
(424,674,o),
(469,577,o),
(469,488,cs),
(469,382,o),
(330,280,o),
(284,232,cs),
(83,26,l),
(83,0,l),
(512,0,l),
(512,26,l),
(120,26,l),
(290,202,ls),
(345,259,o),
(495,368,o),
(495,488,cs),
(495,592,o),
(438,700,o),
(299,700,cs),
(148,700,o),
(93,586,o),
(90,481,c),
(116,481,l)
);
}
);
width = 587;
},
{
layerId = "38A022BC-B010-4522-83EC-9E43C5A6F806";
shapes = (
{
closed = 1;
nodes = (
(158,578,o),
(210,632,o),
(296,632,cs),
(388,632,o),
(427,564,o),
(427,487,cs),
(427,400,o),
(321,318,o),
(277,274,cs),
(68,71,l),
(68,0,l),
(515,0,l),
(515,73,l),
(180,73,l),
(325,216,ls),
(384,274,o),
(504,374,o),
(504,485,cs),
(504,597,o),
(441,704,o),
(298,704,cs),
(149,704,o),
(83,601,o),
(76,489,c),
(153,485,l)
);
}
);
width = 578;
}
);
unicode = 50;
},
{
glyphname = three;
lastChange = "2022-09-12 12:02:42 +0000";
layers = (
{
layerId = "DFC09A70-1A82-4D07-97CF-EECDCA771356";
shapes = (
{
closed = 1;
nodes = (
(23,64,o),
(123,-10,o),
(267,-10,cs),
(424,-10,o),
(513,78,o),
(513,210,cs),
(513,288,o),
(475,342,o),
(409,368,c),
(457,392,o),
(490,440,o),
(490,506,cs),
(490,635,o),
(392,710,o),
(265,710,cs),
(150,710,o),
(57,642,o),
(41,537,c),
(183,511,l),
(187,554,o),
(218,575,o),
(265,575,cs),
(325,575,o),
(346,536,o),
(346,494,cs),
(346,428,o),
(295,414,o),
(237,414,cs),
(202,414,l),
(202,304,l),
(236,304,ls),
(304,304,o),
(369,295,o),
(369,218,cs),
(369,161,o),
(333,125,o),
(259,125,cs),
(189,125,o),
(159,164,o),
(156,207,c),
(12,191,l)
);
}
);
width = 559;
},
{
layerId = "B950CEFC-B47C-4E26-91C8-4EFB806DAEDB";
shapes = (
{
closed = 1;
nodes = (
(69,61,o),
(153,-10,o),
(289,-10,cs),
(433,-10,o),
(490,87,o),
(490,195,cs),
(490,294,o),
(401,354,o),
(341,362,c),
(397,373,o),
(461,422,o),
(461,526,cs),
(461,628,o),
(411,710,o),
(285,710,cs),
(167,710,o),
(97,630,o),
(95,508,c),
(121,508,l),
(123,597,o),
(166,684,o),
(285,684,cs),
(401,684,o),
(435,606,o),
(435,526,cs),
(435,444,o),
(385,377,o),
(295,377,cs),
(269,377,l),
(269,343,l),
(298,343,ls),
(392,343,o),
(464,271,o),
(464,195,cs),
(464,107,o),
(422,16,o),
(289,16,cs),
(161,16,o),
(95,84,o),
(93,200,c),
(67,200,l)
);
}
);
width = 595;
},
{
layerId = "38A022BC-B010-4522-83EC-9E43C5A6F806";
shapes = (
{
closed = 1;
nodes = (
(49,62,o),
(140,-10,o),
(280,-10,cs),
(429,-10,o),
(500,83,o),
(500,201,cs),
(500,291,o),
(433,349,o),
(370,365,c),
(423,381,o),
(473,430,o),
(473,517,cs),
(473,631,o),
(403,710,o),
(276,710,cs),
(160,710,o),
(80,635,o),
(72,520,c),
(148,509,l),
(150,579,o),
(188,637,o),
(276,637,cs),
(368,637,o),
(397,576,o),
(397,512,cs),
(397,437,o),
(346,393,o),
(270,393,cs),
(240,393,l),
(240,326,l),
(271,326,ls),
(354,326,o),
(423,281,o),
(423,205,cs),
(423,130,o),
(384,63,o),
(276,63,cs),
(173,63,o),
(122,118,o),
(120,203,c),
(43,196,l)
);
}
);
width = 580;
}
);
unicode = 51;
},
{
glyphname = four;
lastChange = "2022-09-12 12:02:42 +0000";
layers = (
{
layerId = "DFC09A70-1A82-4D07-97CF-EECDCA771356";
shapes = (
{
closed = 1;
nodes = (
(303,0,l),
(448,0,l),
(448,156,l),
(553,156,l),
(553,291,l),
(448,291,l),
(448,416,l),
(303,416,l),
(303,291,l),
(173,291,l),
(386,700,l),
(235,700,l),
(23,291,l),
(23,156,l),
(303,156,l)
);
}
);
width = 577;
},
{
layerId = "B950CEFC-B47C-4E26-91C8-4EFB806DAEDB";
shapes = (
{
closed = 1;
nodes = (
(323,0,l),
(349,0,l),
(349,214,l),
(508,214,l),
(508,240,l),
(349,240,l),
(349,416,l),
(323,416,l),
(323,240,l),
(73,240,l),
(267,700,l),
(239,700,l),
(45,240,l),
(45,214,l),
(323,214,l)
);
}
);
width = 556;
},
{
layerId = "38A022BC-B010-4522-83EC-9E43C5A6F806";
shapes = (
{
closed = 1;
nodes = (
(314,0,l),
(391,0,l),
(391,189,l),
(527,189,l),
(527,262,l),
(391,262,l),
(391,416,l),
(314,416,l),
(314,262,l),
(116,262,l),
(318,700,l),
(237,700,l),
(36,262,l),
(36,189,l),
(314,189,l)
);
}
);
width = 565;
}
);
unicode = 52;
},
{
glyphname = five;
lastChange = "2022-09-12 12:02:42 +0000";
layers = (
{
layerId = "DFC09A70-1A82-4D07-97CF-EECDCA771356";
shapes = (
{
closed = 1;
nodes = (
(457,-10,o),
(542,103,o),
(542,239,cs),
(542,383,o),
(475,483,o),
(345,483,cs),
(240,483,o),
(205,417,o),
(205,417,c),
(217,565,l),
(498,565,l),
(498,700,l),
(83,700,l),
(54,287,l),
(194,287,l),
(208,333,o),
(254,355,o),
(295,355,cs),
(357,355,o),
(397,309,o),
(397,239,cs),
(397,181,o),
(361,125,o),
(289,125,cs),
(243,125,o),
(195,148,o),
(184,185,c),
(35,185,l),
(51,79,o),
(136,-10,o),
(279,-10,cs)
);
}
);
width = 570;
},
{
layerId = "B950CEFC-B47C-4E26-91C8-4EFB806DAEDB";
shapes = (
{
closed = 1;
nodes = (
(435,-10,o),
(502,95,o),
(502,239,cs),
(502,373,o),
(435,457,o),
(295,457,cs),
(217,457,o),
(150,431,o),
(126,345,c),
(160,674,l),
(461,674,l),
(461,700,l),
(136,700,l),
(99,304,l),
(126,304,l),
(152,385,o),
(201,431,o),
(295,431,cs),
(406,431,o),
(476,373,o),
(476,239,cs),
(476,95,o),
(409,16,o),
(295,16,cs),
(164,16,o),
(117,99,o),
(104,209,c),
(80,209,l),
(91,82,o),
(154,-10,o),
(295,-10,cs)
);
}
);
width = 592;
},
{
layerId = "38A022BC-B010-4522-83EC-9E43C5A6F806";
shapes = (
{
closed = 1;
nodes = (
(444,-10,o),
(519,98,o),
(519,239,cs),
(519,377,o),
(452,468,o),
(316,468,cs),
(227,468,o),
(174,425,o),
(160,376,c),
(184,627,l),
(477,627,l),
(477,700,l),
(113,700,l),
(80,297,l),
(155,297,l),
(176,363,o),
(224,398,o),
(295,398,cs),
(385,398,o),
(442,346,o),
(442,239,cs),
(442,132,o),
(388,63,o),
(292,63,cs),
(198,63,o),
(150,120,o),
(138,199,c),
(61,199,l),
(74,81,o),
(146,-10,o),
(288,-10,cs)
);
}
);
width = 583;
}
);
unicode = 53;
},
{
glyphname = six;
lastChange = "2022-09-12 12:02:42 +0000";
layers = (
{
layerId = "DFC09A70-1A82-4D07-97CF-EECDCA771356";
shapes = (
{
closed = 1;
nodes = (
(227,125,o),
(187,170,o),
(187,241,cs),
(187,308,o),
(223,362,o),
(290,362,cs),
(358,362,o),
(395,308,o),
(395,241,cs),
(395,176,o),
(361,125,o),
(290,125,cs)
);
},
{
closed = 1;
nodes = (
(447,-10,o),
(540,102,o),
(540,241,cs),
(540,379,o),
(458,461,o),
(348,461,cs),
(317,461,o),
(280,455,o),
(252,439,c),
(398,700,l),
(239,700,l),
(87,406,ls),
(63,360,o),
(42,297,o),
(42,241,cs),
(42,102,o),
(135,-10,o),
(290,-10,cs)
);
}
);
width = 566;
},
{
layerId = "B950CEFC-B47C-4E26-91C8-4EFB806DAEDB";
shapes = (
{
closed = 1;
nodes = (
(180,11,o),
(109,107,o),
(109,229,cs),
(109,371,o),
(213,431,o),
(310,431,cs),
(443,431,o),
(504,324,o),
(504,220,cs),
(504,97,o),
(432,11,o),
(306,11,cs)
);
},
{
closed = 1;
nodes = (
(453,-15,o),
(530,90,o),
(530,220,cs),
(530,351,o),
(445,457,o),
(318,457,cs),
(250,457,o),
(185,428,o),
(161,401,c),
(336,700,l),
(306,700,l),
(141,416,ls),
(108,359,o),
(83,293,o),
(83,229,cs),
(83,100,o),
(159,-15,o),
(306,-15,cs)
);
}
);
width = 615;
},
{
layerId = "38A022BC-B010-4522-83EC-9E43C5A6F806";
shapes = (
{
closed = 1;
nodes = (
(200,60,o),
(142,134,o),
(142,234,cs),
(142,344,o),
(217,401,o),
(301,401,cs),
(407,401,o),
(457,317,o),
(457,229,cs),
(457,131,o),
(402,60,o),
(299,60,cs)
);
},
{
closed = 1;
nodes = (
(450,-13,o),
(534,95,o),
(534,229,cs),
(534,363,o),
(451,459,o),
(331,459,cs),
(279,459,o),
(226,440,o),
(200,417,c),
(363,700,l),
(277,700,l),
(118,412,ls),
(89,359,o),
(65,295,o),
(65,234,cs),
(65,101,o),
(149,-13,o),
(299,-13,cs)
);
}
);
width = 594;
}
);
unicode = 54;
},
{
glyphname = seven;
kernLeft = "9";
lastChange = "2022-09-12 12:02:42 +0000";
layers = (
{
layerId = "DFC09A70-1A82-4D07-97CF-EECDCA771356";
shapes = (
{
closed = 1;
nodes = (
(101,0,l),
(263,0,l),
(510,565,l),
(510,700,l),
(41,700,l),
(41,565,l),
(357,565,l)
);
}
);
width = 548;
},
{
layerId = "B950CEFC-B47C-4E26-91C8-4EFB806DAEDB";
shapes = (
{
closed = 1;
nodes = (
(210,0,l),
(239,0,l),
(493,674,l),
(493,700,l),
(73,700,l),
(73,674,l),
(467,674,l)
);
}
);
width = 577;
},
{
layerId = "38A022BC-B010-4522-83EC-9E43C5A6F806";
shapes = (
{
closed = 1;
nodes = (
(163,0,l),
(249,0,l),
(500,627,l),
(500,700,l),
(59,700,l),
(59,627,l),
(420,627,l)
);
}
);
width = 565;
}
);
unicode = 55;
},
{
glyphname = eight;
lastChange = "2022-09-12 12:02:42 +0000";
layers = (
{
layerId = "DFC09A70-1A82-4D07-97CF-EECDCA771356";
shapes = (
{
closed = 1;
nodes = (
(437,-10,o),
(562,63,o),
(562,208,cs),
(562,275,o),
(523,332,o),
(460,368,c),
(500,403,o),
(531,438,o),
(531,506,cs),
(531,629,o),
(422,710,o),
(301,710,cs),
(178,710,o),
(70,629,o),
(70,506,cs),
(70,438,o),
(101,403,o),
(141,368,c),
(78,332,o),
(38,275,o),
(38,209,cs),
(38,63,o),
(164,-10,o),
(301,-10,cs)
);
},
{
closed = 1;
nodes = (
(239,125,o),
(183,150,o),
(183,209,cs),
(183,264,o),
(226,295,o),
(301,295,cs),
(374,295,o),
(417,264,o),
(417,209,cs),
(417,150,o),
(363,125,o),
(301,125,cs)
);
},
{
closed = 1;
nodes = (
(247,432,o),
(210,461,o),
(210,506,cs),
(210,548,o),
(248,575,o),
(301,575,cs),
(353,575,o),
(390,548,o),
(390,506,cs),
(390,461,o),
(354,432,o),
(301,432,cs)
);
}
);
width = 600;
},
{
layerId = "B950CEFC-B47C-4E26-91C8-4EFB806DAEDB";
shapes = (
{
closed = 1;
nodes = (
(431,-10,o),
(517,63,o),
(517,192,cs),
(517,334,o),
(363,367,o),
(373,367,c),
(373,367,o),
(492,403,o),
(492,525,cs),
(492,642,o),
(413,710,o),
(294,710,cs),
(176,710,o),
(95,642,o),
(95,525,cs),
(95,404,o),
(214,368,o),
(217,367,c),
(211,365,o),
(68,334,o),
(68,192,cs),
(68,63,o),
(157,-10,o),
(294,-10,cs)
);
},
{
closed = 1;
nodes = (
(187,16,o),
(94,65,o),
(94,192,cs),
(94,319,o),
(223,353,o),
(294,353,cs),
(365,353,o),
(491,319,o),
(491,192,cs),
(491,65,o),
(401,16,o),
(294,16,cs)
);
},
{
closed = 1;
nodes = (
(230,376,o),
(121,417,o),
(121,525,cs),
(121,637,o),
(202,684,o),
(294,684,cs),
(386,684,o),
(466,637,o),
(466,525,cs),
(466,417,o),
(359,376,o),
(294,376,cs)
);
}
);
width = 585;
},
{
layerId = "38A022BC-B010-4522-83EC-9E43C5A6F806";
shapes = (
{
closed = 1;
nodes = (
(434,-10,o),
(536,63,o),
(536,199,cs),
(536,309,o),
(432,352,o),
(410,367,c),
(427,382,o),
(509,418,o),
(509,517,cs),
(509,636,o),
(417,710,o),
(297,710,cs),
(177,710,o),
(84,636,o),
(84,517,cs),
(84,419,o),
(166,383,o),
(184,367,c),
(154,351,o),
(55,309,o),
(55,199,cs),
(55,63,o),
(160,-10,o),
(297,-10,cs)
);
},
{
closed = 1;
nodes = (
(209,63,o),
(132,101,o),
(132,199,cs),
(132,295,o),
(224,328,o),
(297,328,cs),
(369,328,o),
(459,295,o),
(459,199,cs),
(459,101,o),
(385,63,o),
(297,63,cs)
);
},
{
closed = 1;
nodes = (
(237,400,o),
(159,436,o),
(159,517,cs),
(159,599,o),
(222,637,o),
(297,637,cs),
(372,637,o),
(433,599,o),
(433,517,cs),
(433,436,o),
(357,400,o),
(297,400,cs)
);
}
);
width = 591;
}
);
unicode = 56;
},
{
glyphname = nine;
kernLeft = "9";
lastChange = "2022-09-12 12:02:42 +0000";
layers = (
{
layerId = "DFC09A70-1A82-4D07-97CF-EECDCA771356";
shapes = (
{
closed = 1;
nodes = (
(339,575,o),
(379,530,o),
(379,459,cs),
(379,392,o),
(343,338,o),
(276,338,cs),
(208,338,o),
(171,392,o),
(171,459,cs),
(171,524,o),
(205,575,o),
(276,575,cs)
);
},
{
closed = 1;
nodes = (
(119,710,o),
(26,598,o),
(26,459,cs),
(26,321,o),
(108,239,o),
(218,239,cs),
(249,239,o),
(286,245,o),
(314,261,c),
(168,0,l),
(327,0,l),
(479,294,ls),
(503,340,o),
(524,403,o),
(524,459,cs),
(524,598,o),
(431,710,o),
(276,710,cs)
);
}
);
width = 548;
},
{
layerId = "B950CEFC-B47C-4E26-91C8-4EFB806DAEDB";
shapes = (
{
closed = 1;
nodes = (
(437,684,o),
(508,588,o),
(508,466,cs),
(508,324,o),
(404,264,o),
(307,264,cs),
(174,264,o),
(113,371,o),
(113,475,cs),
(113,598,o),
(185,684,o),
(311,684,cs)
);
},
{
closed = 1;
nodes = (
(164,710,o),
(87,605,o),
(87,475,cs),
(87,344,o),
(172,238,o),
(299,238,cs),
(367,238,o),
(432,267,o),
(456,294,c),
(284,0,l),
(314,0,l),
(476,279,ls),
(509,336,o),
(534,402,o),
(534,466,cs),
(534,595,o),
(458,710,o),
(311,710,cs)
);
}
);
width = 614;
},
{
layerId = "38A022BC-B010-4522-83EC-9E43C5A6F806";
shapes = (
{
closed = 1;
nodes = (
(395,637,o),
(453,563,o),
(453,463,cs),
(453,353,o),
(378,296,o),
(294,296,cs),
(189,296,o),
(138,380,o),
(138,468,cs),
(138,566,o),
(194,637,o),
(296,637,cs)
);
},
{
closed = 1;
nodes = (
(145,710,o),
(61,602,o),
(61,468,cs),
(61,334,o),
(145,238,o),
(264,238,cs),
(316,238,o),
(369,258,o),
(395,280,c),
(234,0,l),
(320,0,l),
(477,285,ls),
(506,338,o),
(530,402,o),
(530,463,cs),
(530,596,o),
(446,710,o),
(296,710,cs)
);
}
);
width = 586;
}
);
unicode = 57;
},
{
glyphname = zero.zero;
lastChange = "2022-09-12 12:02:42 +0000";
layers = (
{
layerId = "DFC09A70-1A82-4D07-97CF-EECDCA771356";
shapes = (
{
closed = 1;
nodes = (
(118,104,l),
(193,45,l),
(456,606,l),
(381,665,l)
);
},
{
ref = zero;
}
);
width = 568;
},
{
layerId = "B950CEFC-B47C-4E26-91C8-4EFB806DAEDB";
shapes = (
{
closed = 1;
nodes = (
(148,74,l),
(173,65,l),
(436,626,l),
(411,635,l)
);
},
{
ref = zero;
}
);
width = 578;
},
{
layerId = "38A022BC-B010-4522-83EC-9E43C5A6F806";
shapes = (
{
closed = 1;
nodes = (
(135,87,l),
(182,56,l),
(445,617,l),
(398,648,l)
);
},
{
alignment = -1;
ref = zero;
}
);
width = 574;
}
);
metricLeft = zero;
metricRight = zero;
},
{
glyphname = one.tf;
lastChange = "2022-09-12 12:02:42 +0000";
layers = (
{
layerId = "DFC09A70-1A82-4D07-97CF-EECDCA771356";
shapes = (
{
closed = 1;
nodes = (
(81,0,l),
(519,0,l),
(519,135,l),
(81,135,l)
);
},
{
pos = (57,0);
ref = one;
}
);
width = 600;
},
{
layerId = "B950CEFC-B47C-4E26-91C8-4EFB806DAEDB";
shapes = (
{
closed = 1;
nodes = (
(142,0,l),
(483,0,l),
(483,26,l),
(142,26,l)
);
},
{
pos = (61,0);
ref = one;
}
);
width = 560;
},
{
layerId = "38A022BC-B010-4522-83EC-9E43C5A6F806";
shapes = (
{
closed = 1;
nodes = (
(116,0,l),
(498,0,l),
(498,73,l),
(116,73,l)
);
},
{
alignment = -1;
pos = (59,0);
ref = one;
}
);
width = 577;
}
);
},
{
glyphname = zero.dnom;
lastChange = "2022-09-12 12:02:42 +0000";
layers = (
{
layerId = "DFC09A70-1A82-4D07-97CF-EECDCA771356";
shapes = (
{
closed = 1;
nodes = (
(150,87,o),
(133,130,o),
(133,198,cs),
(133,266,o),
(150,309,o),
(188,309,cs),
(226,309,o),
(243,266,o),
(243,198,cs),
(243,130,o),
(226,87,o),
(188,87,cs)
);
},
{
closed = 1;
nodes = (
(290,-5,o),
(339,88,o),
(339,198,cs),
(339,308,o),
(290,401,o),
(188,401,cs),
(86,401,o),
(37,308,o),
(37,198,cs),
(37,88,o),
(86,-5,o),
(188,-5,cs)
);
}
);
width = 376;
},
{
layerId = "B950CEFC-B47C-4E26-91C8-4EFB806DAEDB";
shapes = (
{
closed = 1;
nodes = (
(92,21,o),
(70,106,o),
(70,198,cs),
(70,290,o),
(92,375,o),
(169,375,cs),
(246,375,o),
(268,290,o),
(268,198,cs),
(268,106,o),
(246,21,o),
(169,21,cs)
);
},
{
closed = 1;
nodes = (
(265,-5,o),
(294,96,o),
(294,198,cs),
(294,299,o),
(265,401,o),
(169,401,cs),
(73,401,o),
(44,299,o),
(44,198,cs),
(44,96,o),
(73,-5,o),
(169,-5,cs)
);
}
);
width = 338;
},
{
layerId = "38A022BC-B010-4522-83EC-9E43C5A6F806";
shapes = (
{
closed = 1;
nodes = (
(117,49,o),
(97,116,o),
(97,198,cs),
(97,280,o),
(117,347,o),
(177,347,cs),
(237,347,o),
(257,280,o),
(257,198,cs),
(257,116,o),
(237,49,o),
(177,49,cs)
);
},
{
closed = 1;
nodes = (
(276,-5,o),
(313,93,o),
(313,198,cs),
(313,303,o),
(276,401,o),
(177,401,cs),
(79,401,o),
(41,303,o),
(41,198,cs),
(41,93,o),
(79,-5,o),
(177,-5,cs)
);
}
);
width = 354;
}
);
},
{
glyphname = one.dnom;
lastChange = "2022-09-12 12:02:42 +0000";
layers = (
{
layerId = "DFC09A70-1A82-4D07-97CF-EECDCA771356";
shapes = (
{
closed = 1;
nodes = (
(114,0,l),
(210,0,l),
(210,396,l),
(120,396,l),
(24,341,l),
(24,246,l),
(114,300,l)
);
}
);
width = 264;
},
{
layerId = "B950CEFC-B47C-4E26-91C8-4EFB806DAEDB";
shapes = (
{
closed = 1;
nodes = (
(120,0,l),
(146,0,l),
(146,396,l),
(121,396,l),
(28,330,l),
(28,300,l),
(120,365,l)
);
}
);
width = 204;
},
{
layerId = "38A022BC-B010-4522-83EC-9E43C5A6F806";
shapes = (
{
closed = 1;
nodes = (
(117,0,l),
(173,0,l),
(173,396,l),
(121,396,l),
(26,335,l),
(26,277,l),
(117,337,l)
);
}
);
width = 230;
}
);
},
{
glyphname = two.dnom;
lastChange = "2022-09-12 12:02:42 +0000";
layers = (
{
layerId = "DFC09A70-1A82-4D07-97CF-EECDCA771356";
shapes = (
{
closed = 1;
nodes = (
(126,281,o),
(137,309,o),
(174,309,cs),
(200,309,o),
(213,291,o),
(213,274,cs),
(213,246,o),
(130,179,o),
(105,156,cs),
(33,89,l),
(33,0,l),
(303,0,l),
(303,92,l),
(168,92,l),
(204,128,ls),
(242,166,o),
(309,212,o),
(309,272,cs),
(309,341,o),
(256,401,o),
(173,401,cs),
(82,401,o),
(35,336,o),
(28,267,c),
(124,259,l)
);
}
);
width = 336;
},
{
layerId = "B950CEFC-B47C-4E26-91C8-4EFB806DAEDB";
shapes = (
{
closed = 1;
nodes = (
(65,339,o),
(102,375,o),
(158,375,cs),
(220,375,o),
(250,334,o),
(250,291,cs),
(250,236,o),
(148,143,o),
(128,123,cs),
(34,26,l),
(34,0,l),
(280,0,l),
(280,26,l),
(70,26,l),
(147,105,ls),
(171,130,o),
(276,224,o),
(276,291,cs),
(276,343,o),
(238,401,o),
(158,401,cs),
(71,401,o),
(40,335,o),
(38,276,c),
(64,276,l)
);
}
);
width = 314;
},
{
layerId = "38A022BC-B010-4522-83EC-9E43C5A6F806";
shapes = (
{
closed = 1;
nodes = (
(91,314,o),
(117,347,o),
(165,347,cs),
(211,347,o),
(234,316,o),
(234,284,cs),
(234,240,o),
(140,158,o),
(118,137,cs),
(34,53,l),
(34,0,l),
(290,0,l),
(290,54,l),
(112,54,l),
(171,115,ls),
(201,145,o),
(290,219,o),
(290,283,cs),
(290,342,o),
(246,401,o),
(164,401,cs),
(76,401,o),
(38,335,o),
(34,272,c),
(90,269,l)
);
}
);
width = 323;
}
);
},
{
glyphname = three.dnom;
lastChange = "2022-09-12 12:02:42 +0000";
layers = (
{
layerId = "DFC09A70-1A82-4D07-97CF-EECDCA771356";
shapes = (
{
closed = 1;
nodes = (
(37,52,o),
(105,-5,o),
(187,-5,cs),
(272,-5,o),
(336,49,o),
(336,120,cs),
(336,165,o),
(311,196,o),
(274,211,c),
(301,224,o),
(320,252,o),
(320,289,cs),
(320,363,o),
(264,406,o),
(181,406,cs),
(95,406,o),
(53,342,o),
(47,292,c),
(136,277,l),
(137,300,o),
(154,316,o),
(181,316,cs),
(215,316,o),
(228,300,o),
(228,276,cs),
(228,252,o),
(209,242,o),
(165,242,cs),
(145,242,l),
(145,169,l),
(164,169,ls),
(203,169,o),
(241,164,o),
(241,130,cs),
(241,101,o),
(216,87,o),
(179,87,cs),
(144,87,o),
(125,109,o),
(123,134,c),
(30,124,l)
);
}
);
width = 359;
},
{
layerId = "B950CEFC-B47C-4E26-91C8-4EFB806DAEDB";
shapes = (
{
closed = 1;
nodes = (
(37,41,o),
(95,0,o),
(162,0,cs),
(245,0,o),
(287,55,o),
(287,107,cs),
(287,176,o),
(236,208,o),
(202,212,c),
(234,219,o),
(271,257,o),
(271,306,cs),
(271,364,o),
(232,411,o),
(160,411,cs),
(103,411,o),
(53,365,o),
(52,296,c),
(77,296,l),
(78,346,o),
(110,385,o),
(160,385,cs),
(216,385,o),
(245,352,o),
(245,306,cs),
(245,264,o),
(212,226,o),
(166,226,cs),
(151,226,l),
(151,197,l),
(168,197,ls),
(216,197,o),
(261,167,o),
(261,107,cs),
(261,67,o),
(228,26,o),
(162,26,cs),
(111,26,o),
(62,54,o),
(61,120,c),
(36,120,l)
);
}
);
width = 318;
},
{
layerId = "38A022BC-B010-4522-83EC-9E43C5A6F806";
shapes = (
{
closed = 1;
nodes = (
(37,46,o),
(99,-2,o),
(173,-2,cs),
(257,-2,o),
(308,52,o),
(308,113,cs),
(308,171,o),
(268,203,o),
(233,212,c),
(263,221,o),
(292,255,o),
(292,299,cs),
(292,364,o),
(246,409,o),
(169,409,cs),
(100,409,o),
(53,355,o),
(50,294,c),
(102,288,l),
(103,326,o),
(129,355,o),
(169,355,cs),
(216,355,o),
(238,330,o),
(238,293,cs),
(238,259,o),
(211,233,o),
(166,233,cs),
(148,233,l),
(148,185,l),
(166,185,ls),
(210,185,o),
(252,166,o),
(252,117,cs),
(252,82,o),
(223,52,o),
(169,52,cs),
(125,52,o),
(89,78,o),
(88,126,c),
(33,122,l)
);
}
);
width = 336;
}
);
},
{
glyphname = four.dnom;
lastChange = "2022-09-12 12:02:42 +0000";
layers = (
{
layerId = "DFC09A70-1A82-4D07-97CF-EECDCA771356";
shapes = (
{
closed = 1;
nodes = (
(204,0,l),
(290,0,l),
(290,78,l),
(349,78,l),
(349,170,l),
(290,170,l),
(290,240,l),
(204,240,l),
(204,170,l),
(130,170,l),
(251,396,l),
(147,396,l),
(27,170,l),
(27,78,l),
(204,78,l)
);
}
);
width = 370;
},
{
layerId = "B950CEFC-B47C-4E26-91C8-4EFB806DAEDB";
shapes = (
{
closed = 1;
nodes = (
(184,0,l),
(208,0,l),
(208,109,l),
(293,109,l),
(293,135,l),
(208,135,l),
(208,226,l),
(184,226,l),
(184,135,l),
(59,135,l),
(168,396,l),
(141,396,l),
(31,135,l),
(31,109,l),
(184,109,l)
);
}
);
width = 320;
},
{
layerId = "38A022BC-B010-4522-83EC-9E43C5A6F806";
shapes = (
{
closed = 1;
nodes = (
(193,0,l),
(243,0,l),
(243,96,l),
(317,96,l),
(317,150,l),
(243,150,l),
(243,232,l),
(193,232,l),
(193,150,l),
(89,150,l),
(204,396,l),
(144,396,l),
(29,150,l),
(29,96,l),
(193,96,l)
);
}
);
width = 341;
}
);
},
{
glyphname = five.dnom;
lastChange = "2022-09-12 12:02:42 +0000";
layers = (
{
layerId = "DFC09A70-1A82-4D07-97CF-EECDCA771356";
shapes = (
{
closed = 1;
nodes = (
(270,-5,o),
(326,59,o),
(326,136,cs),
(326,217,o),
(281,273,o),
(207,273,cs),
(148,273,o),
(128,236,o),
(128,236,c),
(135,304,l),
(293,304,l),
(293,396,l),
(49,396,l),
(33,163,l),
(122,163,l),
(139,189,o),
(156,194,o),
(179,194,cs),
(211,194,o),
(230,171,o),
(230,140,cs),
(230,112,o),
(213,84,o),
(175,84,cs),
(144,84,o),
(126,108,o),
(126,129,c),
(32,129,l),
(32,57,o),
(89,-5,o),
(170,-5,cs)
);
}
);
width = 354;
},
{
layerId = "B950CEFC-B47C-4E26-91C8-4EFB806DAEDB";
shapes = (
{
closed = 1;
nodes = (
(239,-5,o),
(276,54,o),
(276,135,c),
(276,202,o),
(238,259,o),
(159,259,cs),
(124,259,o),
(92,249,o),
(74,221,c),
(89,370,l),
(253,370,l),
(253,396,l),
(66,396,l),
(46,173,l),
(73,173,l),
(88,219,o),
(107,234,o),
(159,234,cs),
(212,234,o),
(250,196,o),
(250,135,cs),
(250,61,o),
(215,21,o),
(159,21,cs),
(99,21,o),
(71,57,o),
(64,119,c),
(38,119,l),
(44,47,o),
(80,-5,o),
(159,-5,cs)
);
}
);
width = 308;
},
{
layerId = "38A022BC-B010-4522-83EC-9E43C5A6F806";
shapes = (
{
closed = 1;
nodes = (
(252,-5,o),
(297,56,o),
(297,135,cs),
(297,208,o),
(256,265,o),
(180,265,cs),
(134,265,o),
(107,243,o),
(97,227,c),
(109,342,l),
(270,342,l),
(270,396,l),
(59,396,l),
(40,169,l),
(94,169,l),
(110,206,o),
(128,217,o),
(168,217,cs),
(212,217,o),
(241,185,o),
(241,137,cs),
(241,83,o),
(214,48,o),
(166,48,cs),
(118,48,o),
(95,79,o),
(91,123,c),
(35,123,l),
(39,51,o),
(84,-5,o),
(164,-5,cs)
);
}
);
width = 328;
}
);
},
{
glyphname = six.dnom;
lastChange = "2022-09-12 12:02:42 +0000";
layers = (
{
layerId = "DFC09A70-1A82-4D07-97CF-EECDCA771356";
shapes = (
{
closed = 1;
nodes = (
(155,87,o),
(133,106,o),
(133,137,cs),
(133,166,o),
(153,189,o),
(182,189,cs),
(211,189,o),
(232,166,o),
(232,137,cs),
(232,109,o),
(213,87,o),
(182,87,cs)
);
},
{
closed = 1;
nodes = (
(270,-5,o),
(328,59,o),
(328,137,cs),
(328,215,o),
(282,261,o),
(220,261,cs),
(209,261,o),
(187,260,o),
(176,257,c),
(253,396,l),
(153,396,l),
(62,230,ls),
(48,204,o),
(37,169,o),
(37,137,cs),
(37,59,o),
(95,-5,o),
(182,-5,cs)
);
}
);
width = 365;
},
{
layerId = "B950CEFC-B47C-4E26-91C8-4EFB806DAEDB";
shapes = (
{
closed = 1;
nodes = (
(105,21,o),
(69,70,o),
(69,132,cs),
(69,204,o),
(122,234,o),
(171,234,cs),
(239,234,o),
(270,180,o),
(270,127,cs),
(270,65,o),
(233,21,o),
(169,21,cs)
);
},
{
closed = 1;
nodes = (
(251,-5,o),
(295,54,o),
(295,127,cs),
(295,200,o),
(247,260,o),
(176,260,cs),
(152,260,o),
(128,254,o),
(111,245,c),
(198,396,l),
(169,396,l),
(77,237,ls),
(58,205,o),
(44,168,o),
(44,132,cs),
(44,60,o),
(87,-5,o),
(169,-5,cs)
);
}
);
width = 339;
},
{
layerId = "38A022BC-B010-4522-83EC-9E43C5A6F806";
shapes = (
{
closed = 1;
nodes = (
(126,49,o),
(96,85,o),
(96,134,cs),
(96,188,o),
(135,215,o),
(176,215,cs),
(227,215,o),
(254,174,o),
(254,131,cs),
(254,84,o),
(224,49,o),
(175,49,cs)
);
},
{
closed = 1;
nodes = (
(259,-5,o),
(309,56,o),
(309,131,cs),
(309,206,o),
(262,260,o),
(195,260,cs),
(176,260,o),
(153,257,o),
(139,250,c),
(222,396,l),
(162,396,l),
(71,234,ls),
(54,205,o),
(41,168,o),
(41,134,cs),
(41,60,o),
(90,-5,o),
(175,-5,cs)
);
}
);
width = 350;
}
);
},
{
glyphname = seven.dnom;
lastChange = "2022-09-12 12:02:42 +0000";
layers = (
{
layerId = "DFC09A70-1A82-4D07-97CF-EECDCA771356";
shapes = (
{
closed = 1;
nodes = (
(62,0,l),
(170,0,l),
(309,304,l),
(309,396,l),
(28,396,l),
(28,304,l),
(202,304,l)
);
}
);
width = 327;
},
{
layerId = "B950CEFC-B47C-4E26-91C8-4EFB806DAEDB";
shapes = (
{
closed = 1;
nodes = (
(110,0,l),
(139,0,l),
(283,367,l),
(283,396,l),
(32,396,l),
(32,370,l),
(255,370,l)
);
}
);
width = 304;
},
{
layerId = "38A022BC-B010-4522-83EC-9E43C5A6F806";
shapes = (
{
closed = 1;
nodes = (
(89,0,l),
(152,0,l),
(294,340,l),
(294,396,l),
(30,396,l),
(30,342,l),
(232,342,l)
);
}
);
width = 314;
}
);
},
{
glyphname = eight.dnom;
lastChange = "2022-09-12 12:02:42 +0000";
layers = (
{
layerId = "DFC09A70-1A82-4D07-97CF-EECDCA771356";
shapes = (
{
closed = 1;
nodes = (
(265,-5,o),
(336,34,o),
(336,117,cs),
(336,155,o),
(314,187,o),
(278,211,c),
(301,229,o),
(318,249,o),
(318,293,cs),
(318,357,o),
(256,406,o),
(187,406,cs),
(117,406,o),
(55,357,o),
(55,293,cs),
(55,249,o),
(73,229,o),
(95,211,c),
(60,187,o),
(37,155,o),
(37,117,cs),
(37,34,o),
(109,-5,o),
(187,-5,cs)
);
},
{
closed = 1;
nodes = (
(157,85,o),
(131,99,o),
(131,124,cs),
(131,148,o),
(149,167,o),
(187,167,cs),
(224,167,o),
(242,148,o),
(242,124,cs),
(242,99,o),
(217,85,o),
(187,85,cs)
);
},
{
closed = 1;
nodes = (
(160,252,o),
(145,266,o),
(145,284,cs),
(145,302,o),
(161,316,o),
(187,316,cs),
(212,316,o),
(227,302,o),
(227,284,cs),
(227,266,o),
(212,252,o),
(187,252,cs)
);
}
);
width = 373;
},
{
layerId = "B950CEFC-B47C-4E26-91C8-4EFB806DAEDB";
shapes = (
{
closed = 1;
nodes = (
(249,-5,o),
(298,37,o),
(298,111,cs),
(298,194,o),
(212,210,o),
(217,210,c),
(217,210,o),
(285,229,o),
(285,301,cs),
(285,368,o),
(235,406,o),
(173,406,cs),
(109,406,o),
(59,368,o),
(59,301,cs),
(59,229,o),
(126,210,o),
(128,210,c),
(125,209,o),
(44,194,o),
(44,111,cs),
(44,37,o),
(95,-5,o),
(173,-5,cs)
);
},
{
closed = 1;
nodes = (
(113,21,o),
(70,49,o),
(70,111,cs),
(70,175,o),
(131,194,o),
(173,194,cs),
(213,194,o),
(272,175,o),
(272,111,cs),
(272,49,o),
(231,21,o),
(173,21,cs)
);
},
{
closed = 1;
nodes = (
(135,224,o),
(85,237,o),
(85,301,cs),
(85,354,o),
(124,380,o),
(173,380,cs),
(220,380,o),
(259,354,o),
(259,301,cs),
(259,237,o),
(210,224,o),
(173,224,cs)
);
}
);
width = 342;
},
{
layerId = "38A022BC-B010-4522-83EC-9E43C5A6F806";
shapes = (
{
closed = 1;
nodes = (
(256,-5,o),
(314,36,o),
(314,114,cs),
(314,177,o),
(256,200,o),
(243,210,c),
(253,218,o),
(299,238,o),
(299,298,cs),
(299,363,o),
(244,406,o),
(179,406,cs),
(112,406,o),
(57,363,o),
(57,298,cs),
(57,238,o),
(103,218,o),
(114,210,c),
(97,200,o),
(41,177,o),
(41,114,cs),
(41,36,o),
(101,-5,o),
(179,-5,cs)
);
},
{
closed = 1;
nodes = (
(132,48,o),
(96,70,o),
(96,117,cs),
(96,163,o),
(139,182,o),
(179,182,cs),
(218,182,o),
(259,163,o),
(259,117,cs),
(259,70,o),
(225,48,o),
(179,48,cs)
);
},
{
closed = 1;
nodes = (
(146,236,o),
(111,249,o),
(111,294,cs),
(111,332,o),
(140,353,o),
(179,353,cs),
(217,353,o),
(245,332,o),
(245,294,cs),
(245,249,o),
(211,236,o),
(179,236,cs)
);
}
);
width = 355;
}
);
},
{
glyphname = nine.dnom;
lastChange = "2022-09-12 12:02:42 +0000";
layers = (
{
layerId = "DFC09A70-1A82-4D07-97CF-EECDCA771356";
shapes = (
{
closed = 1;
nodes = (
(210,304,o),
(232,285,o),
(232,254,cs),
(232,225,o),
(212,202,o),
(183,202,cs),
(154,202,o),
(133,225,o),
(133,254,cs),
(133,282,o),
(152,304,o),
(183,304,cs)
);
},
{
closed = 1;
nodes = (
(95,396,o),
(37,332,o),
(37,254,cs),
(37,176,o),
(83,130,o),
(145,130,cs),
(156,130,o),
(178,131,o),
(189,134,c),
(112,-5,l),
(212,-5,l),
(303,161,ls),
(317,187,o),
(328,222,o),
(328,254,cs),
(328,332,o),
(270,396,o),
(183,396,cs)
);
}
);
width = 365;
},
{
layerId = "B950CEFC-B47C-4E26-91C8-4EFB806DAEDB";
shapes = (
{
closed = 1;
nodes = (
(234,375,o),
(270,326,o),
(270,264,cs),
(270,192,o),
(217,162,o),
(168,162,cs),
(100,162,o),
(69,216,o),
(69,269,cs),
(69,331,o),
(106,375,o),
(170,375,cs)
);
},
{
closed = 1;
nodes = (
(88,401,o),
(44,342,o),
(44,269,cs),
(44,196,o),
(92,136,o),
(163,136,cs),
(187,136,o),
(211,142,o),
(228,151,c),
(141,0,l),
(170,0,l),
(262,159,ls),
(281,191,o),
(295,228,o),
(295,264,cs),
(295,336,o),
(252,401,o),
(170,401,cs)
);
}
);
width = 339;
},
{
layerId = "38A022BC-B010-4522-83EC-9E43C5A6F806";
shapes = (
{
closed = 1;
nodes = (
(224,345,o),
(254,308,o),
(254,260,cs),
(254,206,o),
(215,179,o),
(174,179,cs),
(123,179,o),
(96,220,o),
(96,263,cs),
(96,310,o),
(126,345,o),
(176,345,cs)
);
},
{
closed = 1;
nodes = (
(91,399,o),
(41,338,o),
(41,263,cs),
(41,187,o),
(88,133,o),
(155,133,cs),
(174,133,o),
(197,137,o),
(211,144,c),
(129,-2,l),
(188,-2,l),
(280,160,ls),
(296,189,o),
(309,225,o),
(309,260,cs),
(309,334,o),
(260,399,o),
(176,399,cs)
);
}
);
width = 350;
}
);
},
{
glyphname = zero.numr;
lastChange = "2022-09-12 12:02:42 +0000";
layers = (
{
layerId = "DFC09A70-1A82-4D07-97CF-EECDCA771356";
shapes = (
{
closed = 1;
nodes = (
(150,391,o),
(133,434,o),
(133,502,cs),
(133,570,o),
(150,613,o),
(188,613,cs),
(226,613,o),
(243,570,o),
(243,502,cs),
(243,434,o),
(226,391,o),
(188,391,cs)
);
},
{
closed = 1;
nodes = (
(290,299,o),
(339,392,o),
(339,502,cs),
(339,612,o),
(290,705,o),
(188,705,cs),
(86,705,o),
(37,612,o),
(37,502,cs),
(37,392,o),
(86,299,o),
(188,299,cs)
);
}
);
width = 376;
},
{
layerId = "B950CEFC-B47C-4E26-91C8-4EFB806DAEDB";
shapes = (
{
closed = 1;
nodes = (
(92,325,o),
(70,410,o),
(70,502,cs),
(70,594,o),
(92,679,o),
(169,679,cs),
(246,679,o),
(268,594,o),
(268,502,cs),
(268,410,o),
(246,325,o),
(169,325,cs)
);
},
{
closed = 1;
nodes = (
(265,299,o),
(294,400,o),
(294,502,cs),
(294,603,o),
(265,705,o),
(169,705,cs),
(73,705,o),
(44,603,o),
(44,502,cs),
(44,400,o),
(73,299,o),
(169,299,cs)
);
}
);
width = 338;
},
{
layerId = "38A022BC-B010-4522-83EC-9E43C5A6F806";
shapes = (
{
closed = 1;
nodes = (
(117,353,o),
(97,420,o),
(97,502,cs),
(97,584,o),
(117,651,o),
(177,651,cs),
(237,651,o),
(257,584,o),
(257,502,cs),
(257,420,o),
(237,353,o),
(177,353,cs)
);
},
{
closed = 1;
nodes = (
(276,299,o),
(313,397,o),
(313,502,cs),
(313,607,o),
(276,705,o),
(177,705,cs),
(79,705,o),
(41,607,o),
(41,502,cs),
(41,397,o),
(79,299,o),
(177,299,cs)
);
}
);
width = 354;
}
);
},
{
glyphname = one.numr;
lastChange = "2022-09-12 12:02:42 +0000";
layers = (
{
layerId = "DFC09A70-1A82-4D07-97CF-EECDCA771356";
shapes = (
{
closed = 1;
nodes = (
(114,304,l),
(210,304,l),
(210,700,l),
(120,700,l),
(24,645,l),
(24,550,l),
(114,604,l)
);
}
);
width = 264;
},
{
layerId = "B950CEFC-B47C-4E26-91C8-4EFB806DAEDB";
shapes = (
{
closed = 1;
nodes = (
(120,304,l),
(146,304,l),
(146,700,l),
(121,700,l),
(28,634,l),
(28,604,l),
(120,669,l)
);
}
);
width = 204;
},
{
layerId = "38A022BC-B010-4522-83EC-9E43C5A6F806";
shapes = (
{
closed = 1;
nodes = (
(117,304,l),
(173,304,l),
(173,700,l),
(121,700,l),
(26,639,l),
(26,581,l),
(117,641,l)
);
}
);
width = 230;
}
);
},
{
glyphname = two.numr;
lastChange = "2022-09-12 12:02:42 +0000";
layers = (
{
layerId = "DFC09A70-1A82-4D07-97CF-EECDCA771356";
shapes = (
{
closed = 1;
nodes = (
(126,585,o),
(137,613,o),
(174,613,cs),
(200,613,o),
(213,595,o),
(213,578,cs),
(213,550,o),
(130,483,o),
(105,460,cs),
(33,393,l),
(33,304,l),
(303,304,l),
(303,396,l),
(168,396,l),
(204,432,ls),
(242,470,o),
(309,516,o),
(309,576,cs),
(309,645,o),
(256,705,o),
(173,705,cs),
(82,705,o),
(35,640,o),
(28,571,c),
(124,563,l)
);
}
);
width = 336;
},
{
layerId = "B950CEFC-B47C-4E26-91C8-4EFB806DAEDB";
shapes = (
{
closed = 1;
nodes = (
(65,643,o),
(102,679,o),
(158,679,cs),
(220,679,o),
(250,638,o),
(250,595,cs),
(250,540,o),
(148,447,o),
(128,427,cs),
(34,330,l),
(34,304,l),
(280,304,l),
(280,330,l),
(70,330,l),
(147,409,ls),
(171,434,o),
(276,528,o),
(276,595,cs),
(276,647,o),
(238,705,o),
(158,705,cs),
(71,705,o),
(40,639,o),
(38,580,c),
(64,580,l)
);
}
);
width = 314;
},
{
layerId = "38A022BC-B010-4522-83EC-9E43C5A6F806";
shapes = (
{
closed = 1;
nodes = (
(91,618,o),
(117,651,o),
(165,651,cs),
(211,651,o),
(234,620,o),
(234,588,cs),
(234,544,o),
(140,462,o),
(118,441,cs),
(34,357,l),
(34,304,l),
(290,304,l),
(290,358,l),
(112,358,l),
(171,419,ls),
(201,449,o),
(290,523,o),
(290,587,cs),
(290,646,o),
(246,705,o),
(164,705,cs),
(76,705,o),
(38,639,o),
(34,576,c),
(90,573,l)
);
}
);
width = 323;
}
);
},
{
glyphname = three.numr;
lastChange = "2022-09-12 12:02:42 +0000";
layers = (
{
layerId = "DFC09A70-1A82-4D07-97CF-EECDCA771356";
shapes = (
{
closed = 1;
nodes = (
(37,351,o),
(105,294,o),
(187,294,cs),
(272,294,o),
(336,348,o),
(336,419,cs),
(336,464,o),
(311,495,o),
(274,510,c),
(301,523,o),
(320,551,o),
(320,588,cs),
(320,662,o),
(264,705,o),
(181,705,cs),
(95,705,o),
(53,641,o),
(47,591,c),
(136,576,l),
(137,599,o),
(154,615,o),
(181,615,cs),
(215,615,o),
(228,599,o),
(228,575,cs),
(228,551,o),
(209,541,o),
(165,541,cs),
(145,541,l),
(145,468,l),
(164,468,ls),
(203,468,o),
(241,463,o),
(241,429,cs),
(241,400,o),
(216,386,o),
(179,386,cs),
(144,386,o),
(125,408,o),
(123,433,c),
(30,423,l)
);
}
);
width = 359;
},
{
layerId = "B950CEFC-B47C-4E26-91C8-4EFB806DAEDB";
shapes = (
{
closed = 1;
nodes = (
(37,335,o),
(95,294,o),
(162,294,cs),
(245,294,o),
(287,349,o),
(287,401,cs),
(287,470,o),
(236,502,o),
(202,506,c),
(234,513,o),
(271,551,o),
(271,600,cs),
(271,658,o),
(232,705,o),
(160,705,cs),
(103,705,o),
(53,659,o),
(52,590,c),
(77,590,l),
(78,640,o),
(110,679,o),
(160,679,cs),
(216,679,o),
(245,646,o),
(245,600,cs),
(245,558,o),
(212,520,o),
(166,520,cs),
(151,520,l),
(151,491,l),
(168,491,ls),
(216,491,o),
(261,461,o),
(261,401,cs),
(261,361,o),
(228,320,o),
(162,320,cs),
(111,320,o),
(62,348,o),
(61,414,c),
(36,414,l)
);
}
);
width = 318;
},
{
layerId = "38A022BC-B010-4522-83EC-9E43C5A6F806";
shapes = (
{
closed = 1;
nodes = (
(37,342,o),
(99,294,o),
(173,294,cs),
(257,294,o),
(308,349,o),
(308,409,cs),
(308,467,o),
(268,499,o),
(233,508,c),
(263,517,o),
(292,551,o),
(292,595,cs),
(292,660,o),
(246,705,o),
(169,705,cs),
(100,705,o),
(53,651,o),
(50,590,c),
(102,584,l),
(103,622,o),
(129,652,o),
(169,652,cs),
(216,652,o),
(238,626,o),
(238,589,cs),
(238,555,o),
(211,529,o),
(166,529,cs),
(148,529,l),
(148,481,l),
(166,481,ls),
(210,481,o),
(252,462,o),
(252,413,cs),
(252,378,o),
(223,348,o),
(169,348,cs),
(125,348,o),
(89,374,o),
(88,422,c),
(33,418,l)
);
}
);
width = 336;
}
);
},
{
glyphname = four.numr;
lastChange = "2022-09-12 12:02:42 +0000";
layers = (
{
layerId = "DFC09A70-1A82-4D07-97CF-EECDCA771356";
shapes = (
{
closed = 1;
nodes = (
(204,304,l),
(290,304,l),
(290,382,l),
(349,382,l),
(349,474,l),
(290,474,l),
(290,544,l),
(204,544,l),
(204,474,l),
(130,474,l),
(251,700,l),
(147,700,l),
(27,474,l),
(27,382,l),
(204,382,l)
);
}
);
width = 370;
},
{
layerId = "B950CEFC-B47C-4E26-91C8-4EFB806DAEDB";
shapes = (
{
closed = 1;
nodes = (
(184,304,l),
(208,304,l),
(208,413,l),
(293,413,l),
(293,439,l),
(208,439,l),
(208,530,l),
(184,530,l),
(184,439,l),
(59,439,l),
(168,700,l),
(141,700,l),
(31,439,l),
(31,413,l),
(184,413,l)
);
}
);
width = 320;
},
{
layerId = "38A022BC-B010-4522-83EC-9E43C5A6F806";
shapes = (
{
closed = 1;
nodes = (
(193,304,l),
(243,304,l),
(243,400,l),
(317,400,l),
(317,454,l),
(243,454,l),
(243,536,l),
(193,536,l),
(193,454,l),
(89,454,l),
(204,700,l),
(144,700,l),
(29,454,l),
(29,400,l),
(193,400,l)
);
}
);
width = 341;
}
);
},
{
glyphname = five.numr;
lastChange = "2022-09-12 12:02:42 +0000";
layers = (
{
layerId = "DFC09A70-1A82-4D07-97CF-EECDCA771356";
shapes = (
{
closed = 1;
nodes = (
(270,299,o),
(326,363,o),
(326,440,cs),
(326,521,o),
(281,577,o),
(207,577,cs),
(148,577,o),
(128,540,o),
(128,540,c),
(135,608,l),
(293,608,l),
(293,700,l),
(49,700,l),
(33,467,l),
(122,467,l),
(139,493,o),
(156,498,o),
(179,498,cs),
(211,498,o),
(230,475,o),
(230,444,cs),
(230,416,o),
(213,388,o),
(175,388,cs),
(144,388,o),
(126,412,o),
(126,433,c),
(32,433,l),
(32,361,o),
(89,299,o),
(170,299,cs)
);
}
);
width = 354;
},
{
layerId = "B950CEFC-B47C-4E26-91C8-4EFB806DAEDB";
shapes = (
{
closed = 1;
nodes = (
(239,299,o),
(276,358,o),
(276,439,c),
(276,506,o),
(238,563,o),
(159,563,cs),
(124,563,o),
(92,553,o),
(74,525,c),
(89,674,l),
(253,674,l),
(253,700,l),
(66,700,l),
(46,477,l),
(73,477,l),
(88,523,o),
(107,538,o),
(159,538,cs),
(212,538,o),
(250,500,o),
(250,439,cs),
(250,365,o),
(215,325,o),
(159,325,cs),
(99,325,o),
(71,361,o),
(64,423,c),
(38,423,l),
(44,351,o),
(80,299,o),
(159,299,cs)
);
}
);
width = 308;
},
{
layerId = "38A022BC-B010-4522-83EC-9E43C5A6F806";
shapes = (
{
closed = 1;
nodes = (
(252,299,o),
(297,360,o),
(297,439,cs),
(297,512,o),
(256,569,o),
(180,569,cs),
(134,569,o),
(107,547,o),
(97,531,c),
(109,646,l),
(270,646,l),
(270,700,l),
(59,700,l),
(40,473,l),
(94,473,l),
(110,510,o),
(128,521,o),
(168,521,cs),
(212,521,o),
(241,489,o),
(241,441,cs),
(241,387,o),
(214,352,o),
(166,352,cs),
(118,352,o),
(95,383,o),
(91,427,c),
(35,427,l),
(39,355,o),
(84,299,o),
(164,299,cs)
);
}
);
width = 328;
}
);
},
{
glyphname = six.numr;
lastChange = "2022-09-12 12:02:42 +0000";
layers = (
{
layerId = "DFC09A70-1A82-4D07-97CF-EECDCA771356";
shapes = (
{
closed = 1;
nodes = (
(155,391,o),
(133,410,o),
(133,441,cs),
(133,470,o),
(153,493,o),
(182,493,cs),
(211,493,o),
(232,470,o),
(232,441,cs),
(232,413,o),
(213,391,o),
(182,391,cs)
);
},
{
closed = 1;
nodes = (
(270,299,o),
(328,363,o),
(328,441,cs),
(328,519,o),
(282,565,o),
(220,565,cs),
(209,565,o),
(187,564,o),
(176,561,c),
(253,700,l),
(153,700,l),
(62,534,ls),
(48,508,o),
(37,473,o),
(37,441,cs),
(37,363,o),
(95,299,o),
(182,299,cs)
);
}
);
width = 365;
},
{
layerId = "B950CEFC-B47C-4E26-91C8-4EFB806DAEDB";
shapes = (
{
closed = 1;
nodes = (
(105,325,o),
(69,374,o),
(69,436,cs),
(69,508,o),
(122,538,o),
(171,538,cs),
(239,538,o),
(270,484,o),
(270,431,cs),
(270,369,o),
(233,325,o),
(169,325,cs)
);
},
{
closed = 1;
nodes = (
(251,299,o),
(295,358,o),
(295,431,cs),
(295,504,o),
(247,564,o),
(176,564,cs),
(152,564,o),
(128,558,o),
(111,549,c),
(198,700,l),
(169,700,l),
(77,541,ls),
(58,509,o),
(44,472,o),
(44,436,cs),
(44,364,o),
(87,299,o),
(169,299,cs)
);
}
);
width = 339;
},
{
layerId = "38A022BC-B010-4522-83EC-9E43C5A6F806";
shapes = (
{
closed = 1;
nodes = (
(126,353,o),
(96,389,o),
(96,438,cs),
(96,492,o),
(135,519,o),
(176,519,cs),
(227,519,o),
(254,478,o),
(254,435,cs),
(254,388,o),
(224,353,o),
(175,353,cs)
);
},
{
closed = 1;
nodes = (
(259,299,o),
(309,360,o),
(309,435,cs),
(309,510,o),
(262,564,o),
(195,564,cs),
(176,564,o),
(153,561,o),
(139,554,c),
(222,700,l),
(162,700,l),
(71,538,ls),
(54,509,o),
(41,472,o),
(41,438,cs),
(41,364,o),
(90,299,o),
(175,299,cs)
);
}
);
width = 350;
}
);
},
{
glyphname = seven.numr;
lastChange = "2022-09-12 12:02:42 +0000";
layers = (
{
layerId = "DFC09A70-1A82-4D07-97CF-EECDCA771356";
shapes = (
{
closed = 1;
nodes = (
(62,305,l),
(170,305,l),
(309,609,l),
(309,701,l),
(28,701,l),
(28,609,l),
(202,609,l)
);
}
);
width = 327;
},
{
layerId = "B950CEFC-B47C-4E26-91C8-4EFB806DAEDB";
shapes = (
{
closed = 1;
nodes = (
(110,305,l),
(139,305,l),
(283,672,l),
(283,701,l),
(32,701,l),
(32,675,l),
(255,675,l)
);
}
);
width = 304;
},
{
layerId = "38A022BC-B010-4522-83EC-9E43C5A6F806";
shapes = (
{
closed = 1;
nodes = (
(89,305,l),
(152,305,l),
(294,645,l),
(294,701,l),
(30,701,l),
(30,647,l),
(232,647,l)
);
}
);
width = 314;
}
);
},
{
glyphname = eight.numr;
lastChange = "2022-09-12 12:02:42 +0000";
layers = (
{
layerId = "DFC09A70-1A82-4D07-97CF-EECDCA771356";
shapes = (
{
closed = 1;
nodes = (
(265,294,o),
(336,333,o),
(336,416,cs),
(336,454,o),
(314,486,o),
(278,510,c),
(301,528,o),
(318,548,o),
(318,592,cs),
(318,656,o),
(256,705,o),
(187,705,cs),
(117,705,o),
(55,656,o),
(55,592,cs),
(55,548,o),
(73,528,o),
(95,510,c),
(60,486,o),
(37,454,o),
(37,416,cs),
(37,333,o),
(109,294,o),
(187,294,cs)
);
},
{
closed = 1;
nodes = (
(157,384,o),
(131,398,o),
(131,423,cs),
(131,447,o),
(149,466,o),
(187,466,cs),
(224,466,o),
(242,447,o),
(242,423,cs),
(242,398,o),
(217,384,o),
(187,384,cs)
);
},
{
closed = 1;
nodes = (
(160,551,o),
(145,565,o),
(145,583,cs),
(145,601,o),
(161,615,o),
(187,615,cs),
(212,615,o),
(227,601,o),
(227,583,cs),
(227,565,o),
(212,551,o),
(187,551,cs)
);
}
);
width = 373;
},
{
layerId = "B950CEFC-B47C-4E26-91C8-4EFB806DAEDB";
shapes = (
{
closed = 1;
nodes = (
(249,294,o),
(298,336,o),
(298,410,cs),
(298,493,o),
(212,509,o),
(217,509,c),
(217,509,o),
(285,528,o),
(285,600,cs),
(285,667,o),
(235,705,o),
(173,705,cs),
(109,705,o),
(59,667,o),
(59,600,cs),
(59,528,o),
(126,509,o),
(128,509,c),
(125,508,o),
(44,493,o),
(44,410,cs),
(44,336,o),
(95,294,o),
(173,294,cs)
);
},
{
closed = 1;
nodes = (
(113,320,o),
(70,348,o),
(70,410,cs),
(70,474,o),
(131,493,o),
(173,493,cs),
(213,493,o),
(272,474,o),
(272,410,cs),
(272,348,o),
(231,320,o),
(173,320,cs)
);
},
{
closed = 1;
nodes = (
(135,523,o),
(85,536,o),
(85,600,cs),
(85,653,o),
(124,679,o),
(173,679,cs),
(220,679,o),
(259,653,o),
(259,600,cs),
(259,536,o),
(210,523,o),
(173,523,cs)
);
}
);
width = 342;
},
{
layerId = "38A022BC-B010-4522-83EC-9E43C5A6F806";
shapes = (
{
closed = 1;
nodes = (
(256,294,o),
(314,335,o),
(314,413,cs),
(314,476,o),
(256,499,o),
(243,509,c),
(253,517,o),
(299,537,o),
(299,597,cs),
(299,662,o),
(244,705,o),
(179,705,cs),
(112,705,o),
(57,662,o),
(57,597,cs),
(57,537,o),
(103,517,o),
(114,509,c),
(97,499,o),
(41,476,o),
(41,413,cs),
(41,335,o),
(101,294,o),
(179,294,cs)
);
},
{
closed = 1;
nodes = (
(132,347,o),
(96,369,o),
(96,416,cs),
(96,462,o),
(139,481,o),
(179,481,cs),
(218,481,o),
(259,462,o),
(259,416,cs),
(259,369,o),
(225,347,o),
(179,347,cs)
);
},
{
closed = 1;
nodes = (
(146,535,o),
(111,548,o),
(111,593,cs),
(111,631,o),
(140,652,o),
(179,652,cs),
(217,652,o),
(245,631,o),
(245,593,cs),
(245,548,o),
(211,535,o),
(179,535,cs)
);
}
);
width = 355;
}
);
},
{
glyphname = nine.numr;
lastChange = "2022-09-12 12:02:42 +0000";
layers = (
{
layerId = "DFC09A70-1A82-4D07-97CF-EECDCA771356";
shapes = (
{
closed = 1;
nodes = (
(210,608,o),
(232,589,o),
(232,558,cs),
(232,529,o),
(212,506,o),
(183,506,cs),
(154,506,o),
(133,529,o),
(133,558,cs),
(133,586,o),
(152,608,o),
(183,608,cs)
);
},
{
closed = 1;
nodes = (
(95,700,o),
(37,636,o),
(37,558,cs),
(37,480,o),
(83,434,o),
(145,434,cs),
(156,434,o),
(178,435,o),
(189,438,c),
(112,299,l),
(212,299,l),
(303,465,ls),
(317,491,o),
(328,526,o),
(328,558,cs),
(328,636,o),
(270,700,o),
(183,700,cs)
);
}
);
width = 365;
},
{
layerId = "B950CEFC-B47C-4E26-91C8-4EFB806DAEDB";
shapes = (
{
closed = 1;
nodes = (
(234,679,o),
(270,630,o),
(270,568,cs),
(270,496,o),
(217,466,o),
(168,466,cs),
(100,466,o),
(69,520,o),
(69,573,cs),
(69,635,o),
(106,679,o),
(170,679,cs)
);
},
{
closed = 1;
nodes = (
(88,705,o),
(44,646,o),
(44,573,cs),
(44,500,o),
(92,440,o),
(163,440,cs),
(187,440,o),
(211,446,o),
(228,455,c),
(141,304,l),
(170,304,l),
(262,463,ls),
(281,495,o),
(295,532,o),
(295,568,cs),
(295,640,o),
(252,705,o),
(170,705,cs)
);
}
);
width = 339;
},
{
layerId = "38A022BC-B010-4522-83EC-9E43C5A6F806";
shapes = (
{
closed = 1;
nodes = (
(224,649,o),
(254,612,o),
(254,564,cs),
(254,510,o),
(215,483,o),
(174,483,cs),
(123,483,o),
(96,524,o),
(96,567,cs),
(96,614,o),
(126,649,o),
(176,649,cs)
);
},
{
closed = 1;
nodes = (
(91,703,o),
(41,642,o),
(41,567,cs),
(41,491,o),
(88,437,o),
(155,437,cs),
(174,437,o),
(197,441,o),
(211,448,c),
(129,302,l),
(188,302,l),
(280,464,ls),
(296,493,o),
(309,529,o),
(309,564,cs),
(309,638,o),
(260,703,o),
(176,703,cs)
);
}
);
width = 350;
}
);
},
{
glyphname = fraction;
lastChange = "2022-09-12 12:02:42 +0000";
layers = (
{
layerId = "DFC09A70-1A82-4D07-97CF-EECDCA771356";
shapes = (
{
closed = 1;
nodes = (
(-174,0,l),
(-67,0,l),
(389,700,l),
(282,700,l)
);
}
);
width = 199;
},
{
layerId = "B950CEFC-B47C-4E26-91C8-4EFB806DAEDB";
shapes = (
{
closed = 1;
nodes = (
(-123,0,l),
(-91,0,l),
(345,700,l),
(313,700,l)
);
}
);
width = 182;
},
{
layerId = "38A022BC-B010-4522-83EC-9E43C5A6F806";
shapes = (
{
closed = 1;
nodes = (
(-145,0,l),
(-81,0,l),
(364,700,l),
(300,700,l)
);
}
);
width = 189;
}
);
unicode = 8260;
},
{
glyphname = zero.dnom.zero;
lastChange = "2022-09-12 12:02:42 +0000";
layers = (
{
layerId = "DFC09A70-1A82-4D07-97CF-EECDCA771356";
shapes = (
{
closed = 1;
nodes = (
(150,87,o),
(133,130,o),
(133,198,cs),
(133,266,o),
(150,309,o),
(188,309,cs),
(226,309,o),
(243,266,o),
(243,198,cs),
(243,130,o),
(226,87,o),
(188,87,cs)
);
},
{
closed = 1;
nodes = (
(290,-5,o),
(339,88,o),
(339,198,cs),
(339,308,o),
(290,401,o),
(188,401,cs),
(86,401,o),
(37,308,o),
(37,198,cs),
(37,88,o),
(86,-5,o),
(188,-5,cs)
);
},
{
closed = 1;
nodes = (
(94,48,l),
(131,28,l),
(282,349,l),
(244,369,l)
);
}
);
width = 376;
},
{
layerId = "B950CEFC-B47C-4E26-91C8-4EFB806DAEDB";
shapes = (
{
closed = 1;
nodes = (
(92,21,o),
(70,106,o),
(70,198,cs),
(70,290,o),
(92,375,o),
(169,375,cs),
(246,375,o),
(268,290,o),
(268,198,cs),
(268,106,o),
(246,21,o),
(169,21,cs)
);
},
{
closed = 1;
nodes = (
(265,-5,o),
(294,96,o),
(294,198,cs),
(294,299,o),
(265,401,o),
(169,401,cs),
(73,401,o),
(44,299,o),
(44,198,cs),
(44,96,o),
(73,-5,o),
(169,-5,cs)
);
},
{
closed = 1;
nodes = (
(85,48,l),
(102,28,l),
(253,349,l),
(235,369,l)
);
}
);
width = 338;
},
{
layerId = "38A022BC-B010-4522-83EC-9E43C5A6F806";
shapes = (
{
closed = 1;
nodes = (
(117,49,o),
(97,116,o),
(97,198,cs),
(97,280,o),
(117,347,o),
(177,347,cs),
(237,347,o),
(257,280,o),
(257,198,cs),
(257,116,o),
(237,49,o),
(177,49,cs)
);
},
{
closed = 1;
nodes = (
(276,-5,o),
(313,93,o),
(313,198,cs),
(313,303,o),
(276,401,o),
(177,401,cs),
(79,401,o),
(41,303,o),
(41,198,cs),
(41,93,o),
(79,-5,o),
(177,-5,cs)
);
},
{
closed = 1;
nodes = (
(89,48,l),
(114,28,l),
(265,349,l),
(239,369,l)
);
}
);
width = 354;
}
);
},
{
glyphname = zero.numr.zero;
lastChange = "2022-09-12 12:02:42 +0000";
layers = (
{
layerId = "DFC09A70-1A82-4D07-97CF-EECDCA771356";
shapes = (
{
closed = 1;
nodes = (
(150,391,o),
(133,434,o),
(133,502,cs),
(133,570,o),
(150,613,o),
(188,613,cs),
(226,613,o),
(243,570,o),
(243,502,cs),
(243,434,o),
(226,391,o),
(188,391,cs)
);
},
{
closed = 1;
nodes = (
(290,299,o),
(339,392,o),
(339,502,cs),
(339,612,o),
(290,705,o),
(188,705,cs),
(86,705,o),
(37,612,o),
(37,502,cs),
(37,392,o),
(86,299,o),
(188,299,cs)
);
},
{
closed = 1;
nodes = (
(94,352,l),
(131,332,l),
(282,653,l),
(244,673,l)
);
}
);
width = 376;
},
{
layerId = "B950CEFC-B47C-4E26-91C8-4EFB806DAEDB";
shapes = (
{
closed = 1;
nodes = (
(92,325,o),
(70,410,o),
(70,502,cs),
(70,594,o),
(92,679,o),
(169,679,cs),
(246,679,o),
(268,594,o),
(268,502,cs),
(268,410,o),
(246,325,o),
(169,325,cs)
);
},
{
closed = 1;
nodes = (
(265,299,o),
(294,400,o),
(294,502,cs),
(294,603,o),
(265,705,o),
(169,705,cs),
(73,705,o),
(44,603,o),
(44,502,cs),
(44,400,o),
(73,299,o),
(169,299,cs)
);
},
{
closed = 1;
nodes = (
(85,352,l),
(102,332,l),
(253,653,l),
(235,673,l)
);
}
);
width = 338;
},
{
layerId = "38A022BC-B010-4522-83EC-9E43C5A6F806";
shapes = (
{
closed = 1;
nodes = (
(117,353,o),
(97,420,o),
(97,502,cs),
(97,584,o),
(117,651,o),
(177,651,cs),
(237,651,o),
(257,584,o),
(257,502,cs),
(257,420,o),
(237,353,o),
(177,353,cs)
);
},
{
closed = 1;
nodes = (
(276,299,o),
(313,397,o),
(313,502,cs),
(313,607,o),
(276,705,o),
(177,705,cs),
(79,705,o),
(41,607,o),
(41,502,cs),
(41,397,o),
(79,299,o),
(177,299,cs)
);
},
{
closed = 1;
nodes = (
(89,352,l),
(114,332,l),
(265,653,l),
(239,673,l)
);
}
);
width = 354;
}
);
},
{
glyphname = zerosuperior;
lastChange = "2022-09-12 12:02:42 +0000";
layers = (
{
layerId = "DFC09A70-1A82-4D07-97CF-EECDCA771356";
shapes = (
{
closed = 1;
nodes = (
(150,391,o),
(133,434,o),
(133,502,cs),
(133,570,o),
(150,613,o),
(188,613,cs),
(226,613,o),
(243,570,o),
(243,502,cs),
(243,434,o),
(226,391,o),
(188,391,cs)
);
},
{
closed = 1;
nodes = (
(290,299,o),
(339,392,o),
(339,502,cs),
(339,612,o),
(290,705,o),
(188,705,cs),
(86,705,o),
(37,612,o),
(37,502,cs),
(37,392,o),
(86,299,o),
(188,299,cs)
);
}
);
width = 376;
},
{
layerId = "B950CEFC-B47C-4E26-91C8-4EFB806DAEDB";
shapes = (
{
closed = 1;
nodes = (
(92,325,o),
(70,410,o),
(70,502,cs),
(70,594,o),
(92,679,o),
(169,679,cs),
(246,679,o),
(268,594,o),
(268,502,cs),
(268,410,o),
(246,325,o),
(169,325,cs)
);
},
{
closed = 1;
nodes = (
(265,299,o),
(294,400,o),
(294,502,cs),
(294,603,o),
(265,705,o),
(169,705,cs),
(73,705,o),
(44,603,o),
(44,502,cs),
(44,400,o),
(73,299,o),
(169,299,cs)
);
}
);
width = 338;
},
{
layerId = "38A022BC-B010-4522-83EC-9E43C5A6F806";
shapes = (
{
closed = 1;
nodes = (
(117,353,o),
(97,420,o),
(97,502,cs),
(97,584,o),
(117,651,o),
(177,651,cs),
(237,651,o),
(257,584,o),
(257,502,cs),
(257,420,o),
(237,353,o),
(177,353,cs)
);
},
{
closed = 1;
nodes = (
(276,299,o),
(313,397,o),
(313,502,cs),
(313,607,o),
(276,705,o),
(177,705,cs),
(79,705,o),
(41,607,o),
(41,502,cs),
(41,397,o),
(79,299,o),
(177,299,cs)
);
}
);
width = 354;
}
);
unicode = 8304;
},
{
glyphname = onesuperior;
lastChange = "2022-09-12 12:02:42 +0000";
layers = (
{
layerId = "DFC09A70-1A82-4D07-97CF-EECDCA771356";
shapes = (
{
closed = 1;
nodes = (
(114,304,l),
(210,304,l),
(210,700,l),
(120,700,l),
(24,645,l),
(24,550,l),
(114,604,l)
);
}
);
width = 264;
},
{
layerId = "B950CEFC-B47C-4E26-91C8-4EFB806DAEDB";
shapes = (
{
closed = 1;
nodes = (
(120,304,l),
(146,304,l),
(146,700,l),
(121,700,l),
(28,634,l),
(28,604,l),
(120,669,l)
);
}
);
width = 204;
},
{
layerId = "38A022BC-B010-4522-83EC-9E43C5A6F806";
shapes = (
{
closed = 1;
nodes = (
(117,304,l),
(173,304,l),
(173,700,l),
(121,700,l),
(26,639,l),
(26,581,l),
(117,641,l)
);
}
);
width = 230;
}
);
unicode = 185;
},
{
glyphname = twosuperior;
lastChange = "2022-09-12 12:02:42 +0000";
layers = (
{
layerId = "DFC09A70-1A82-4D07-97CF-EECDCA771356";
shapes = (
{
closed = 1;
nodes = (
(126,585,o),
(137,613,o),
(174,613,cs),
(200,613,o),
(213,595,o),
(213,578,cs),
(213,550,o),
(130,483,o),
(105,460,cs),
(33,393,l),
(33,304,l),
(303,304,l),
(303,396,l),
(168,396,l),
(204,432,ls),
(242,470,o),
(309,516,o),
(309,576,cs),
(309,645,o),
(256,705,o),
(173,705,cs),
(82,705,o),
(35,640,o),
(28,571,c),
(124,563,l)
);
}
);
width = 336;
},
{
layerId = "B950CEFC-B47C-4E26-91C8-4EFB806DAEDB";
shapes = (
{
closed = 1;
nodes = (
(65,643,o),
(102,679,o),
(158,679,cs),
(220,679,o),
(250,638,o),
(250,595,cs),
(250,540,o),
(148,447,o),
(128,427,cs),
(34,330,l),
(34,304,l),
(280,304,l),
(280,330,l),
(70,330,l),
(147,409,ls),
(171,434,o),
(276,528,o),
(276,595,cs),
(276,647,o),
(238,705,o),
(158,705,cs),
(71,705,o),
(40,639,o),
(38,580,c),
(64,580,l)
);
}
);
width = 314;
},
{
layerId = "38A022BC-B010-4522-83EC-9E43C5A6F806";
shapes = (
{
closed = 1;
nodes = (
(91,618,o),
(117,651,o),
(165,651,cs),
(211,651,o),
(234,620,o),
(234,588,cs),
(234,544,o),
(140,462,o),
(118,441,cs),
(34,357,l),
(34,304,l),
(290,304,l),
(290,358,l),
(112,358,l),
(171,419,ls),
(201,449,o),
(290,523,o),
(290,587,cs),
(290,646,o),
(246,705,o),
(164,705,cs),
(76,705,o),
(38,639,o),
(34,576,c),
(90,573,l)
);
}
);
width = 323;
}
);
unicode = 178;
},
{
glyphname = threesuperior;
lastChange = "2022-09-12 12:02:42 +0000";
layers = (
{
layerId = "DFC09A70-1A82-4D07-97CF-EECDCA771356";
shapes = (
{
closed = 1;
nodes = (
(37,351,o),
(105,294,o),
(187,294,cs),
(272,294,o),
(336,348,o),
(336,419,cs),
(336,464,o),
(311,495,o),
(274,510,c),
(301,523,o),
(320,551,o),
(320,588,cs),
(320,662,o),
(264,705,o),
(181,705,cs),
(95,705,o),
(53,641,o),
(47,591,c),
(136,576,l),
(137,599,o),
(154,615,o),
(181,615,cs),
(215,615,o),
(228,599,o),
(228,575,cs),
(228,551,o),
(209,541,o),
(165,541,cs),
(145,541,l),
(145,468,l),
(164,468,ls),
(203,468,o),
(241,463,o),
(241,429,cs),
(241,400,o),
(216,386,o),
(179,386,cs),
(144,386,o),
(125,408,o),
(123,433,c),
(30,423,l)
);
}
);
width = 359;
},
{
layerId = "B950CEFC-B47C-4E26-91C8-4EFB806DAEDB";
shapes = (
{
closed = 1;
nodes = (
(37,335,o),
(95,294,o),
(162,294,cs),
(245,294,o),
(287,349,o),
(287,401,cs),
(287,470,o),
(236,502,o),
(202,506,c),
(234,513,o),
(271,551,o),
(271,600,cs),
(271,658,o),
(232,705,o),
(160,705,cs),
(103,705,o),
(53,659,o),
(52,590,c),
(77,590,l),
(78,640,o),
(110,679,o),
(160,679,cs),
(216,679,o),
(245,646,o),
(245,600,cs),
(245,558,o),
(212,520,o),
(166,520,cs),
(151,520,l),
(151,491,l),
(168,491,ls),
(216,491,o),
(261,461,o),
(261,401,cs),
(261,361,o),
(228,320,o),
(162,320,cs),
(111,320,o),
(62,348,o),
(61,414,c),
(36,414,l)
);
}
);
width = 318;
},
{
layerId = "38A022BC-B010-4522-83EC-9E43C5A6F806";
shapes = (
{
closed = 1;
nodes = (
(37,342,o),
(99,294,o),
(173,294,cs),
(257,294,o),
(308,349,o),
(308,409,cs),
(308,467,o),
(268,499,o),
(233,508,c),
(263,517,o),
(292,551,o),
(292,595,cs),
(292,660,o),
(246,705,o),
(169,705,cs),
(100,705,o),
(53,651,o),
(50,590,c),
(102,584,l),
(103,622,o),
(129,652,o),
(169,652,cs),
(216,652,o),
(238,626,o),
(238,589,cs),
(238,555,o),
(211,529,o),
(166,529,cs),
(148,529,l),
(148,481,l),
(166,481,ls),
(210,481,o),
(252,462,o),
(252,413,cs),
(252,378,o),
(223,348,o),
(169,348,cs),
(125,348,o),
(89,374,o),
(88,422,c),
(33,418,l)
);
}
);
width = 336;
}
);
unicode = 179;
},
{
glyphname = foursuperior;
lastChange = "2022-09-12 12:02:42 +0000";
layers = (
{
layerId = "DFC09A70-1A82-4D07-97CF-EECDCA771356";
shapes = (
{
closed = 1;
nodes = (
(204,304,l),
(290,304,l),
(290,382,l),
(349,382,l),
(349,474,l),
(290,474,l),
(290,544,l),
(204,544,l),
(204,474,l),
(130,474,l),
(251,700,l),
(147,700,l),
(27,474,l),
(27,382,l),
(204,382,l)
);
}
);
width = 370;
},
{
layerId = "B950CEFC-B47C-4E26-91C8-4EFB806DAEDB";
shapes = (
{
closed = 1;
nodes = (
(184,304,l),
(208,304,l),
(208,413,l),
(293,413,l),
(293,439,l),
(208,439,l),
(208,530,l),
(184,530,l),
(184,439,l),
(59,439,l),
(168,700,l),
(141,700,l),
(31,439,l),
(31,413,l),
(184,413,l)
);
}
);
width = 320;
},
{
layerId = "38A022BC-B010-4522-83EC-9E43C5A6F806";
shapes = (
{
closed = 1;
nodes = (
(193,304,l),
(243,304,l),
(243,400,l),
(317,400,l),
(317,454,l),
(243,454,l),
(243,536,l),
(193,536,l),
(193,454,l),
(89,454,l),
(204,700,l),
(144,700,l),
(29,454,l),
(29,400,l),
(193,400,l)
);
}
);
width = 341;
}
);
unicode = 8308;
},
{
glyphname = fivesuperior;
lastChange = "2022-09-12 12:02:42 +0000";
layers = (
{
layerId = "DFC09A70-1A82-4D07-97CF-EECDCA771356";
shapes = (
{
closed = 1;
nodes = (
(270,299,o),
(326,363,o),
(326,440,cs),
(326,521,o),
(281,577,o),
(207,577,cs),
(148,577,o),
(128,540,o),
(128,540,c),
(135,608,l),
(293,608,l),
(293,700,l),
(49,700,l),
(33,467,l),
(122,467,l),
(139,493,o),
(156,498,o),
(179,498,cs),
(211,498,o),
(230,475,o),
(230,444,cs),
(230,416,o),
(213,388,o),
(175,388,cs),
(144,388,o),
(126,412,o),
(126,433,c),
(32,433,l),
(32,361,o),
(89,299,o),
(170,299,cs)
);
}
);
width = 354;
},
{
layerId = "B950CEFC-B47C-4E26-91C8-4EFB806DAEDB";
shapes = (
{
closed = 1;
nodes = (
(239,299,o),
(276,358,o),
(276,439,c),
(276,506,o),
(238,563,o),
(159,563,cs),
(124,563,o),
(92,553,o),
(74,525,c),
(89,674,l),
(253,674,l),
(253,700,l),
(66,700,l),
(46,477,l),
(73,477,l),
(88,523,o),
(107,538,o),
(159,538,cs),
(212,538,o),
(250,500,o),
(250,439,cs),
(250,365,o),
(215,325,o),
(159,325,cs),
(99,325,o),
(71,361,o),
(64,423,c),
(38,423,l),
(44,351,o),
(80,299,o),
(159,299,cs)
);
}
);
width = 308;
},
{
layerId = "38A022BC-B010-4522-83EC-9E43C5A6F806";
shapes = (
{
closed = 1;
nodes = (
(252,299,o),
(297,360,o),
(297,439,cs),
(297,512,o),
(256,569,o),
(180,569,cs),
(134,569,o),
(107,547,o),
(97,531,c),
(109,646,l),
(270,646,l),
(270,700,l),
(59,700,l),
(40,473,l),
(94,473,l),
(110,510,o),
(128,521,o),
(168,521,cs),
(212,521,o),
(241,489,o),
(241,441,cs),
(241,387,o),
(214,352,o),
(166,352,cs),
(118,352,o),
(95,383,o),
(91,427,c),
(35,427,l),
(39,355,o),
(84,299,o),
(164,299,cs)
);
}
);
width = 328;
}
);
unicode = 8309;
},
{
glyphname = sixsuperior;
lastChange = "2022-09-12 12:02:42 +0000";
layers = (
{
layerId = "DFC09A70-1A82-4D07-97CF-EECDCA771356";
shapes = (
{
closed = 1;
nodes = (
(155,391,o),
(133,410,o),
(133,441,cs),
(133,470,o),
(153,493,o),
(182,493,cs),
(211,493,o),
(232,470,o),
(232,441,cs),
(232,413,o),
(213,391,o),
(182,391,cs)
);
},
{
closed = 1;
nodes = (
(270,299,o),
(328,363,o),
(328,441,cs),
(328,519,o),
(282,565,o),
(220,565,cs),
(209,565,o),
(187,564,o),
(176,561,c),
(253,700,l),
(153,700,l),
(62,534,ls),
(48,508,o),
(37,473,o),
(37,441,cs),
(37,363,o),
(95,299,o),
(182,299,cs)
);
}
);
width = 365;
},
{
layerId = "B950CEFC-B47C-4E26-91C8-4EFB806DAEDB";
shapes = (
{
closed = 1;
nodes = (
(105,325,o),
(69,374,o),
(69,436,cs),
(69,508,o),
(122,538,o),
(171,538,cs),
(239,538,o),
(270,484,o),
(270,431,cs),
(270,369,o),
(233,325,o),
(169,325,cs)
);
},
{
closed = 1;
nodes = (
(251,299,o),
(295,358,o),
(295,431,cs),
(295,504,o),
(247,564,o),
(176,564,cs),
(152,564,o),
(128,558,o),
(111,549,c),
(198,700,l),
(169,700,l),
(77,541,ls),
(58,509,o),
(44,472,o),
(44,436,cs),
(44,364,o),
(87,299,o),
(169,299,cs)
);
}
);
width = 339;
},
{
layerId = "38A022BC-B010-4522-83EC-9E43C5A6F806";
shapes = (
{
closed = 1;
nodes = (
(126,353,o),
(96,389,o),
(96,438,cs),
(96,492,o),
(135,519,o),
(176,519,cs),
(227,519,o),
(254,478,o),
(254,435,cs),
(254,388,o),
(224,353,o),
(175,353,cs)
);
},
{
closed = 1;
nodes = (
(259,299,o),
(309,360,o),
(309,435,cs),
(309,510,o),
(262,564,o),
(195,564,cs),
(176,564,o),
(153,561,o),
(139,554,c),
(222,700,l),
(162,700,l),
(71,538,ls),
(54,509,o),
(41,472,o),
(41,438,cs),
(41,364,o),
(90,299,o),
(175,299,cs)
);
}
);
width = 350;
}
);
unicode = 8310;
},
{
glyphname = sevensuperior;
lastChange = "2022-09-12 12:02:42 +0000";
layers = (
{
layerId = "DFC09A70-1A82-4D07-97CF-EECDCA771356";
shapes = (
{
closed = 1;
nodes = (
(62,304,l),
(170,304,l),
(309,608,l),
(309,700,l),
(28,700,l),
(28,608,l),
(202,608,l)
);
}
);
width = 327;
},
{
layerId = "B950CEFC-B47C-4E26-91C8-4EFB806DAEDB";
shapes = (
{
closed = 1;
nodes = (
(110,304,l),
(139,304,l),
(283,671,l),
(283,700,l),
(32,700,l),
(32,674,l),
(255,674,l)
);
}
);
width = 304;
},
{
layerId = "38A022BC-B010-4522-83EC-9E43C5A6F806";
shapes = (
{
closed = 1;
nodes = (
(89,304,l),
(152,304,l),
(294,644,l),
(294,700,l),
(30,700,l),
(30,646,l),
(232,646,l)
);
}
);
width = 314;
}
);
unicode = 8311;
},
{
glyphname = eightsuperior;
lastChange = "2022-09-12 12:02:42 +0000";
layers = (
{
layerId = "DFC09A70-1A82-4D07-97CF-EECDCA771356";
shapes = (
{
closed = 1;
nodes = (
(265,294,o),
(336,333,o),
(336,416,cs),
(336,454,o),
(314,486,o),
(278,510,c),
(301,528,o),
(318,548,o),
(318,592,cs),
(318,656,o),
(256,705,o),
(187,705,cs),
(117,705,o),
(55,656,o),
(55,592,cs),
(55,548,o),
(73,528,o),
(95,510,c),
(60,486,o),
(37,454,o),
(37,416,cs),
(37,333,o),
(109,294,o),
(187,294,cs)
);
},
{
closed = 1;
nodes = (
(157,384,o),
(131,398,o),
(131,423,cs),
(131,447,o),
(149,466,o),
(187,466,cs),
(224,466,o),
(242,447,o),
(242,423,cs),
(242,398,o),
(217,384,o),
(187,384,cs)
);
},
{
closed = 1;
nodes = (
(160,551,o),
(145,565,o),
(145,583,cs),
(145,601,o),
(161,615,o),
(187,615,cs),
(212,615,o),
(227,601,o),
(227,583,cs),
(227,565,o),
(212,551,o),
(187,551,cs)
);
}
);
width = 373;
},
{
layerId = "B950CEFC-B47C-4E26-91C8-4EFB806DAEDB";
shapes = (
{
closed = 1;
nodes = (
(249,294,o),
(298,336,o),
(298,410,cs),
(298,493,o),
(212,509,o),
(217,509,c),
(217,509,o),
(285,528,o),
(285,600,cs),
(285,667,o),
(235,705,o),
(173,705,cs),
(109,705,o),
(59,667,o),
(59,600,cs),
(59,528,o),
(126,509,o),
(128,509,c),
(125,508,o),
(44,493,o),
(44,410,cs),
(44,336,o),
(95,294,o),
(173,294,cs)
);
},
{
closed = 1;
nodes = (
(113,320,o),
(70,348,o),
(70,410,cs),
(70,474,o),
(131,493,o),
(173,493,cs),
(213,493,o),
(272,474,o),
(272,410,cs),
(272,348,o),
(231,320,o),
(173,320,cs)
);
},
{
closed = 1;
nodes = (
(135,523,o),
(85,536,o),
(85,600,cs),
(85,653,o),
(124,679,o),
(173,679,cs),
(220,679,o),
(259,653,o),
(259,600,cs),
(259,536,o),
(210,523,o),
(173,523,cs)
);
}
);
width = 342;
},
{
layerId = "38A022BC-B010-4522-83EC-9E43C5A6F806";
shapes = (
{
closed = 1;
nodes = (
(256,294,o),
(314,335,o),
(314,413,cs),
(314,476,o),
(256,499,o),
(243,509,c),
(253,517,o),
(299,537,o),
(299,597,cs),
(299,662,o),
(244,705,o),
(179,705,cs),
(112,705,o),
(57,662,o),
(57,597,cs),
(57,537,o),
(103,517,o),
(114,509,c),
(97,499,o),
(41,476,o),
(41,413,cs),
(41,335,o),
(101,294,o),
(179,294,cs)
);
},
{
closed = 1;
nodes = (
(132,347,o),
(96,369,o),
(96,416,cs),
(96,462,o),
(139,481,o),
(179,481,cs),
(218,481,o),
(259,462,o),
(259,416,cs),
(259,369,o),
(225,347,o),
(179,347,cs)
);
},
{
closed = 1;
nodes = (
(146,535,o),
(111,548,o),
(111,593,cs),
(111,631,o),
(140,652,o),
(179,652,cs),
(217,652,o),
(245,631,o),
(245,593,cs),
(245,548,o),
(211,535,o),
(179,535,cs)
);
}
);
width = 355;
}
);
unicode = 8312;
},
{
glyphname = ninesuperior;
lastChange = "2022-09-12 12:02:42 +0000";
layers = (
{
layerId = "DFC09A70-1A82-4D07-97CF-EECDCA771356";
shapes = (
{
closed = 1;
nodes = (
(210,608,o),
(232,589,o),
(232,558,cs),
(232,529,o),
(212,506,o),
(183,506,cs),
(154,506,o),
(133,529,o),
(133,558,cs),
(133,586,o),
(152,608,o),
(183,608,cs)
);
},
{
closed = 1;
nodes = (
(95,700,o),
(37,636,o),
(37,558,cs),
(37,480,o),
(83,434,o),
(145,434,cs),
(156,434,o),
(178,435,o),
(189,438,c),
(112,299,l),
(212,299,l),
(303,465,ls),
(317,491,o),
(328,526,o),
(328,558,cs),
(328,636,o),
(270,700,o),
(183,700,cs)
);
}
);
width = 365;
},
{
layerId = "B950CEFC-B47C-4E26-91C8-4EFB806DAEDB";
shapes = (
{
closed = 1;
nodes = (
(234,679,o),
(270,630,o),
(270,568,cs),
(270,496,o),
(217,466,o),
(168,466,cs),
(100,466,o),
(69,520,o),
(69,573,cs),
(69,635,o),
(106,679,o),
(170,679,cs)
);
},
{
closed = 1;
nodes = (
(88,705,o),
(44,646,o),
(44,573,cs),
(44,500,o),
(92,440,o),
(163,440,cs),
(187,440,o),
(211,446,o),
(228,455,c),
(141,304,l),
(170,304,l),
(262,463,ls),
(281,495,o),
(295,532,o),
(295,568,cs),
(295,640,o),
(252,705,o),
(170,705,cs)
);
}
);
width = 339;
},
{
layerId = "38A022BC-B010-4522-83EC-9E43C5A6F806";
shapes = (
{
closed = 1;
nodes = (
(224,649,o),
(254,612,o),
(254,564,cs),
(254,510,o),
(215,483,o),
(174,483,cs),
(123,483,o),
(96,524,o),
(96,567,cs),
(96,614,o),
(126,649,o),
(176,649,cs)
);
},
{
closed = 1;
nodes = (
(91,703,o),
(41,642,o),
(41,567,cs),
(41,491,o),
(88,437,o),
(155,437,cs),
(174,437,o),
(197,441,o),
(211,448,c),
(129,302,l),
(188,302,l),
(280,464,ls),
(296,493,o),
(309,529,o),
(309,564,cs),
(309,638,o),
(260,703,o),
(176,703,cs)
);
}
);
width = 350;
}
);
unicode = 8313;
},
{
glyphname = zerosuperior.zero;
lastChange = "2022-09-12 12:02:42 +0000";
layers = (
{
layerId = "DFC09A70-1A82-4D07-97CF-EECDCA771356";
shapes = (
{
closed = 1;
nodes = (
(150,391,o),
(133,434,o),
(133,502,cs),
(133,570,o),
(150,613,o),
(188,613,cs),
(226,613,o),
(243,570,o),
(243,502,cs),
(243,434,o),
(226,391,o),
(188,391,cs)
);
},
{
closed = 1;
nodes = (
(290,299,o),
(339,392,o),
(339,502,cs),
(339,612,o),
(290,705,o),
(188,705,cs),
(86,705,o),
(37,612,o),
(37,502,cs),
(37,392,o),
(86,299,o),
(188,299,cs)
);
},
{
closed = 1;
nodes = (
(94,352,l),
(131,332,l),
(282,653,l),
(244,673,l)
);
}
);
width = 376;
},
{
layerId = "B950CEFC-B47C-4E26-91C8-4EFB806DAEDB";
shapes = (
{
closed = 1;
nodes = (
(92,325,o),
(70,410,o),
(70,502,cs),
(70,594,o),
(92,679,o),
(169,679,cs),
(246,679,o),
(268,594,o),
(268,502,cs),
(268,410,o),
(246,325,o),
(169,325,cs)
);
},
{
closed = 1;
nodes = (
(265,299,o),
(294,400,o),
(294,502,cs),
(294,603,o),
(265,705,o),
(169,705,cs),
(73,705,o),
(44,603,o),
(44,502,cs),
(44,400,o),
(73,299,o),
(169,299,cs)
);
},
{
closed = 1;
nodes = (
(85,352,l),
(102,332,l),
(253,653,l),
(235,673,l)
);
}
);
width = 338;
},
{
layerId = "38A022BC-B010-4522-83EC-9E43C5A6F806";
shapes = (
{
closed = 1;
nodes = (
(117,353,o),
(97,420,o),
(97,502,cs),
(97,584,o),
(117,651,o),
(177,651,cs),
(237,651,o),
(257,584,o),
(257,502,cs),
(257,420,o),
(237,353,o),
(177,353,cs)
);
},
{
closed = 1;
nodes = (
(276,299,o),
(313,397,o),
(313,502,cs),
(313,607,o),
(276,705,o),
(177,705,cs),
(79,705,o),
(41,607,o),
(41,502,cs),
(41,397,o),
(79,299,o),
(177,299,cs)
);
},
{
closed = 1;
nodes = (
(89,352,l),
(114,332,l),
(265,653,l),
(239,673,l)
);
}
);
width = 354;
}
);
},
{
glyphname = period;
lastChange = "2022-09-12 12:02:42 +0000";
layers = (
{
layerId = "DFC09A70-1A82-4D07-97CF-EECDCA771356";
shapes = (
{
closed = 1;
nodes = (
(50,18,o),
(76,-10,o),
(134,-10,c),
(187,-10,o),
(216,18,o),
(216,66,c),
(216,119,o),
(187,145,o),
(134,145,c),
(76,145,o),
(50,119,o),
(50,66,c)
);
}
);
width = 266;
},
{
layerId = "B950CEFC-B47C-4E26-91C8-4EFB806DAEDB";
shapes = (
{
closed = 1;
nodes = (
(87,1,o),
(96,-10,o),
(116,-10,c),
(134,-10,o),
(144,1,o),
(144,20,c),
(144,41,o),
(134,51,o),
(116,51,c),
(96,51,o),
(87,41,o),
(87,20,c)
);
}
);
width = 231;
},
{
layerId = "38A022BC-B010-4522-83EC-9E43C5A6F806";
shapes = (
{
closed = 1;
nodes = (
(71,8,o),
(87,-10,o),
(124,-10,c),
(157,-10,o),
(175,8,o),
(175,40,c),
(175,74,o),
(157,91,o),
(124,91,c),
(87,91,o),
(71,74,o),
(71,40,c)
);
}
);
width = 246;
}
);
unicode = 46;
},
{
glyphname = comma;
lastChange = "2022-09-12 12:02:42 +0000";
layers = (
{
layerId = "DFC09A70-1A82-4D07-97CF-EECDCA771356";
shapes = (
{
closed = 1;
nodes = (
(127,-185,l),
(246,65,l),
(83,65,l),
(26,-185,l)
);
}
);
width = 276;
},
{
layerId = "B950CEFC-B47C-4E26-91C8-4EFB806DAEDB";
shapes = (
{
closed = 1;
nodes = (
(85,-142,l),
(145,58,l),
(111,58,l),
(65,-142,l)
);
}
);
width = 194;
},
{
layerId = "38A022BC-B010-4522-83EC-9E43C5A6F806";
shapes = (
{
closed = 1;
nodes = (
(103,-160,l),
(188,61,l),
(99,61,l),
(48,-160,l)
);
}
);
width = 229;
}
);
unicode = 44;
},
{
glyphname = exclam;
lastChange = "2022-09-12 12:02:42 +0000";
layers = (
{
layerId = "DFC09A70-1A82-4D07-97CF-EECDCA771356";
shapes = (
{
closed = 1;
nodes = (
(53,16,o),
(79,-10,o),
(137,-10,c),
(190,-10,o),
(219,16,o),
(219,69,c),
(219,117,o),
(190,145,o),
(137,145,c),
(79,145,o),
(53,117,o),
(53,69,c)
);
},
{
closed = 1;
nodes = (
(69,500,l),
(95,210,l),
(180,210,l),
(204,500,l),
(204,700,l),
(69,700,l)
);
}
);
width = 272;
},
{
layerId = "B950CEFC-B47C-4E26-91C8-4EFB806DAEDB";
shapes = (
{
closed = 1;
nodes = (
(94,0,o),
(103,-10,o),
(123,-10,c),
(141,-10,o),
(151,0,o),
(151,21,c),
(151,40,o),
(141,51,o),
(123,51,c),
(103,51,o),
(94,40,o),
(94,21,c)
);
},
{
closed = 1;
nodes = (
(110,296,l),
(115,150,l),
(132,150,l),
(136,296,l),
(136,700,l),
(110,700,l)
);
}
);
width = 245;
},
{
layerId = "38A022BC-B010-4522-83EC-9E43C5A6F806";
shapes = (
{
closed = 1;
nodes = (
(76,7,o),
(93,-10,o),
(129,-10,c),
(162,-10,o),
(180,7,o),
(180,42,c),
(180,73,o),
(162,91,o),
(129,91,c),
(93,91,o),
(76,73,o),
(76,42,c)
);
},
{
closed = 1;
nodes = (
(92,383,l),
(106,176,l),
(153,176,l),
(165,383,l),
(165,700,l),
(92,700,l)
);
}
);
width = 257;
}
);
unicode = 33;
},
{
glyphname = exclamdown;
lastChange = "2022-09-12 12:02:42 +0000";
layers = (
{
layerId = "DFC09A70-1A82-4D07-97CF-EECDCA771356";
shapes = (
{
closed = 1;
nodes = (
(53,383,o),
(79,355,o),
(137,355,c),
(190,355,o),
(219,383,o),
(219,431,c),
(219,484,o),
(190,510,o),
(137,510,c),
(79,510,o),
(53,484,o),
(53,431,c)
);
},
{
closed = 1;
nodes = (
(204,-200,l),
(204,0,l),
(180,290,l),
(95,290,l),
(69,0,l),
(69,-200,l)
);
}
);
width = 272;
},
{
layerId = "B950CEFC-B47C-4E26-91C8-4EFB806DAEDB";
shapes = (
{
closed = 1;
nodes = (
(94,460,o),
(103,449,o),
(123,449,c),
(141,449,o),
(151,460,o),
(151,479,c),
(151,500,o),
(141,510,o),
(123,510,c),
(103,510,o),
(94,500,o),
(94,479,c)
);
},
{
closed = 1;
nodes = (
(136,-200,l),
(136,204,l),
(132,350,l),
(115,350,l),
(110,204,l),
(110,-200,l)
);
}
);
width = 245;
},
{
layerId = "38A022BC-B010-4522-83EC-9E43C5A6F806";
shapes = (
{
closed = 1;
nodes = (
(76,427,o),
(93,409,o),
(129,409,c),
(162,409,o),
(180,427,o),
(180,458,c),
(180,493,o),
(162,510,o),
(129,510,c),
(93,510,o),
(76,493,o),
(76,458,c)
);
},
{
closed = 1;
nodes = (
(165,-200,l),
(165,117,l),
(153,324,l),
(106,324,l),
(92,117,l),
(92,-200,l)
);
}
);
width = 257;
}
);
unicode = 161;
},
{
glyphname = question;
lastChange = "2022-09-12 12:02:42 +0000";
layers = (
{
layerId = "DFC09A70-1A82-4D07-97CF-EECDCA771356";
shapes = (
{
closed = 1;
nodes = (
(163,551,o),
(197,575,o),
(244,575,cs),
(292,575,o),
(325,556,o),
(325,505,cs),
(325,445,o),
(175,372,o),
(175,255,cs),
(175,210,l),
(299,210,l),
(301,255,ls),
(305,342,o),
(470,393,o),
(470,502,cs),
(470,613,o),
(398,710,o),
(250,710,cs),
(103,710,o),
(23,622,o),
(11,500,c),
(156,490,l)
);
},
{
closed = 1;
nodes = (
(158,18,o),
(184,-10,o),
(242,-10,c),
(295,-10,o),
(324,18,o),
(324,66,c),
(324,119,o),
(295,145,o),
(242,145,c),
(184,145,o),
(158,119,o),
(158,66,c)
);
}
);
width = 490;
},
{
layerId = "B950CEFC-B47C-4E26-91C8-4EFB806DAEDB";
shapes = (
{
closed = 1;
nodes = (
(64,599,o),
(130,674,o),
(244,674,cs),
(369,674,o),
(414,587,o),
(414,508,cs),
(414,352,o),
(226,354,o),
(226,202,cs),
(226,150,l),
(248,150,l),
(248,202,ls),
(248,336,o),
(440,338,o),
(440,508,cs),
(440,602,o),
(383,700,o),
(244,700,cs),
(93,700,o),
(38,586,o),
(35,481,c),
(61,481,l)
);
},
{
closed = 1;
nodes = (
(209,1,o),
(218,-10,o),
(238,-10,c),
(256,-10,o),
(266,1,o),
(266,20,c),
(266,41,o),
(256,51,o),
(238,51,c),
(218,51,o),
(209,41,o),
(209,20,c)
);
}
);
width = 473;
},
{
layerId = "38A022BC-B010-4522-83EC-9E43C5A6F806";
shapes = (
{
closed = 1;
nodes = (
(106,578,o),
(159,632,o),
(244,632,cs),
(336,632,o),
(376,574,o),
(376,507,cs),
(376,392,o),
(204,362,o),
(204,225,cs),
(204,176,l),
(270,176,l),
(271,225,ls),
(272,339,o),
(453,362,o),
(453,505,cs),
(453,607,o),
(389,704,o),
(247,704,cs),
(97,704,o),
(32,601,o),
(25,489,c),
(102,485,l)
);
},
{
closed = 1;
nodes = (
(187,8,o),
(203,-10,o),
(240,-10,c),
(273,-10,o),
(291,8,o),
(291,40,c),
(291,74,o),
(273,91,o),
(240,91,c),
(203,91,o),
(187,74,o),
(187,40,c)
);
}
);
width = 480;
}
);
unicode = 63;
},
{
glyphname = bullet;
lastChange = "2022-09-12 12:02:42 +0000";
layers = (
{
layerId = "DFC09A70-1A82-4D07-97CF-EECDCA771356";
shapes = (
{
closed = 1;
nodes = (
(295,110,o),
(345,175,o),
(345,240,cs),
(345,278,ls),
(345,343,o),
(295,408,o),
(196,408,cs),
(97,408,o),
(47,343,o),
(47,278,cs),
(47,240,ls),
(47,175,o),
(95,110,o),
(196,110,c)
);
}
);
width = 392;
},
{
layerId = "B950CEFC-B47C-4E26-91C8-4EFB806DAEDB";
shapes = (
{
closed = 1;
nodes = (
(227,188,o),
(250,220,o),
(250,263,cs),
(250,285,ls),
(250,328,o),
(227,360,o),
(164,360,cs),
(101,360,o),
(78,328,o),
(78,285,cs),
(78,263,ls),
(78,220,o),
(101,188,o),
(164,188,c)
);
}
);
width = 329;
},
{
layerId = "38A022BC-B010-4522-83EC-9E43C5A6F806";
shapes = (
{
closed = 1;
nodes = (
(256,155,o),
(291,201,o),
(291,253,cs),
(291,282,ls),
(291,334,o),
(256,381,o),
(178,381,cs),
(99,381,o),
(65,334,o),
(65,282,cs),
(65,253,ls),
(65,201,o),
(98,155,o),
(178,155,c)
);
}
);
width = 356;
}
);
unicode = 8226;
},
